<?xml version="1.0" encoding="utf-8" ?>
<svg baseProfile="full" height="200mm" version="1.1" viewBox="0,0,200,200" width="200mm" xmlns="http://www.w3.org/2000/svg" xmlns:ev="http://www.w3.org/2001/xml-events" xmlns:xlink="http://www.w3.org/1999/xlink"><defs /><rect fill="#1a1a1a" height="200" width="200" x="0" y="0" /><text alignment-baseline="middle" fill="#e1ed5e" style="dominant-baseline: central; font-size:9.0px; font-family:Arial;" text-anchor="middle" x="100.0" y="100.0">2023</text><line stroke="#e1ed5e" stroke-width="0.3" x1="100.0" x2="100.0" y1="15.0" y2="10.0" /><path d="M 100.0 14.0 a86.0,86.0 0 0,1 42.46469731375804,11.215312516191453" fill="none" id="id37" stroke="none" /><text fill="#e1ed5e" style="font-size:6.75px; font-family:Arial;" text-anchor="middle"><textPath startOffset="22.20632615414155" xlink:href="#id37">January</textPath></text><line stroke="#e1ed5e" stroke-width="0.3" x1="143.23703022742887" x2="145.7803849466894" y1="26.81831364943548" y2="22.513508569990506" /><path d="M 143.74570117128098 25.957352633546492 a86.0,86.0 0 0,1 28.547481713284135,27.462654790039103" fill="none" id="id38" stroke="none" /><text fill="#e1ed5e" style="font-size:6.75px; font-family:Arial;" text-anchor="middle"><textPath startOffset="19.985693538727396" xlink:href="#id38">February</textPath></text><path d="M 111.60114157652 82.49532879139004 l 8.203783077689247 -12.37848228077444 a35.85021482542348,35.85021482542348 0 0,0 0.5114550507720891,0.3453367333674658 l -8.415642822867879 12.235433635108304" fill="#ff5808" stroke="none" /><path d="M 112.19680574252982 82.90503203632743 l 5.518649524078137 -7.734905253749228 a30.50180255815102,30.50180255815102 0 0,0 0.42478071513253596,0.30862125462031587 l -5.650975555564462 7.638764764312238" fill="#ff0000" stroke="none" /><path d="M 113.34407831869373 83.78471172551755 l 9.424726614808124 -11.452620054935432 a35.831991703293994,35.831991703293994 0 0,0 0.4728841160148271,0.39602684774327634 l -9.62046826778207 11.288692049798335" fill="#ff5808" stroke="none" /><path d="M 114.42810811169701 84.74124197986012 l 10.212347717504398 -10.800289367986945 a35.863993283618946,35.863993283618946 0 0,0 0.44491291435021074,0.4280058711008627 l -10.396743875467028 10.622900410123782" fill="#ff5808" stroke="none" /><path d="M 114.94478906791727 85.2469230424477 l 13.732277167639657 -13.556119188831074 a40.29621215862511,40.29621215862511 0 0,0 0.4830474589393915,0.49782286750743215 l -13.963588890282157 13.317732125773526" fill="#ff9e0e" stroke="none" /><path d="M 115.4437574822437 85.77008943001954 l 23.000949152861804 -21.19312284243022 a52.27606301545755,52.27606301545755 0 0,0 0.6040532921075065,0.6670107322625364 l -23.362346085585347 20.794059322898132" fill="#b7ff1f" stroke="none" /><path d="M 115.92442197804982 86.31012108654704 l 11.262352325064247 -9.68199912205898 a35.851992690997086,35.851992690997086 0 0,0 0.3982804466736659,0.4714384247419776 l -11.427343385225033 9.486701747687896" fill="#ff5808" stroke="none" /><path d="M 116.82858285166822 87.43820079747576 l 11.882812860543833 -8.869998765257131 a35.828287816682305,35.828287816682305 0 0,0 0.36465926838321244,0.49739483226237874 l -12.033734741440673 8.664141489323258" fill="#ff5808" stroke="none" /><path d="M 117.2510076193507 88.02491185347247 l 25.70435795211663 -17.843128877945396 a52.29043409551089,52.29043409551089 0 0,0 0.5069072886384529,0.7438238970028357 l -26.007689706423815 17.398026957672155" fill="#b6ff1f" stroke="none" /><path d="M 117.65298651832404 88.62581576622439 l 12.493576371123755 -8.04986959211696 a35.8623635735098,35.8623635735098 0 0,0 0.3298866178950651,0.521801407067347 l -12.630290585264776 7.833620537335406" fill="#ff5808" stroke="none" /><line stroke="#e1ed5e" stroke-width="0.3" x1="172.23445277983987" x2="176.4835382374775" y1="55.19839476539836" y2="52.563006222186495" /><path d="M 173.08426987136738 54.67131705675599 a86.0,86.0 0 0,1 12.851231095245387,41.99856678651699" fill="none" id="id39" stroke="none" /><text fill="#e1ed5e" style="font-size:6.75px; font-family:Arial;" text-anchor="middle"><textPath startOffset="22.20632615414155" xlink:href="#id39">March</textPath></text><path d="M 118.03404312379186 89.2402003453031 l 12.752065881288036 -7.608370076765417 a35.84932589263667,35.84932589263667 0 0,0 0.3116165532600582,0.5326537015112958 l -12.881142109018423 7.3877369629002265" fill="#ff5808" stroke="none" /><path d="M 118.3937258080291 89.86733742301442 l 38.94731257814335 -21.455140777538812 a65.46589955059508,65.46589955059508 0 0,0 0.5352364157245104,0.9917117900138697 l -39.31085709308633 20.781548004192484" fill="#32ff4c" stroke="none" /><path d="M 118.73160827565052 90.50648371742162 l 13.244793096087971 -6.7126995753239065 a35.8487332707788,35.8487332707788 0 0,0 0.274225716583554,0.5528223111523998 l -13.358378825624934 6.483717675672557" fill="#ff5808" stroke="none" /><path d="M 119.04729006885535 91.15688171328212 l 14.804405858460205 -6.873267099817429 a37.3221393649069,37.3221393649069 0 0,0 0.2655162450994358,0.5850298505646012 l -14.920524420522987 6.617415240410765" fill="#ff6f0a" stroke="none" /><path d="M 119.61058180528143 92.48833698450437 l 29.43268260815948 -11.27393340951214 a52.51800088893278,52.51800088893278 0 0,0 0.31609687302041284,0.8469824662168782 l -29.62238406968152 10.765627806265927" fill="#b3ff20" stroke="none" /><path d="M 119.97218684219823 93.5106431181261 l 14.123252673881984 -4.588922968618316 a35.850066669959006,35.850066669959006 0 0,0 0.1856427693762975,0.5885383103842926 l -14.200150927026487 4.345134491807605" fill="#ff5808" stroke="none" /><path d="M 120.28053869075195 94.5502522615342 l 36.679755742593855 -9.856514116995926 a58.98098671539336,58.98098671539336 0 0,0 0.2550328544603108,0.9827456226843764 l -36.84398492892447 9.2236720687627" fill="#62ff29" stroke="none" /><path d="M 120.45610955862082 95.25157060432595 l 17.951032413939682 -4.166931632468039 a39.4283174477752,39.4283174477752 0 0,0 0.14777285210501925,0.6624367206423402 l -18.02009965304674 3.857316742275735" fill="#ff900d" stroke="none" /><path d="M 120.73433829027371 96.67025291283417 l 15.543403086640001 -2.496129870547255 a36.74255518791051,36.74255518791051 0 0,0 0.09490795613930583,0.6253248493877201 l -15.584066936218607 2.228205908767453" fill="#ff6609" stroke="none" /><path d="M 120.78858239683441 97.02765380044208 l 14.672990735989067 -2.0979404664411736 a35.82221344263914,35.82221344263914 0 0,0 0.08202263547267873,0.6111639058639151 l -14.706929370519584 1.845058218512594" fill="#ff5808" stroke="none" /><path d="M 120.83666639777658 97.38593545837742 l 36.19584871064206 -4.540951170505908 a57.47957923848091,57.47957923848091 0 0,0 0.11471185120890355,0.9827810878109221 l -36.268650914854554 3.917226344370133" fill="#75ff27" stroke="none" /><path d="M 120.96714384426684 98.82574320788733 l 19.436429773727397 -1.0885297418542297 a40.46688725369154,40.46688725369154 0 0,0 0.0329639250920274,0.6958163588974912 l -19.45228730705292 0.7538022763337386" fill="#ffa00e" stroke="none" /><path d="M 120.98425023603335 99.18683210126433 l 17.77657331467473 -0.6888661070288062 a38.78991555138525,38.78991555138525 0 0,0 0.02011221202681942,0.6674264032180366 l -17.785797221157196 0.3827695563857706" fill="#ff860c" stroke="none" /><line stroke="#e1ed5e" stroke-width="0.3" x1="184.98032266829074" x2="189.97916517819016" y1="98.17113171792111" y2="98.06355123074" /><path d="M 185.9800911702706 98.14961562048488 a86.0,86.0 0 0,1 -9.607161424134198,41.387399972396054" fill="none" id="id40" stroke="none" /><text fill="#e1ed5e" style="font-size:6.75px; font-family:Arial;" text-anchor="middle"><textPath startOffset="21.466115282336823" xlink:href="#id40">April</textPath></text><path d="M 120.9764740272857 100.99374915477107 l 15.545555788971782 0.736462329447849 a36.56299076497605,36.56299076497605 0 0,0 -0.03519387932503488,0.6284103572593606 l -15.530575558759217 -1.0039444030426328" fill="#ff6309" stroke="none" /><path d="M 120.92983693683757 101.71520430193887 l 12.554092522169915 1.0288103804127382 a33.59617758901674,33.59617758901674 0 0,0 -0.05219470749470213,0.5759642478892114 l -12.534523218398137 -1.2447560168505203" fill="#ff3404" stroke="none" /><path d="M 120.8583938346157 102.4346265915055 l 31.484265320402862 3.674896071616905 a52.69800977826065,52.69800977826065 0 0,0 -0.11292051931983661,0.900087642469112 l -31.416343291836178 -4.216301468373412" fill="#b1ff20" stroke="none" /><path d="M 120.41448212921028 104.9243191809786 l 60.92860856188672 14.697013321848214 a83.67613215467432,83.67613215467432 0 0,0 -0.349800841272936,1.3972804787404132 l -60.666596406318725 -15.743621639986022" fill="#4dd5ff" stroke="none" /><path d="M 119.41010516605496 108.01547362559984 l 9.940929530379588 4.1051430573417695 a31.755197787545065,31.755197787545065 0 0,0 -0.2129851643057088,0.5034340136182494 l -9.86879338488157 -4.275651596626182" fill="#ff1502" stroke="none" /><path d="M 118.81262510543309 109.33194174019688 l 14.078776522889457 6.983731486091899 a36.71573904884192,36.71573904884192 0 0,0 -0.2857207102448558,0.5637540676439048 l -13.956477142858333 -7.225039765438498" fill="#ff6609" stroke="none" /><line stroke="#e1ed5e" stroke-width="0.3" x1="174.80103733775053" x2="179.2010983576182" y1="140.37084112569926" y2="142.7455964860345" /><path d="M 175.68104954172406 140.8457921977663 a86.0,86.0 0 0,1 -30.038265399797805,32.042727171017184" fill="none" id="id41" stroke="none" /><text fill="#e1ed5e" style="font-size:6.75px; font-family:Arial;" text-anchor="middle"><textPath startOffset="22.206326154141568" xlink:href="#id41">May</textPath></text><path d="M 118.48025628344425 109.97397251340804 l 16.951045486801608 9.148642700932207 a40.262284557262085,40.262284557262085 0 0,0 -0.33441391600775167,0.6070583946421882 l -16.79105516134235 -9.439071613972201" fill="#ff9d0e" stroke="none" /><path d="M 118.12598468904814 110.60418214915192 l 14.209299850599916 8.312817560676834 a37.46229443429305,37.46229443429305 0 0,0 -0.3304158747359493,0.5537960115430567 l -14.064103100165738 -8.556175666105995" fill="#ff720a" stroke="none" /><path d="M 117.75023020441432 111.22182372390056 l 13.805038890840681 8.727645284063923 a37.33251024741962,37.33251024741962 0 0,0 -0.34807256877958476,0.5402163564238929 l -13.652761458684049 -8.963983240409272" fill="#ff700a" stroke="none" /><path d="M 115.56566222782051 114.09645910891815 l 7.083467336525308 6.414876938561678 a30.556471924539483,30.556471924539483 0 0,0 -0.35642464556637243,0.38682855803986016 l -6.971996282963214 -6.535856751402873" fill="#ff0100" stroke="none" /><line stroke="#e1ed5e" stroke-width="0.3" x1="143.8653032363475" x2="146.44561519142675" y1="172.8068346515853" y2="177.08958963109032" /><path d="M 144.38136562736335 173.6633856474863 a86.0,86.0 0 0,1 -40.68145358897372,12.25698825130547" fill="none" id="id42" stroke="none" /><text fill="#e1ed5e" style="font-size:6.75px; font-family:Arial;" text-anchor="middle"><textPath startOffset="21.466115282336833" xlink:href="#id42">June</textPath></text><path d="M 106.57524785965236 119.94407469862006 l 4.651237642379264 14.108157283298212 a35.855103955750906,35.855103955750906 0 0,0 -0.5878165219766869,0.1882002877029865 l -4.407699775311636 -14.186130417660905" fill="#ff5808" stroke="none" /><path d="M 105.18746579009965 120.34920634021253 l 3.6610861049816146 14.36157838799447 a35.820880043458935,35.820880043458935 0 0,0 -0.5988001084220819,0.1471704979158911 l -3.4133327118163215 -14.422470144224391" fill="#ff5808" stroke="none" /><path d="M 104.83641907484287 120.43548508189849 l 2.192447652822562 9.263823214814051 a30.519729369351573,30.519729369351573 0 0,0 -0.5122661737466344,0.11659011334926005 l -2.0326613296830653 -9.300190061740995" fill="#ff0000" stroke="none" /><path d="M 103.7750983002368 120.6578951692458 l 2.6926369425928725 14.73450683004276 a35.97851745765223,35.97851745765223 0 0,0 -0.6101802855930308,0.10608766398498196 l -2.4386076855277916 -14.778673072548749" fill="#ff5a08" stroke="none" /><line stroke="#e1ed5e" stroke-width="0.3" x1="102.19456741930631" x2="102.32365962044197" y1="184.97166512339345" y2="189.96999836594603" /><path d="M 102.22038585953345 185.97133177190398 a86.0,86.0 0 0,1 -42.740103519485714,-10.115201625700543" fill="none" id="id43" stroke="none" /><text fill="#e1ed5e" style="font-size:6.75px; font-family:Arial;" text-anchor="middle"><textPath startOffset="22.20632615414155" xlink:href="#id43">July</textPath></text><path d="M 100.54218724476979 120.99299961872073 l 0.3864427222321952 14.962712602953935 a35.96770210874611,35.96770210874611 0 0,0 -0.6190560668587303,0.010657611599432841 l -0.12882696548079703 -14.967147691832528" fill="#ff5a08" stroke="none" /><path d="M 99.09653310690486 120.98055641714683 l -0.6385707034410392 14.829064321309962 a35.84280705220011,35.84280705220011 0 0,0 -0.616175286066542,-0.031849224084722225 l 0.8937340579210701 -14.815875290463037" fill="#ff5808" stroke="none" /><line stroke="#e1ed5e" stroke-width="0.3" x1="58.666819895761336" x2="56.23545636021788" y1="174.27360380694188" y2="178.64263932499728" /><path d="M 58.180547188652646 175.14741091055294 a86.0,86.0 0 0,1 -31.652253787137756,-30.449443065178592" fill="none" id="id44" stroke="none" /><text fill="#e1ed5e" style="font-size:6.75px; font-family:Arial;" text-anchor="middle"><textPath startOffset="22.20632615414155" xlink:href="#id44">August</textPath></text><line stroke="#e1ed5e" stroke-width="0.3" x1="26.63291911575756" x2="22.317208475507996" y1="142.92168965132927" y2="145.44649492493687" /><path d="M 25.769776987707644 143.4266507060508 a86.0,86.0 0 0,1 -11.730757126820373,-40.83630448921669" fill="none" id="id45" stroke="none" /><text fill="#e1ed5e" style="font-size:6.75px; font-family:Arial;" text-anchor="middle"><textPath startOffset="21.46611528233685" xlink:href="#id45">September</textPath></text><path d="M 81.51974371655577 109.97397251340807 l -17.19015987004336 9.277695039245868 a40.53400167909526,40.53400167909526 0 0,0 -0.3261008531091143,-0.6168599197672665 l 17.34731323137736 -8.980420104392476" fill="#ffa10e" stroke="none" /><path d="M 81.18737489456691 109.33194174019688 l -22.35382044092098 11.088540214690815 a45.9529359474542,45.9529359474542 0 0,0 -0.34540577563324093,-0.711638203615811 l 22.54137947316894 -10.70211305510972" fill="#fff116" stroke="none" /><path d="M 80.87730276802145 108.67885076344099 l -13.71640664847829 6.225201647482033 a36.06296607239864,36.06296607239864 0 0,0 -0.25168329471159046,-0.5674793871253143 l 13.82153102792116 -5.988173923864022" fill="#ff5c08" stroke="none" /><path d="M 80.32549172779595 107.34259656027581 l -13.966606441640463 5.212387267741704 a35.90755099017235,35.90755099017235 0 0,0 -0.21112911400020007,-0.5809366453822018 l 14.054259816645885 -4.971202825353385" fill="#ff5908" stroke="none" /><path d="M 79.86692584326677 105.97154293290107 l -9.2034353723678 2.7297723650361934 a30.599733320163956,30.599733320163956 0 0,0 -0.14543231879399926,-0.5062689806497094 l 9.249060328047902 -2.570945908881888" fill="#ff0200" stroke="none" /><path d="M 79.67330655649465 105.27499134158121 l -30.460283571355482 7.904764862400543 a52.469257741123016,52.469257741123016 0 0,0 -0.21934319890509016,-0.8761670465378443 l 30.591838084555633 -7.379269976465307" fill="#b4ff20" stroke="none" /><path d="M 79.10278846688536 102.07522291339032 l -15.028011705727796 1.492374912557339 a36.101930959553556,36.101930959553556 0 0,0 -0.0560876225110756,-0.6189222407035239 l 15.051473924515946 -1.2334712833052488" fill="#ff5c08" stroke="none" /><path d="M 79.0095281055655 100.63252640178507 l -31.257281726096387 0.9419062153163084 a52.27147019605907,52.27147019605907 0 0,0 -0.019360200883211835,-0.8995924605942143 l 31.268863989664606 -0.4037239389319652" fill="#b7ff1f" stroke="none" /><line stroke="#e1ed5e" stroke-width="0.3" x1="15.007084014347285" x2="10.007500721073583" y1="101.09737516637583" y2="101.16192664675087" /><path d="M 14.007167355692545 101.11028546245083 a86.0,86.0 0 0,1 10.666146001902534,-42.60595125391555" fill="none" id="id46" stroke="none" /><text fill="#e1ed5e" style="font-size:6.75px; font-family:Arial;" text-anchor="middle"><textPath startOffset="22.20632615414155" xlink:href="#id46">October</textPath></text><path d="M 79.01574976396665 99.18683210126434 l -23.96867627829432 -0.9288184188362023 a44.986666008197936,44.986666008197936 0 0,0 0.03664569204785602,-0.7735326402676421 l 23.949136978012966 1.3412621657268535" fill="#ffe315" stroke="none" /><path d="M 79.08570108090925 98.10471618934814 l -14.763051890045416 -1.3378489688447448 a35.82354684181935,35.82354684181935 0 0,0 0.060939050545100314,-0.613647922664688 l 14.737835713818086 1.5917724222138632" fill="#ff5808" stroke="none" /><path d="M 79.21141760316559 97.0276538004421 l -15.086582958243948 -2.1570757767051894 a36.240011852437156,36.240011852437156 0 0,0 0.0936098602230739,-0.6167720191896259 l 15.047217204581571 2.4164469082869076" fill="#ff5e08" stroke="none" /><path d="M 79.26566170972629 96.67025291283419 l -15.487231099991881 -2.4871091578385243 a36.68566348955504,36.68566348955504 0 0,0 0.10549423462046419,-0.6226329444162176 l 15.442125003851194 2.75332789057057" fill="#ff6509" stroke="none" /><path d="M 79.46518482838121 95.60439243477599 l -37.67987843037038 -8.06561721160115 a59.53345844239222,59.53345844239222 0 0,0 0.22312463526653334,-1.000223989555536 l 37.535459408101815 8.713019370706645" fill="#5cff2a" stroke="none" /><path d="M 79.71946130924805 94.55025226153421 l -16.63687234886072 -4.470628657398153 a38.22707294187367,38.22707294187367 0 0,0 0.1762326849189561,-0.6340027337635329 l 16.5574528933754 4.756342694580629" fill="#ff7e0b" stroke="none" /><path d="M 80.02781315780177 93.51064311812611 l -14.91837518681402 -4.847273933988135 a36.686107955948444,36.686107955948444 0 0,0 0.20031087710523618,-0.5989040264949769 l 14.832727015937012 5.103351063405435" fill="#ff6509" stroke="none" /><path d="M 80.2630227832202 92.82701384747504 l -18.120066473806627 -6.58535420454079 a40.27961874660477,40.27961874660477 0 0,0 0.2424361422130793,-0.6496083294644873 l 18.004025743091923 6.89628567103462" fill="#ff9d0e" stroke="none" /><path d="M 80.65960295795068 91.81776055985345 l -16.385502349947277 -6.932127778083416 a38.79154526149439,38.79154526149439 0 0,0 0.2654621635064229,-0.6127232736212067 l 16.263749476598175 7.213150196291222" fill="#ff860c" stroke="none" /><path d="M 81.26839172434947 90.50648371742162 l -55.95562986861904 -28.359320536838183 a83.73183860931404,83.73183860931404 0 0,0 0.6626400819537024,-1.28000972423262 l 55.459180353505225 29.318302983331137" fill="#4dd5ff" stroke="none" /><line stroke="#e1ed5e" stroke-width="0.3" x1="26.266209847984257" x2="21.92892807433627" y1="57.711370442889674" y2="55.22380399835377" /><path d="M 25.39875349325466 57.213857153982495 a86.0,86.0 0 0,1 29.58750427330802,-30.492523968695096" fill="none" id="id47" stroke="none" /><text fill="#e1ed5e" style="font-size:6.75px; font-family:Arial;" text-anchor="middle"><textPath startOffset="21.46611528233685" xlink:href="#id47">November</textPath></text><path d="M 81.96595687620814 89.24020034530311 l -12.770132622669122 -7.619149385450621 a35.87036396859104,35.87036396859104 0 0,0 0.32092736663911864,-0.5275202085853664 l 12.637089457743786 7.837837367243062" fill="#ff5808" stroke="none" /><path d="M 82.15384107792192 88.93136811851018 l -12.718801832537801 -7.88851741557763 a35.96651686503037,35.96651686503037 0 0,0 0.3308446913084781,-0.5233168491255413 l 12.581129544983362 8.106281912417387" fill="#ff5a08" stroke="none" /><path d="M 82.95767976084542 87.72973835380427 l -12.239695491316661 -8.812430704310476 a36.08207812731493,36.08207812731493 0 0,0 0.36724233876244516,-0.5009181373567329 l 12.086190540040585 9.021811285338709" fill="#ff5c08" stroke="none" /><path d="M 83.39014120810768 87.1503855733568 l -12.722315382898383 -9.842157560315496 a37.08494246629463,37.08494246629463 0 0,0 0.3949474311425785,-0.5015431300114903 l 12.551013871161834 10.059693084280035" fill="#ff6c09" stroke="none" /><path d="M 83.6137871275137 86.86637796730984 l -14.015846020243444 -11.233762525283947 a38.96222035656082,38.96222035656082 0 0,0 0.42394886207266774,-0.519711176623377 l 13.820398666094384 11.473357871515406" fill="#ff890c" stroke="none" /><path d="M 84.07557802195018 86.31012108654704 l -33.731220442008805 -28.997995914112376 a65.48234480715097,65.48234480715097 0 0,0 0.7421586121953846,-0.8484155888276628 l 33.227069966235575 29.574327059142977" fill="#32ff4c" stroke="none" /><path d="M 84.5562425177563 85.77008943001954 l -13.211465917254893 -12.173072435061917 a38.9645908439923,38.9645908439923 0 0,0 0.45872953060407945,-0.48934067925687036 l 12.999969064680357 12.398682531196837" fill="#ff890c" stroke="none" /><path d="M 85.31137513191541 84.99185889309783 l -12.56175202926667 -12.835003187724082 a38.959257247271466,38.959257247271466 0 0,0 0.48331139663467554,-0.4649451806354395 l 12.338957389019566 13.049331455121834" fill="#ff890c" stroke="none" /><path d="M 85.83668400450813 84.49514656593479 l -23.068709640795145 -25.25375851300523 a55.2040594597264,55.2040594597264 0 0,0 0.7071088302269085,-0.6348492894992189 l 22.630589822972265 25.647106811273726" fill="#91ff24" stroke="none" /><path d="M 87.22198572758235 83.33499621200491 l -9.210541037038244 -12.012328206821207 a36.13704380463233,36.13704380463233 0 0,0 0.49689097097091095,-0.3742479777051322 l 9.002403912308942 12.169092774032194" fill="#ff5d08" stroke="none" /><path d="M 87.80319425747017 82.90503203632743 l -18.156196883571333 -25.447613958833585 a52.26065484715295,52.26065484715295 0 0,0 0.7367977392956361,-0.5161739020181693 l 17.71546800469204 25.756372703615696" fill="#b7ff1f" stroke="none" /><path d="M 88.39885842347998 82.49532879139004 l -12.382446455698963 -18.683562521460615 a43.41429206380562,43.41429206380562 0 0,0 0.6264743832173636,-0.40747636536324994 l 12.059005046697312 18.893937810983402" fill="#ffcc13" stroke="none" /><path d="M 89.00827224532344 82.1063720568725 l -17.95326648316984 -29.2264399176902 a55.30021235616574,55.30021235616574 0 0,0 0.8153830234137326,-0.4912591482238608 l 17.44752139353846 29.53114567537268" fill="#90ff24" stroke="none" /><line stroke="#e1ed5e" stroke-width="0.3" x1="56.762969772571076" x2="54.21961505331055" y1="26.818313649435495" y2="22.513508569990535" /><path d="M 56.25429882871897 25.957352633546506 a86.0,86.0 0 0,1 42.265352541879196,-11.944610805530505" fill="none" id="id48" stroke="none" /><text fill="#e1ed5e" style="font-size:6.75px; font-family:Arial;" text-anchor="middle"><textPath startOffset="22.20632615414155" xlink:href="#id48">December</textPath></text><path d="M 89.94658935756843 81.56283822128135 l -11.529827791305626 -21.144794322024538 a45.084004148353,45.084004148353 0 0,0 0.6845360973828946,-0.365655476235609 l 11.164146647394427 21.340128524761898" fill="#ffe415" stroke="none" /><path d="M 90.58718382345135 81.22770947309562 l -6.663208409039862 -13.288656842937796 a35.86562299372808,35.86562299372808 0 0,0 0.5542583422874432,-0.2719721614428992 l 6.433478799741993 13.401384164515521" fill="#ff5808" stroke="none" /><path d="M 92.23578459929587 80.48803036053334 l -23.29264620211241 -58.53590891839998 a84.0,84.0 0 0,0 1.34806734000129,-0.5230291844377941 l 22.281595697111445 58.92818080672833" fill="#4dd2ff" stroke="none" /><path d="M 97.11714578562143 79.19881850522333 l -3.257186151868515 -23.50216669624246 a44.726801323522146,44.726801323522146 0 0,0 0.7635190245446639,-0.09912668252863004 l 2.8521523988159934 23.554751701935228" fill="#ffdf14" stroke="none" /><path d="M 98.91598698831166 79.02799685794201 l -0.766134874278901 -14.822131115928723 a35.8419181194133,35.8419181194133 0 0,0 0.6164113006465386,-0.026543967261458003 l 0.5108827412430385 14.833122809714373" fill="#ff5808" stroke="none" /></svg>