<?xml version="1.0" encoding="utf-8" ?>
<svg baseProfile="full" height="200mm" version="1.1" viewBox="0,0,200,200" width="200mm" xmlns="http://www.w3.org/2000/svg" xmlns:ev="http://www.w3.org/2001/xml-events" xmlns:xlink="http://www.w3.org/1999/xlink"><defs /><rect fill="#1a1a1a" height="200" width="200" x="0" y="0" /><text alignment-baseline="middle" fill="#e1ed5e" style="dominant-baseline: central; font-size:9.0px; font-family:Arial;" text-anchor="middle" x="100.0" y="100.0">2024</text><line stroke="#e1ed5e" stroke-width="0.3" x1="100.0" x2="100.0" y1="15.0" y2="10.0" /><path d="M 100.0 14.0 a86.0,86.0 0 0,1 42.35913384403234,11.155469271406648" fill="none" id="id49" stroke="none" /><text fill="#e1ed5e" style="font-size:6.75px; font-family:Arial;" text-anchor="middle"><textPath startOffset="22.145653131862478" xlink:href="#id49">January</textPath></text><path d="M 100.0 79.0 l 0.0 -11.532726860757172 a32.53272686075717,32.53272686075717 0 0,0 0.5584675171115836,0.004793771964665292 l -0.1979745922627288 11.531027486986941" fill="#ff820c" stroke="none" /><path d="M 100.36049292484886 79.00309439819443 l 0.3908528601217601 -22.765219627023654 a43.76857462874847,43.76857462874847 0 0,0 0.7511243599191473,0.019346299089985145 l -0.7815905341116487 22.755155610583625" fill="#eaff1a" stroke="none" /><path d="M 101.08105385017728 79.02784411241856 l 0.5951757470822713 -11.546250490917036 a32.561580106928155,32.561580106928155 0 0,0 0.5579746907128265,0.033566371819897946 l -0.7932947899275602 11.534332141272447" fill="#ff830c" stroke="none" /><path d="M 102.15924093988457 79.11130261209362 l 1.3930616183980657 -13.476607474374731 a34.54841576314466,34.54841576314466 0 0,0 0.5894027154525641,0.06604380364287726 l -1.6242002354514264 13.450707910224883" fill="#ff9e0e" stroke="none" /><path d="M 102.87502721639298 79.19773525538626 l 1.3336961455010392 -9.649960928853782 a30.74168832066233,30.74168832066233 0 0,0 0.5221327826292282,0.07673553841663816 l -1.4991540337379494 9.62564431713826" fill="#ff6909" stroke="none" /><path d="M 103.58742460773223 79.30868818359171 l 2.8845271984227483 -16.63718634722893 a37.88539211007139,37.88539211007139 0 0,0 0.6398396517733943,0.11660009873333976 l -3.1697015837471962 16.585218074564224" fill="#ffca12" stroke="none" /><path d="M 104.9986988182912 79.60360301121754 l 2.7292383966452674 -11.13622401319922 a32.46578507987472,32.46578507987472 0 0,0 0.5401606408661996,0.1373067226264333 l -2.9200043307368615 11.087732058737519" fill="#ff810b" stroke="none" /><path d="M 107.06938296918511 80.22567764915836 l 6.138127847389271 -17.169436033388962 a39.233654246352565,39.233654246352565 0 0,0 0.6322425817722345,0.23216823349902793 l -6.431959580815629 17.061536950881212" fill="#ffdb14" stroke="none" /><line stroke="#e1ed5e" stroke-width="0.3" x1="143.13028292997686" x2="145.6673583964461" y1="26.7553504044142" y2="22.446841604673864" /><path d="M 143.63769802327073 25.89364864446614 a86.0,86.0 0 0,1 29.32050498858742,28.57503671076993" fill="none" id="id50" stroke="none" /><text fill="#e1ed5e" style="font-size:6.75px; font-family:Arial;" text-anchor="middle"><textPath startOffset="20.669276256404974" xlink:href="#id50">February</textPath></text><line stroke="#e1ed5e" stroke-width="0.3" x1="172.87174338648825" x2="177.1583165268699" y1="56.24261187166439" y2="53.66864786411523" /><path d="M 173.72905801456457 55.72781907015455 a86.0,86.0 0 0,1 12.242430191666344,42.057860355516425" fill="none" id="id51" stroke="none" /><text fill="#e1ed5e" style="font-size:6.75px; font-family:Arial;" text-anchor="middle"><textPath startOffset="22.145653131862474" xlink:href="#id51">March</textPath></text><path d="M 118.36410011445183 89.81374322990088 l 12.798261748307628 -7.098980051661006 a35.635266364233864,35.635266364233864 0 0,0 0.2921322296332795,0.537490398986482 l -12.918239327556249 6.878234819199921" fill="#ffac0f" stroke="none" /><path d="M 118.70294669586156 90.45014215332178 l 7.516780038798564 -3.838121446988809 a29.43997383843789,29.43997383843789 0 0,0 0.22595893039636245,0.4520692246794673 l -7.5815588824066635 3.7085203661455917" fill="#ff5708" stroke="none" /><path d="M 119.0197475246899 91.09779779509293 l 10.533007587141341 -4.929979393513605 a32.62965801953118,32.62965801953118 0 0,0 0.2330931242569825,0.5093505431128241 l -10.616085176253375 4.748439868186097" fill="#ff840c" stroke="none" /><path d="M 119.4528033332814 92.08871423366111 l 22.011449027035372 -8.951864695313521 a44.762149940461555,44.762149940461555 0 0,0 0.28336854878333206,0.7142738529705969 l -22.16187625078483 8.572689825129359" fill="#deff1b" stroke="none" /><path d="M 119.83427380445688 93.10060997987247 l 10.63837945555858 -3.700580609586902 a32.2636323754152,32.2636323754152 0 0,0 0.17747237582810874,0.5246655443612152 l -10.700337252959054 3.517413390751525" fill="#ff7f0b" stroke="none" /><path d="M 119.94978838288452 93.4421083053983 l 10.69400029240814 -3.515330305950409 a32.25696181986768,32.25696181986768 0 0,0 0.16840481796587414,0.5275256937131997 l -10.75276982615127 3.3312355785458223" fill="#ff7e0b" stroke="none" /><path d="M 120.05942366710727 93.78553927170692 l 10.781824309369812 -3.3402367317164665 a32.28737865325806,32.28737865325806 0 0,0 0.15947455863582155,0.5308389394094094 l -10.83757518800926 3.154660188716334" fill="#ff7f0b" stroke="none" /><path d="M 120.35273937422433 94.82641323984039 l 14.667917030849921 -3.728527150798685 a36.134388152090594,36.134388152090594 0 0,0 0.1476562488167293,0.6024878829907041 l -14.729760806182941 3.4761834431998855" fill="#ffb310" stroke="none" /><path d="M 120.43855184770803 95.1765574152323 l 7.8713990033033445 -1.8576287320713014 a29.08762677028445,29.08762677028445 0 0,0 0.11051793711110261,0.4869624228394316 l -7.902127801972114 1.7222319752928434" fill="#ff5207" stroke="none" /><path d="M 120.592083275326 95.88100663000786 l 31.99760462262299 -6.40041706970648 a53.63145783215783,53.63145783215783 0 0,0 0.17283045722929882,0.9043219834233829 l -32.102761372134445 5.850192521249782" fill="#78ff26" stroke="none" /><path d="M 120.86939407059847 97.66154086499901 l 7.991426715676559 -0.8954560320125698 a29.04143907875305,29.04143907875305 0 0,0 0.051261745978039217,0.495910891430314 l -8.005620854136263 0.7581406182993243" fill="#ff5207" stroke="none" /><line stroke="#e1ed5e" stroke-width="0.3" x1="184.99686870605535" x2="189.99668451229388" y1="99.2704041080226" y2="99.22748670261217" /><path d="M 185.99683186730306 99.26182062694052 a86.0,86.0 0 0,1 -10.086455211305974,41.156179273409016" fill="none" id="id52" stroke="none" /><text fill="#e1ed5e" style="font-size:6.75px; font-family:Arial;" text-anchor="middle"><textPath startOffset="21.40746469413373" xlink:href="#id52">April</textPath></text><path d="M 120.93736805541906 101.62068470465957 l 11.895351705115466 0.9207754534379993 a32.930935404403435,32.930935404403435 0 0,0 -0.04846551973927706,0.5632428041663576 l -11.877792562678447 -1.1248393049800143" fill="#ff880c" stroke="none" /><path d="M 120.9064616781168 101.97986365728391 l 11.872237995416961 1.1243132816852899 a32.92535598526082,32.92535598526082 0 0,0 -0.05811734157443215,0.5622325599304356 l -11.851188261360864 -1.327950363898657" fill="#ff880c" stroke="none" /><path d="M 120.77682067341334 103.0534771498775 l 11.800053904506353 1.7342015667892536 a32.926807084191054,32.926807084191054 0 0,0 -0.086987148842002,0.5585198959358137 l -11.768545263526082 -1.936509644656518" fill="#ff880c" stroke="none" /><path d="M 120.592083275326 104.11899336999214 l 54.76675414344578 10.95488466109416 a76.85165044424839,76.85165044424839 0 0,0 -0.26986745860402966,1.2914134825399828 l -54.57062897401739 -11.893414594919552" fill="#44ffe6" stroke="none" /><path d="M 120.05942366710727 106.21446072829308 l 8.768608651353384 2.7165373746485466 a30.179764320964445,30.179764320964445 0 0,0 -0.15756033519544763,0.49355550589119646 l -8.720683600380681 -2.8666619142311265" fill="#ff6209" stroke="none" /><path d="M 119.83427380445688 106.89939002012753 l 11.264252102502704 3.918291605047033 a32.926289638060894,32.926289638060894 0 0,0 -0.19028232912185447,0.532253540390417 l -11.195329603336907 -4.111080101818372" fill="#ff880c" stroke="none" /><path d="M 119.4528033332814 107.91128576633889 l 10.433928939818223 4.243388065685598 a32.26380110784895,32.26380110784895 0 0,0 -0.21305501765113122,0.5112544824068864 l -10.359548077630606 -4.421875057533762" fill="#ff7f0b" stroke="none" /><path d="M 119.16976305983485 108.57439118712176 l 10.491446767705405 4.692690693379146 a32.49311973414196,32.49311973414196 0 0,0 -0.23211774978314498,0.5072191738604312 l -10.409344553067204 -4.872098849454266" fill="#ff820b" stroke="none" /><line stroke="#e1ed5e" stroke-width="0.3" x1="174.33088141563837" x2="178.70328620479359" y1="141.23008692659167" y2="143.65538615756765" /><path d="M 175.20536237346943 141.71514677278685 a86.0,86.0 0 0,1 -30.301960400862466,31.631185727798858" fill="none" id="id53" stroke="none" /><text fill="#e1ed5e" style="font-size:6.75px; font-family:Arial;" text-anchor="middle"><textPath startOffset="22.145653131862474" xlink:href="#id53">May</textPath></text><path d="M 118.36410011445183 110.18625677009912 l 19.682951186141043 10.91780122771044 a43.508152990501166,43.508152990501166 0 0,0 -0.367885539078969,0.6500184974410166 l -19.492632282040695 -11.254076495250578" fill="#edff1a" stroke="none" /><path d="M 118.00360718960297 110.81064883170644 l 9.643785578895795 5.790816151661237 a32.24882891656101,32.24882891656101 0 0,0 -0.28906012909017553,0.47215799715674406 l -9.542957485350215 -5.955511264942538" fill="#ff7e0b" stroke="none" /><path d="M 117.62189284568427 111.42229804090321 l 9.439317038432039 6.118451261718585 a32.24882891656101,32.24882891656101 0 0,0 -0.30509781805463104,0.46195698276679475 l -9.332894781456682 -6.279588122824441" fill="#ff7e0b" stroke="none" /><path d="M 117.21940702142032 112.02048342749411 l 11.14267133717599 7.778449976815158 a34.58909152850694,34.58909152850694 0 0,0 -0.3440542369462069,0.48395537135736716 l -11.007502001699823 -7.968582574882029" fill="#ff9e0e" stroke="none" /><path d="M 117.01052211995028 112.31430620078461 l 6.557848625785776 4.747376678203728 a29.095860913051375,29.095860913051375 0 0,0 -0.29635932798912024,0.40206834587418055 l -6.4753872782128274 -4.859251333346785" fill="#ff5207" stroke="none" /><path d="M 116.57777611688842 112.89097897827486 l 8.895114182850792 6.916894590201919 a32.26794067689025,32.26794067689025 0 0,0 -0.34378197826128565,0.43435729906195336 l -8.775065773947944 -7.068571833178556" fill="#ff7f0b" stroke="none" /><path d="M 116.1254893667686 113.45245675266167 l 18.24234417230259 15.218412319988223 a44.75675050258161,44.75675050258161 0 0,0 -0.4972377720003797,0.5857448451298536 l -17.978411836795097 -15.529323947567633" fill="#deff1b" stroke="none" /><path d="M 115.6541949942343 113.99807769240083 l 8.454456513019315 7.5600271467077915 a32.341598008635884,32.341598008635884 0 0,0 -0.3736260016829879,0.4106804254915248 l -8.323432810494445 -7.704045147756988" fill="#ff800b" stroke="none" /><path d="M 115.41159269507618 114.26474011684316 l 9.997229977881192 9.253286817549387 a34.622331817955384,34.622331817955384 0 0,0 -0.40746225386929247,0.4327107934408454 l -9.83691189027564 -9.42353907093473" fill="#ff9f0e" stroke="none" /><path d="M 114.65682725009322 115.03919595460226 l 12.608102458003938 12.937023835115319 a39.06462934305232,39.06462934305232 0 0,0 -0.4842665641652284,0.4639164139174258 l -12.384163407973396 -13.151552379338325" fill="#ffd914" stroke="none" /><path d="M 114.39649973595853 115.28858382429668 l 7.721254960668315 8.199705196402343 a32.26290120153563,32.26290120153563 0 0,0 -0.40646681661738865,0.37621961726382874 l -7.57935837273696 -8.331042559798552" fill="#ff7f0b" stroke="none" /><path d="M 113.86319453409587 115.77377054828091 l 7.434745427117127 8.45937551866538 a32.26217002765605,32.26217002765605 0 0,0 -0.41913247671068243,0.3620366507827652 l -7.2884334706435885 -8.585756301912864" fill="#ff7f0b" stroke="none" /><path d="M 113.59037401385872 116.0094264158162 l 8.015059390741175 9.441719808712934 a33.38496063713367,33.38496063713367 0 0,0 -0.4400863789215931,0.367135709510849 l -7.851798677657688 -9.577917702135652" fill="#ff8e0d" stroke="none" /><path d="M 113.03279911837588 116.46651593811092 l 7.435503704772068 9.394516032237435 a32.9809701954243,32.9809701954243 0 0,0 -0.44695505399521945,0.34755495337016 l -7.2731387061416175 -9.520772037228388" fill="#ff880c" stroke="none" /><path d="M 112.45986205192187 116.90419585922612 l 6.681552895792901 9.064809732531605 a32.261168881882476,32.261168881882476 0 0,0 -0.448613044811529,0.3247612483920403 l -6.524958840607404 -9.178171752296723" fill="#ff7f0b" stroke="none" /><path d="M 111.8722381534696 117.32195027204791 l 3.890441186469666 5.676269958302703 a27.881538582679696,27.881538582679696 0 0,0 -0.3971176992212435,0.2671985108358686 l -3.792427199151419 -5.742218143195693" fill="#ff4106" stroke="none" /><path d="M 111.5731344415666 117.5232005979908 l 8.282195414620038 12.540299464671284 a36.028435432525505,36.028435432525505 0 0,0 -0.5190056840780763,0.33641321397062884 l -8.065704098284952 -12.680626520345808" fill="#ffb110" stroke="none" /><line stroke="#e1ed5e" stroke-width="0.3" x1="143.1302829299769" x2="145.66735839644613" y1="173.24464959558577" y2="177.55315839532614" /><path d="M 143.63769802327073 174.10635135553383 a86.0,86.0 0 0,1 -40.68552437913181,11.842963189579606" fill="none" id="id54" stroke="none" /><text fill="#e1ed5e" style="font-size:6.75px; font-family:Arial;" text-anchor="middle"><textPath startOffset="21.407464694133747" xlink:href="#id54">June</textPath></text><path d="M 110.34350942703117 118.27599006163325 l 11.697108550951084 20.66767001423678 a44.74815639728935,44.74815639728935 0 0,0 -0.67176744635931,0.372618078520748 l -11.340596916435679 -20.865421008190673" fill="#deff1b" stroke="none" /><path d="M 109.3889696526874 118.78422872680471 l 1.0972081881344622 2.195151366895885 a23.454089511752613,23.454089511752613 0 0,0 -0.3616841191081466,0.1769178268781321 l -1.059363819764246 -2.21366294387124" fill="#ff0000" stroke="none" /><path d="M 108.07796709384702 119.3841803445677 l 9.14351167952379 21.941099452305675 a44.7700578671899,44.7700578671899 0 0,0 -0.7119410046187559,0.289540208668902 l -8.765516213714594 -22.094826917553867" fill="#deff1b" stroke="none" /><path d="M 107.407793817531 119.65005319985036 l 2.4708796013273866 6.5543017006770325 a28.00457827336904,28.00457827336904 0 0,0 -0.45128824243139143,0.16571929361430304 l -2.358002207241868 -6.595751843300057" fill="#ff4306" stroke="none" /><path d="M 106.38641147887787 120.00534299687104 l 2.082190156174074 6.522431007888921 a27.84672345718294,27.84672345718294 0 0,0 -0.45663238411021,0.14146587984843015 l -1.9699171391922397 -6.557213475543995" fill="#ff4006" stroke="none" /><path d="M 105.69591212413111 120.21278271476187 l 3.56040235577759 12.634611915723122 a34.12668591823387,34.12668591823387 0 0,0 -0.565233146991513,0.15405680769269697 l -3.342987807851382 -12.69386921755996" fill="#ff980e" stroke="none" /><line stroke="#e1ed5e" stroke-width="0.3" x1="101.45913802915013" x2="101.54496967792366" y1="184.9874750549273" y2="189.98673829345242" /><path d="M 101.47630435890484 185.9873277026323 a86.0,86.0 0 0,1 -42.54439059252881,-10.42667462771756" fill="none" id="id55" stroke="none" /><text fill="#e1ed5e" style="font-size:6.75px; font-family:Arial;" text-anchor="middle"><textPath startOffset="22.145653131862474" xlink:href="#id55">July</textPath></text><line stroke="#e1ed5e" stroke-width="0.3" x1="58.13341422392154" x2="55.67067388415222" y1="173.97424548756322" y2="178.32567169271397" /><path d="M 57.64086615596768 174.84453072859336 a86.0,86.0 0 0,1 -31.369924170532247,-30.572349798747897" fill="none" id="id56" stroke="none" /><text fill="#e1ed5e" style="font-size:6.75px; font-family:Arial;" text-anchor="middle"><textPath startOffset="22.145653131862474" xlink:href="#id56">August</textPath></text><path d="M 85.86807049272751 115.53346607816431 l -6.074207174201545 6.676617728926989 a30.026251552740135,30.026251552740135 0 0,0 -0.3782882018996573,-0.350137912163391 l 6.18792514741517 -6.571362070631221" fill="#ff5f08" stroke="none" /><path d="M 84.83555147118756 114.52719865689866 l -10.571163037745325 10.126935060777779 a35.639135961381164,35.639135961381164 0 0,0 -0.4194287877874225,-0.44541883777447233 l 10.743447659269002 -9.943974763058815" fill="#ffac0f" stroke="none" /><path d="M 83.20337586046588 112.60449989151573 l -11.703692056920653 8.782668709873361 a35.63255539646497,35.63255539646497 0 0,0 -0.36293960173195916,-0.49239727431815566 l 11.852733678236444 -8.580465126286326" fill="#ffac0f" stroke="none" /><line stroke="#e1ed5e" stroke-width="0.3" x1="26.387840678322732" x2="22.057713659400548" y1="142.50000000000003" y2="145.00000000000006" /><path d="M 25.521815274538298 143.00000000000003 a86.0,86.0 0 0,1 -11.493303480769221,-40.785679425670985" fill="none" id="id57" stroke="none" /><text fill="#e1ed5e" style="font-size:6.75px; font-family:Arial;" text-anchor="middle"><textPath startOffset="21.40746469413373" xlink:href="#id57">September</textPath></text><path d="M 81.4637452351635 109.86951160357371 l -10.447977844272993 5.562959717382961 a32.83667021808265,32.83667021808265 0 0,0 -0.2606479984326177,-0.49982690472136204 l 10.541933911680559 -5.382786569557096" fill="#ff860c" stroke="none" /><path d="M 80.83023694016515 108.57439118712176 l -21.68983503111798 9.701587325855307 a44.760676343873484,44.760676343873484 0 0,0 -0.3077107181933309,-0.70410234185087 l 21.853179631328278 -9.327822914228587" fill="#deff1b" stroke="none" /><path d="M 80.5471966667186 107.91128576633889 l -7.303117760240456 2.9701144146991707 a28.88397797157903,28.88397797157903 0 0,0 -0.18285115732338045,-0.46090436367152 l 7.353027592529961 -2.8443090338140853" fill="#ff4f07" stroke="none" /><path d="M 80.16572619554312 106.89939002012753 l -23.60692307403079 8.211713273126623 a45.994380406468395,45.994380406468395 0 0,0 -0.2530010220330174,-0.7479525663051136 l 23.74440951763617 -7.805259032347349" fill="#cfff1d" stroke="none" /><path d="M 79.64726062577567 105.17358676015961 l -10.91805714468803 2.775327431449346 a32.26527470443702,32.26527470443702 0 0,0 -0.13184585857233364,-0.5379760954846783 l 10.964090529776657 -2.587495511356568" fill="#ff7f0b" stroke="none" /><path d="M 79.2786578344484 103.40968896794605 l -47.191170453114175 7.7652891397134765 a68.82579099354477,68.82579099354477 0 0,0 -0.18182629460596808,-1.1674552447531723 l 47.31751823985841 -6.954045713028854" fill="#3aff90" stroke="none" /><line stroke="#e1ed5e" stroke-width="0.3" x1="15.003131293944662" x2="10.003315487706104" y1="100.72959589197737" y2="100.7725132973878" /><path d="M 14.003168132696942 100.73817937305945 a86.0,86.0 0 0,1 10.791469493833604,-42.45332614584628" fill="none" id="id58" stroke="none" /><text fill="#e1ed5e" style="font-size:6.75px; font-family:Arial;" text-anchor="middle"><textPath startOffset="22.145653131862435" xlink:href="#id58">October</textPath></text><path d="M 79.407916724674 95.88100663000787 l -14.350971052002834 -2.870596132785543 a35.635255115404945,35.635255115404945 0 0,0 0.1251345375032216,-0.5988140611654227 l 14.299578803675244 3.116526645236375" fill="#ffac0f" stroke="none" /><path d="M 79.73907114497095 94.47779374421319 l -11.132011638577948 -3.034079273951362 a32.538081303321455,32.538081303321455 0 0,0 0.15150584070660097,-0.5376407801739078 l 11.078287305796765 3.2247279780282825" fill="#ff820c" stroke="none" /><path d="M 80.68587082218212 91.75594674310238 l -10.87718872644321 -4.6428250696962206 a32.826625013860166,32.826625013860166 0 0,0 0.22566916284454192,-0.5163752077772535 l 10.79588568158169 4.828862347249341" fill="#ff860c" stroke="none" /><path d="M 80.9802524753101 91.09779779509293 l -10.35670269303581 -4.847459800916236 a32.434997035130095,32.434997035130095 0 0,0 0.240359919365487,-0.5022597872085843 l 10.271963515710418 5.024532090189908" fill="#ff810b" stroke="none" /><path d="M 81.29705330413844 90.45014215332179 l -10.180820945234565 -5.198399715858011 a32.43120617978521,32.43120617978521 0 0,0 0.2574295420752504,-0.4936550902867302 l 10.090083334184374 5.372401049249229" fill="#ff810b" stroke="none" /><path d="M 81.46374523516351 90.13048839642627 l -10.03128318745821 -5.341093283048981 a32.364590614941335,32.364590614941335 0 0,0 0.265319751531311,-0.48815845923120743 l 9.938118086311547 5.5125065757548075" fill="#ff800b" stroke="none" /><line stroke="#e1ed5e" stroke-width="0.3" x1="26.387840678322718" x2="22.05771365940052" y1="57.49999999999999" y2="54.99999999999999" /><path d="M 25.521815274538284 56.99999999999999 a86.0,86.0 0 0,1 29.574782752854787,-30.34633250058573" fill="none" id="id59" stroke="none" /><text fill="#e1ed5e" style="font-size:6.75px; font-family:Arial;" text-anchor="middle"><textPath startOffset="21.40746469413373" xlink:href="#id59">November</textPath></text><path d="M 81.81346652052679 89.5 l -20.578976200752358 -11.881277449151279 a44.762554898302554,44.762554898302554 0 0,0 0.3899165758408837,-0.6621635896834523 l 20.371985914781696 12.232792207128306" fill="#deff1b" stroke="none" /><path d="M 82.576782715395 88.27688183743585 l -9.524060465265258 -6.408212926344251 a32.47923867925893,32.47923867925893 0 0,0 0.31521915158371505,-0.4599141625991146 l 9.41265157686623 6.570761824013401" fill="#ff820b" stroke="none" /><path d="M 82.78059297857968 87.97951657250589 l -5.688380089891087 -3.9709310846049877 a27.93728777879017,27.93728777879017 0 0,0 0.27788940976249493,-0.3908862558751597 l 5.61937558159862 4.067994567189667" fill="#ff4206" stroke="none" /><path d="M 83.42222388311158 87.10902102172516 l -11.586996692741689 -9.010118711598881 a35.67789942582763,35.67789942582763 0 0,0 0.3801116088453236,-0.4802586005094885 l 11.430618653254804 9.207697256023053" fill="#ffad10" stroke="none" /><path d="M 85.08716467003674 85.21462403516908 l -44.73850598988975 -44.35612789449276 a84.0,84.0 0 0,0 1.024032319480094,-1.0152799590853063 l 43.97048175027968 45.11758786380673" fill="#4dd2ff" stroke="none" /><path d="M 86.96720088162412 83.53348406188908 l -9.293636140632326 -11.742205664549262 a35.97501474400076,35.97501474400076 0 0,0 0.4875300684639555,-0.37910633003682903 l 9.090696127533127 11.900013046206896" fill="#ffb110" stroke="none" /><path d="M 89.03521579738668 82.08984904055464 l -13.31052410438465 -21.74174079979131 a46.49261353684072,46.49261353684072 0 0,0 0.6842544717272323,-0.410875150044364 l 12.935336876099983 21.967029950371597" fill="#c9ff1d" stroke="none" /><line stroke="#e1ed5e" stroke-width="0.3" x1="56.869717070023135" x2="54.33264160355391" y1="26.7553504044142" y2="22.446841604673864" /><path d="M 56.362301976729285 25.89364864446614 a86.0,86.0 0 0,1 42.16139366436587,-11.88097634709845" fill="none" id="id60" stroke="none" /><text fill="#e1ed5e" style="font-size:6.75px; font-family:Arial;" text-anchor="middle"><textPath startOffset="22.145653131862474" xlink:href="#id60">December</textPath></text></svg>