<?xml version="1.0" encoding="utf-8" ?>
<svg baseProfile="full" height="200mm" version="1.1" viewBox="0,0,200,200" width="200mm" xmlns="http://www.w3.org/2000/svg" xmlns:ev="http://www.w3.org/2001/xml-events" xmlns:xlink="http://www.w3.org/1999/xlink"><defs /><rect fill="#1a1a1a" height="200" width="200" x="0" y="0" /><text alignment-baseline="middle" fill="#e1ed5e" style="dominant-baseline: central; font-size:9.0px; font-family:Arial;" text-anchor="middle" x="100.0" y="100.0">2023</text><line stroke="#e1ed5e" stroke-width="0.3" x1="100.0" x2="100.0" y1="15.0" y2="10.0" /><path d="M 100.0 14.0 a86.0,86.0 0 0,1 42.46469731375804,11.215312516191453" fill="none" id="id37" stroke="none" /><text fill="#e1ed5e" style="font-size:6.75px; font-family:Arial;" text-anchor="middle"><textPath startOffset="22.20632615414155" xlink:href="#id37">January</textPath></text><line stroke="#e1ed5e" stroke-width="0.3" x1="143.23703022742887" x2="145.7803849466894" y1="26.81831364943548" y2="22.513508569990506" /><path d="M 143.74570117128098 25.957352633546492 a86.0,86.0 0 0,1 28.547481713284135,27.462654790039103" fill="none" id="id38" stroke="none" /><text fill="#e1ed5e" style="font-size:6.75px; font-family:Arial;" text-anchor="middle"><textPath startOffset="19.985693538727396" xlink:href="#id38">February</textPath></text><path d="M 111.60114157652 82.49532879139004 l 8.203499953756426 -12.378055082181731 a35.84970232391231,35.84970232391231 0 0,0 0.5114477391984293,0.34533179656029256 l -8.415352387361397 12.235011373322768" fill="#ff5d08" stroke="none" /><path d="M 112.19680574252982 82.90503203632743 l 5.5184793759616895 -7.734666775194993 a30.501509603543,30.501509603543 0 0,0 0.4247766353255259,0.308618290467017 l -5.650801327641004 7.6385292499113016" fill="#ff0500" stroke="none" /><path d="M 113.34407831869373 83.78471172551755 l 9.425531039069586 -11.45359756503265 a35.83325765131133,35.83325765131133 0 0,0 0.47290082306014164,0.39604083941325835 l -9.621289399088846 11.289655568225573" fill="#ff5c08" stroke="none" /><path d="M 114.42810811169701 84.74124197986012 l 10.212392235104536 -10.800336448538525 a35.86405807864236,35.86405807864236 0 0,0 0.44491371816875025,0.4280066443736608 l -10.396789196885704 10.622946717402563" fill="#ff5d08" stroke="none" /><path d="M 114.94478906791727 85.2469230424477 l 13.732886041539825 -13.55672025208234 a40.297067731216025,40.297067731216025 0 0,0 0.4830577150439691,0.4978334373247409 l -13.964208020286902 13.318322619207486" fill="#ffa10e" stroke="none" /><path d="M 115.4437574822437 85.77008943001954 l 23.001276409673785 -21.19342437754389 a52.27650801034041,52.27650801034041 0 0,0 0.6040584340521835,0.6670164101262764 l -23.362678484342005 20.794355180148067" fill="#b4ff20" stroke="none" /><path d="M 115.9244219780498 86.31012108654704 l 11.263367933818515 -9.682872218796089 a35.85333200390082,35.85333200390082 0 0,0 0.39829532512536797,0.4714560361358829 l -11.428373872431001 9.487557233031099" fill="#ff5d08" stroke="none" /><path d="M 116.82858285166822 87.43820079747576 l 11.888030199437347 -8.873893279972336 a35.8347984134289,35.8347984134289 0 0,0 0.3647255330470066,0.4974852171893189 l -12.03901834499798 8.667945619111524" fill="#ff5c08" stroke="none" /><path d="M 117.2510076193507 88.02491185347247 l 25.710187501924047 -17.84717556172983 a52.297530524233025,52.297530524233025 0 0,0 0.5069760819369745,0.7439248426797689 l -26.013588049529755 17.401972695779655" fill="#b4ff20" stroke="none" /><path d="M 117.65298651832404 88.62581576622439 l 12.493780333004665 -8.050001008974256 a35.86260620664696,35.86260620664696 0 0,0 0.3298888498010811,0.5218049374066708 l -12.630496779051702 7.833748423853379" fill="#ff5d08" stroke="none" /><line stroke="#e1ed5e" stroke-width="0.3" x1="172.23445277983987" x2="176.4835382374775" y1="55.19839476539836" y2="52.563006222186495" /><path d="M 173.08426987136738 54.67131705675599 a86.0,86.0 0 0,1 12.851231095245387,41.99856678651699" fill="none" id="id39" stroke="none" /><text fill="#e1ed5e" style="font-size:6.75px; font-family:Arial;" text-anchor="middle"><textPath startOffset="22.20632615414155" xlink:href="#id39">March</textPath></text><path d="M 118.03404312379186 89.2402003453031 l 12.753725020480701 -7.609359982644525 a35.851257901050246,35.851257901050246 0 0,0 0.31163334704314105,0.5326824075303691 l -12.88281804199417 7.388698162760261" fill="#ff5d08" stroke="none" /><path d="M 118.3937258080291 89.86733742301442 l 38.94725318540821 -21.4551080595049 a65.46583174228637,65.46583174228637 0 0,0 0.5352358613370146,0.9917107628180405 l -39.31079714596369 20.781516313354402" fill="#32ff4e" stroke="none" /><path d="M 118.73160827565052 90.50648371742162 l 13.246014270895648 -6.7133184887001605 a35.85010232946206,35.85010232946206 0 0,0 0.2742361892297038,0.5528434233679881 l -13.359610473078758 6.484315476833222" fill="#ff5d08" stroke="none" /><path d="M 119.04729006885535 91.15688171328212 l 14.80515672423001 -6.873615705566375 a37.32296720871612,37.32296720871612 0 0,0 0.26552213452548407,0.5850428271342255 l -14.92128117571884 6.617750869590087" fill="#ff740a" stroke="none" /><path d="M 119.61058180528143 92.48833698450437 l 29.43156830844294 -11.27350658668495 a52.51680764059983,52.51680764059983 0 0,0 0.3160896910626003,0.8469632221405854 l -29.621262588007166 10.765220227515032" fill="#b1ff20" stroke="none" /><path d="M 119.97218684219823 93.5106431181261 l 14.124498321346946 -4.589327704014246 a35.85137642121313,35.85137642121313 0 0,0 0.18564955167470293,0.588559812123668 l -14.201403356789855 4.345517725464158" fill="#ff5d08" stroke="none" /><path d="M 120.28053869075195 94.5502522615342 l 36.6784675879784 -9.856167966540587 a58.97965286290862,58.97965286290862 0 0,0 0.2550270869032527,0.9827233979342717 l -36.84269100675196 9.223348143057464" fill="#61ff29" stroke="none" /><path d="M 120.45610955862082 95.25157060432595 l 17.951794828277006 -4.167108609944654 a39.429100133311664,39.429100133311664 0 0,0 0.14777578552144457,0.6624498705729898 l -18.02086500080049 3.8574805698217003" fill="#ff940d" stroke="none" /><path d="M 120.73433829027371 96.67025291283417 l 15.542836528072593 -2.4960388863685887 a36.741981370229475,36.741981370229475 0 0,0 0.09490647393799934,0.6253150835330283 l -15.583498895449893 2.228124690443478" fill="#ff6b09" stroke="none" /><path d="M 120.78858239683441 97.02765380044208 l 14.672513710120974 -2.097872261404435 a35.82173156547028,35.82173156547028 0 0,0 0.08202153211161961,0.61115568454244 l -14.706451241290429 1.8449982347973308" fill="#ff5c08" stroke="none" /><path d="M 120.83666639777658 97.38593545837742 l 36.198429476990746 -4.54127494061738 a57.48218023483454,57.48218023483454 0 0,0 0.11471704201076162,0.9828255594312728 l -36.2712368720051 3.9175056428612542" fill="#73ff27" stroke="none" /><path d="M 120.96714384426684 98.82574320788733 l 19.43566564600558 -1.0884869471763254 a40.46612192855821,40.46612192855821 0 0,0 0.03296330166576266,0.6958031993543736 l -19.45152255590484 0.753772641198952" fill="#ffa40f" stroke="none" /><path d="M 120.98425023603335 99.18683210126433 l 17.775956889938964 -0.6888422197418422 a38.78929866399087,38.78929866399087 0 0,0 0.020111892176417682,0.6674157889403572 l -17.785180476571025 0.38275628337648593" fill="#ff8a0c" stroke="none" /><line stroke="#e1ed5e" stroke-width="0.3" x1="184.98032266829074" x2="189.97916517819016" y1="98.17113171792111" y2="98.06355123074" /><path d="M 185.9800911702706 98.14961562048488 a86.0,86.0 0 0,1 -9.607161424134198,41.387399972396054" fill="none" id="id40" stroke="none" /><text fill="#e1ed5e" style="font-size:6.75px; font-family:Arial;" text-anchor="middle"><textPath startOffset="21.466115282336823" xlink:href="#id40">April</textPath></text><path d="M 120.9764740272857 100.99374915477107 l 15.546587212861873 0.7365111925989035 a36.56402334565018,36.56402334565018 0 0,0 -0.03519487324043617,0.6284281042865253 l -15.531605988733908 -1.0040110132208522" fill="#ff6809" stroke="none" /><path d="M 120.92983693683757 101.71520430193887 l 12.558534126440833 1.029174370766604 a33.60063408287146,33.60063408287146 0 0,0 -0.052201631061902086,0.5760406488763313 l -12.538957899101856 -1.2451964081915057" fill="#ff3805" stroke="none" /><path d="M 120.8583938346157 102.4346265915055 l 31.484839583939873 3.6749631006167807 a52.69858794043233,52.69858794043233 0 0,0 -0.11292175819722407,0.9000975175408322 l -31.4169163164958 -4.216378372445008" fill="#afff20" stroke="none" /><path d="M 120.41448212921028 104.9243191809786 l 60.92896538828948 14.69709939442592 a83.67649921539183,83.67649921539183 0 0,0 -0.34980237573855333,1.3972866081677884 l -60.666951698255865 -15.743713841991104" fill="#4dd5ff" stroke="none" /><path d="M 119.41010516605496 108.01547362559984 l 9.943287828145397 4.106116924993771 a31.757749255074906,31.757749255074906 0 0,0 -0.21300227724371346,0.5034744635486122 l -9.871134569709374 -4.276665914208546" fill="#ff1a02" stroke="none" /><path d="M 118.81262510543309 109.33194174019688 l 14.07957724335237 6.9841286808835985 a36.71663287039138,36.71663287039138 0 0,0 -0.2857276659356456,0.5637677918817197 l -13.957270907630456 -7.225450684468012" fill="#ff6a09" stroke="none" /><line stroke="#e1ed5e" stroke-width="0.3" x1="174.80103733775053" x2="179.2010983576182" y1="140.37084112569926" y2="142.7455964860345" /><path d="M 175.68104954172406 140.8457921977663 a86.0,86.0 0 0,1 -30.038265399797805,32.042727171017184" fill="none" id="id41" stroke="none" /><text fill="#e1ed5e" style="font-size:6.75px; font-family:Arial;" text-anchor="middle"><textPath startOffset="22.206326154141568" xlink:href="#id41">May</textPath></text><path d="M 118.48025628344425 109.97397251340804 l 16.95327268736054 9.149844742549808 a40.26481543188959,40.26481543188959 0 0,0 -0.3344349371620214,0.6070965541432028 l -16.79326134074701 -9.440311815090816" fill="#ffa10e" stroke="none" /><path d="M 118.12598468904814 110.60418214915192 l 14.208782504860965 8.312514899687981 a37.46169505937884,37.46169505937884 0 0,0 -0.33041058827419983,0.5537871511290878 l -14.063591040888538 -8.555864144703174" fill="#ff760a" stroke="none" /><path d="M 117.75023020441432 111.22182372390056 l 13.80757910392204 8.729251225118876 a37.3355155309621,37.3355155309621 0 0,0 -0.34810058877490396,0.5402598440788813 l -13.655273651770084 -8.96563266911921" fill="#ff740a" stroke="none" /><path d="M 115.56566222782051 114.09645910891815 l 7.084555518303154 6.415862409639617 a30.55794001609899,30.55794001609899 0 0,0 -0.3564417700568911,0.3868471432921902 l -6.973067340250541 -6.5368608077331425" fill="#ff0601" stroke="none" /><line stroke="#e1ed5e" stroke-width="0.3" x1="143.8653032363475" x2="146.44561519142675" y1="172.8068346515853" y2="177.08958963109032" /><path d="M 144.38136562736335 173.6633856474863 a86.0,86.0 0 0,1 -40.68145358897372,12.25698825130547" fill="none" id="id42" stroke="none" /><text fill="#e1ed5e" style="font-size:6.75px; font-family:Arial;" text-anchor="middle"><textPath startOffset="21.466115282336833" xlink:href="#id42">June</textPath></text><path d="M 106.57524785965236 119.94407469862006 l 4.652009496314201 14.110498474514634 a35.85756909972413,35.85756909972413 0 0,0 -0.5878569360934135,0.1882132270269266 l -4.408431215129847 -14.188484548201266" fill="#ff5d08" stroke="none" /><path d="M 105.18746579009965 120.34920634021253 l 3.661677052223468 14.363896534821308 a35.823272327587844,35.823272327587844 0 0,0 -0.5988400990642445,0.14718032664276717 l -3.413883668416012 -14.424798119778105" fill="#ff5c08" stroke="none" /><path d="M 104.83641907484287 120.43548508189849 l 2.1923663891782676 9.263479848789526 a30.51937651809866,30.51937651809866 0 0,0 -0.5122602512248766,0.11658876540259006 l -2.032585988560529 -9.2998453477698" fill="#ff0600" stroke="none" /><path d="M 103.7750983002368 120.6578951692458 l 2.693758432953654 14.740643790848493 a35.98475604952544,35.98475604952544 0 0,0 -0.6102860894459932,0.10610605934102083 l -2.439623372035611 -14.78482842871052" fill="#ff5f08" stroke="none" /><line stroke="#e1ed5e" stroke-width="0.3" x1="102.19456741930631" x2="102.32365962044197" y1="184.97166512339345" y2="189.96999836594603" /><path d="M 102.22038585953345 185.97133177190398 a86.0,86.0 0 0,1 -42.740103519485714,-10.115201625700543" fill="none" id="id43" stroke="none" /><text fill="#e1ed5e" style="font-size:6.75px; font-family:Arial;" text-anchor="middle"><textPath startOffset="22.20632615414155" xlink:href="#id43">July</textPath></text><path d="M 100.54218724476979 120.99299961872073 l 0.38642861753026253 14.962166481655157 a35.967155805336276,35.967155805336276 0 0,0 -0.6190466641885463,0.010657449723938547 l -0.12882226344904832 -14.966601408658255" fill="#ff5e08" stroke="none" /><path d="M 99.09653310690486 120.98055641714683 l -0.6385499405488129 14.82858215972212 a35.84232444377241,35.84232444377241 0 0,0 -0.6161669895236523,-0.03184879524822132 l 0.8937049984859542 -14.815393557711698" fill="#ff5c08" stroke="none" /><line stroke="#e1ed5e" stroke-width="0.3" x1="58.666819895761336" x2="56.23545636021788" y1="174.27360380694188" y2="178.64263932499728" /><path d="M 58.180547188652646 175.14741091055294 a86.0,86.0 0 0,1 -31.652253787137756,-30.449443065178592" fill="none" id="id44" stroke="none" /><text fill="#e1ed5e" style="font-size:6.75px; font-family:Arial;" text-anchor="middle"><textPath startOffset="22.20632615414155" xlink:href="#id44">August</textPath></text><line stroke="#e1ed5e" stroke-width="0.3" x1="26.63291911575756" x2="22.317208475507996" y1="142.92168965132927" y2="145.44649492493687" /><path d="M 25.769776987707644 143.4266507060508 a86.0,86.0 0 0,1 -11.730757126820373,-40.83630448921669" fill="none" id="id45" stroke="none" /><text fill="#e1ed5e" style="font-size:6.75px; font-family:Arial;" text-anchor="middle"><textPath startOffset="21.46611528233685" xlink:href="#id45">September</textPath></text><path d="M 81.51974371655577 109.97397251340807 l -17.043127576496705 9.198340292649013 a40.3669218444262,40.3669218444262 0 0,0 -0.3247566760141839,-0.6143172432700225 l 17.198936760735776 -8.903608034292864" fill="#ffa20f" stroke="none" /><path d="M 81.18737489456691 109.33194174019688 l -11.114259577967577 5.513192459093067 a33.40653283788201,33.40653283788201 0 0,0 -0.2511005912501489,-0.5173415915136956 l 11.207513425832445 -5.321061911614087" fill="#ff3505" stroke="none" /><path d="M 80.87730276802145 108.67885076344099 l -13.478991415857733 6.117450562586137 a35.80224344396659,35.80224344396659 0 0,0 -0.24986371253973283,-0.5633767096834397 l 13.582296213128746 -5.884525516410001" fill="#ff5c08" stroke="none" /><path d="M 80.32549172779594 107.34259656027581 l -13.760310559788756 5.135396909887453 a35.6873567439453,35.6873567439453 0 0,0 -0.2098344165108969,-0.5773741939420961 l 13.846669237304877 -4.897774918939239" fill="#ff5a08" stroke="none" /><path d="M 79.86692584326677 105.97154293290107 l -8.810305385862668 2.6131685829038407 a30.189675240988464,30.189675240988464 0 0,0 -0.14348342281275853,-0.4994846180678775 l 8.85398144556153 -2.461126489331367" fill="#ff0000" stroke="none" /><path d="M 79.67330655649465 105.27499134158121 l -30.20442674303542 7.838367316836931 a52.20492584623541,52.20492584623541 0 0,0 -0.21823818225547315,-0.8717530543142054 l 30.334876239585952 -7.317286423125333" fill="#b5ff20" stroke="none" /><path d="M 79.10278846688536 102.07522291339032 l -14.814928260540622 1.471214402830199 a35.88779940703327,35.88779940703327 0 0,0 -0.05575494973246651,-0.615251224312748 l 14.838057806550163 -1.2159817899688847" fill="#ff5d08" stroke="none" /><path d="M 79.0095281055655 100.63252640178507 l -31.25623104394044 0.9418745540841615 a52.270419036971944,52.270419036971944 0 0,0 -0.01935981155704575,-0.8995743701371042 l 31.267812918182493 -0.40371036815692846" fill="#b4ff20" stroke="none" /><line stroke="#e1ed5e" stroke-width="0.3" x1="15.007084014347285" x2="10.007500721073583" y1="101.09737516637583" y2="101.16192664675087" /><path d="M 14.007167355692545 101.11028546245083 a86.0,86.0 0 0,1 10.666146001902534,-42.60595125391555" fill="none" id="id46" stroke="none" /><text fill="#e1ed5e" style="font-size:6.75px; font-family:Arial;" text-anchor="middle"><textPath startOffset="22.20632615414155" xlink:href="#id46">October</textPath></text><path d="M 79.01574976396665 99.18683210126434 l -23.969201937720946 -0.9288387888454517 a44.98719206215912,44.98719206215912 0 0,0 0.036646120566196504,-0.7735416856125327 l 23.94966220892125 1.3412915810809933" fill="#ffe615" stroke="none" /><path d="M 79.08570108090925 98.10471618934814 l -14.765419562384434 -1.338063530713179 a35.82592421623251,35.82592421623251 0 0,0 0.06094309467116543,-0.6136886464622637 l 14.740199342031039 1.592027707879873" fill="#ff5c08" stroke="none" /><path d="M 79.21141760316559 97.0276538004421 l -15.086120577862717 -2.1570096656764206 a36.239544769698156,36.239544769698156 0 0,0 0.0936086537237469,-0.6167640698665067 l 15.046756030699667 2.4163728479350195" fill="#ff6309" stroke="none" /><path d="M 79.26566170972629 96.67025291283419 l -15.487149246905567 -2.487096012973619 a36.68558058771421,36.68558058771421 0 0,0 0.10549399622580495,-0.622631537397444 l 15.442043389159538 2.753313338686891" fill="#ff6a09" stroke="none" /><path d="M 79.46518482838121 95.60439243477599 l -37.67987324448876 -8.065616101530264 a59.53345313903238,59.53345313903238 0 0,0 0.2231246153901435,-1.0002239004535778 l 37.535454242096584 8.7130181715338" fill="#5aff2a" stroke="none" /><path d="M 79.71946130924805 94.55025226153421 l -16.636338819704083 -4.470485288459137 a38.2265204855282,38.2265204855282 0 0,0 0.1762301380102453,-0.6339935711777955 l 16.55692191112748 4.756190163055875" fill="#ff820c" stroke="none" /><path d="M 80.02781315780177 93.51064311812611 l -14.917789090288442 -4.847083499683081 a36.68549169759204,36.68549169759204 0 0,0 0.20030751225519425,-0.5988939660216377 l 14.832144284261476 5.103150568627041" fill="#ff6a09" stroke="none" /><path d="M 80.2630227832202 92.82701384747504 l -18.11939520008388 -6.58511024433022 a40.278904516253135,40.278904516253135 0 0,0 0.24243184338264123,-0.6495968107361574 l 18.00335876819961 6.8960301920957185" fill="#ffa10e" stroke="none" /><path d="M 80.65960295795068 91.81776055985345 l -16.386216716660925 -6.932430001429008 a38.79232092814456,38.79232092814456 0 0,0 0.26546747162564643,-0.6127355254922247 l 16.2644585351926 7.2134646715078325" fill="#ff8b0c" stroke="none" /><path d="M 81.26839172434947 90.50648371742162 l -55.95362972448183 -28.358306827782624 a83.72959624836652,83.72959624836652 0 0,0 0.6626223362757534,-1.2799754452311585 l 55.457197955045956 29.31725499527412" fill="#4dd5ff" stroke="none" /><line stroke="#e1ed5e" stroke-width="0.3" x1="26.266209847984243" x2="21.928928074336255" y1="57.711370442889674" y2="55.22380399835377" /><path d="M 25.398753493254645 57.213857153982495 a86.0,86.0 0 0,1 29.58750427330803,-30.492523968695096" fill="none" id="id47" stroke="none" /><text fill="#e1ed5e" style="font-size:6.75px; font-family:Arial;" text-anchor="middle"><textPath startOffset="21.46611528233685" xlink:href="#id47">November</textPath></text><path d="M 81.96595687620814 89.24020034530311 l -12.76970461302307 -7.618894018530945 a35.86986556662397,35.86986556662397 0 0,0 0.3209229075031362,-0.5275128789382555 l 12.636665907233716 7.837574670676275" fill="#ff5d08" stroke="none" /><path d="M 82.15384107792192 88.93136811851018 l -12.718387970559135 -7.888260728079127 a35.96602986378882,35.96602986378882 0 0,0 0.33084021153702753,-0.523309763202926 l 12.580720162776146 8.106018138996268" fill="#ff5e08" stroke="none" /><path d="M 82.95767976084542 87.72973835380427 l -12.239308963631427 -8.812152409115644 a36.081601837626906,36.081601837626906 0 0,0 0.36723749109988857,-0.500911525150459 l 12.085808860017906 9.021526377937604" fill="#ff6008" stroke="none" /><path d="M 83.39014120810768 87.1503855733568 l -12.721875343860468 -9.841817140084313 a37.08438612081861,37.08438612081861 0 0,0 0.39494150617136464,-0.5015356058997389 l 12.550579757095132 10.059345139937099" fill="#ff700a" stroke="none" /><path d="M 83.6137871275137 86.86637796730984 l -14.0201804526772 -11.237236592034709 a38.96777521428281,38.96777521428281 0 0,0 0.42400930461389513,-0.5197852720321153 l 13.824672655986912 11.476906033674906" fill="#ff8d0d" stroke="none" /><path d="M 84.07557802195018 86.31012108654704 l -33.73005638247477 -28.996995197471552 a65.48080972787159,65.48080972787159 0 0,0 0.7421412140354539,-0.8483956997232787 l 33.225923304861475 29.573306453397777" fill="#32ff4e" stroke="none" /><path d="M 84.5562425177563 85.77008943001954 l -13.214134613919025 -12.175531377771467 a38.96821966489364,38.96821966489364 0 0,0 0.4587722526569141,-0.48938625216412535 l 13.002595039291656 12.401187046813641" fill="#ff8d0d" stroke="none" /><path d="M 85.31137513191541 84.99185889309783 l -12.561347423757036 -12.83458978098004 a38.958678791781004,38.958678791781004 0 0,0 0.4833042205704808,-0.4649382772673654 l 12.338559959574129 13.04891114500972" fill="#ff8d0d" stroke="none" /><path d="M 85.83668400450813 84.49514656593479 l -23.06837010459643 -25.25338681622191 a55.20355602817299,55.20355602817299 0 0,0 0.7071023817718435,-0.634843500012592 l 22.630256735228613 25.64672932500378" fill="#8fff24" stroke="none" /><path d="M 87.22198572758235 83.33499621200491 l -9.212025913820701 -12.014264773542516 a36.139484122178295,36.139484122178295 0 0,0 0.49692452578412283,-0.3742732504947791 l 9.003855234278188 12.171054613543149" fill="#ff6109" stroke="none" /><path d="M 87.80319425747018 82.90503203632743 l -18.155534965730755 -25.44668621885657 a52.25951518198606,52.25951518198606 0 0,0 0.7367816717067152,-0.5161626456453223 l 17.71482215444038 25.755433707265837" fill="#b4ff20" stroke="none" /><path d="M 88.39885842347998 82.49532879139004 l -12.3841919860868 -18.68619630843082 a43.41745176476287,43.41745176476287 0 0,0 0.6265199781496831,-0.40750602157553606 l 12.06070498215283 18.89660125416589" fill="#ffd013" stroke="none" /><path d="M 89.00827224532344 82.1063720568725 l -17.955079374794316 -29.229391156017204 a55.3036759357743,55.3036759357743 0 0,0 0.815434092729613,-0.4912899169152602 l 17.449283215847053 29.534127682391084" fill="#8dff24" stroke="none" /><line stroke="#e1ed5e" stroke-width="0.3" x1="56.762969772571076" x2="54.21961505331055" y1="26.818313649435495" y2="22.513508569990535" /><path d="M 56.25429882871897 25.957352633546506 a86.0,86.0 0 0,1 42.265352541879196,-11.944610805530505" fill="none" id="id48" stroke="none" /><text fill="#e1ed5e" style="font-size:6.75px; font-family:Arial;" text-anchor="middle"><textPath startOffset="22.20632615414155" xlink:href="#id48">December</textPath></text><path d="M 89.94658935756843 81.56283822128135 l -11.529851018000853 -21.144836917950705 a45.08405266528095,45.08405266528095 0 0,0 0.6845368340430281,-0.36565586973394515 l 11.164169137429521 21.3401715141864" fill="#ffe815" stroke="none" /><path d="M 90.58718382345135 81.22770947309562 l -6.662978445585641 -13.288198219217517 a35.86510994508801,35.86510994508801 0 0,0 0.5542504137624372,-0.271968270950108 l 6.433256764812778 13.400921650302454" fill="#ff5d08" stroke="none" /><path d="M 92.23578459929587 80.48803036053334 l -23.29264620211241 -58.53590891839998 a84.0,84.0 0 0,0 1.3480673400012946,-0.5230291844377941 l 22.28159569711144 58.92818080672833" fill="#4dd2ff" stroke="none" /><path d="M 97.11714578562143 79.19881850522333 l -3.257393864650733 -23.503665443997427 a44.7283143963667,44.7283143963667 0 0,0 0.763544853798448,-0.09913003590707575 l 2.8523342823444273 23.556253803068643" fill="#ffe315" stroke="none" /><path d="M 98.91598698831166 79.02799685794201 l -0.7663455057194993 -14.826206125348733 a35.845998568822,35.845998568822 0 0,0 0.6164814764423444,-0.02654698917884411 l 0.5110231968878308 14.83720084105177" fill="#ff5d08" stroke="none" /></svg>