<?xml version="1.0" encoding="utf-8" ?>
<svg baseProfile="full" height="200mm" version="1.1" viewBox="0,0,200,200" width="200mm" xmlns="http://www.w3.org/2000/svg" xmlns:ev="http://www.w3.org/2001/xml-events" xmlns:xlink="http://www.w3.org/1999/xlink"><defs /><rect fill="#1a1a1a" height="200" width="200" x="0" y="0" /><text alignment-baseline="middle" fill="#e1ed5e" style="dominant-baseline: central; font-size:9.0px; font-family:Arial;" text-anchor="middle" x="100.0" y="100.0">2021</text><line stroke="#e1ed5e" stroke-width="0.3" x1="100.0" x2="100.0" y1="15.0" y2="10.0" /><path d="M 100.0 14.0 a86.0,86.0 0 0,1 42.46469731375804,11.215312516191453" fill="none" id="id13" stroke="none" /><text fill="#e1ed5e" style="font-size:6.75px; font-family:Arial;" text-anchor="middle"><textPath startOffset="22.20632615414155" xlink:href="#id13">January</textPath></text><path d="M 100.72285384407766 79.0124445844662 l 0.9134257715679699 -26.52067794316091 a47.53640339618438,47.53640339618438 0 0,0 0.8175337086557574,0.03520472122255506 l -1.369800312613059 26.501025495414158" fill="#beff1f" stroke="none" /><path d="M 101.08401301168833 79.027996857942 l 1.0582781573140632 -20.474120329787212 a41.501452532365946,41.501452532365946 0 0,0 0.713109481045668,0.04301671131419555 l -1.4105496871993433 20.452870349092713" fill="#fff717" stroke="none" /><path d="M 101.44485096284872 79.0497635885617 l 0.19717495158657533 -2.8590228032987617 a23.86581390730722,23.86581390730722 0 0,0 0.4095939748117238,0.031792375557896026 l -0.24635911576064032 2.8552051655524013" fill="#ff0400" stroke="none" /><path d="M 101.80526077348638 79.07773832637324 l 1.8348630386169562 -21.265340272735735 a42.34435333491551,42.34435333491551 0 0,0 0.7256508940404054,0.06890929609893501 l -2.2006390597476058 21.23060543212162" fill="#fdff18" stroke="none" /><path d="M 102.88285421437855 79.19881850522331 l 2.804232567770032 -20.233888451526234 a41.42728474768364,41.42728474768364 0 0,0 0.7055086705898332,0.10397363868748045 l -3.1521102187885215 20.182620328677785" fill="#fff617" stroke="none" /><path d="M 103.2404852339499 79.25152402106235 l 3.1768265954803145 -20.34087661162679 a41.58745949715935,41.58745949715935 0 0,0 0.7063348663580572,0.11655130505975358 l -3.5264906679772468 20.28317904362741" fill="#fff817" stroke="none" /><path d="M 103.95276090670814 79.375362276772 l 1.0258029769730317 -5.352414495795306 a26.449826848842672,26.449826848842672 0 0,0 0.4464146237622923,0.08954657387597872 l -1.1177840102024492 5.333963965842119" fill="#ff2a04" stroke="none" /><path d="M 104.66035177308747 79.52364482259891 l 1.262590636373514 -5.547489883347841 a26.689356652636985,26.689356652636985 0 0,0 0.44708016574318493,0.1058094306505872 l -1.3578944890792224 5.524934540556385" fill="#ff2e04" stroke="none" /><path d="M 106.0581310904928 79.89281104454417 l 6.066364423587145 -20.134515730295877 a42.02854015411664,42.02854015411664 0 0,0 0.6908984202293328,0.21466550228643422 l -6.412048216527196 20.02711009312692" fill="#fffd18" stroke="none" /><path d="M 107.08798089147638 80.2323363322302 l 7.041161843687651 -19.637090066612682 a41.861286307254915,41.861286307254915 0 0,0 0.6761946753007287,0.24904820555487017 l -7.378138844760956 19.51297859325149" fill="#fffb17" stroke="none" /><path d="M 107.4271985657038 80.35727306442388 l 7.377541696082521 -19.511399312944565 a41.859597901843884,41.859597901843884 0 0,0 0.671780438060286,0.26064037323209743 l -7.712305299142474 19.38151623582192" fill="#fffb17" stroke="none" /><path d="M 107.76421540070413 80.48803036053334 l 7.649677739637404 -19.22412917523805 a41.69020812042602,41.69020812042602 0 0,0 0.6644945303868468,0.271064003408815 l -7.979456139612639 19.089604285645656" fill="#fff917" stroke="none" /><path d="M 108.09893153111575 80.62456947434976 l 7.9306978785192115 -18.97295775063821 a41.56378113693714,41.56378113693714 0 0,0 0.6577295028310823,0.2816054476102222 l -8.256111139140609 18.833632775065198" fill="#fff817" stroke="none" /><path d="M 108.76106565485865 80.91482961587045 l 17.942992761562003 -39.08714847556283 a64.00879171974213,64.00879171974213 0 0,0 0.9973843485278812,0.4682853250978581 l -18.61315532138948 38.77249816782496" fill="#34ff57" stroke="none" /><path d="M 109.08828744355905 81.06846463323043 l 9.059781314499936 -18.872155115671227 a41.934131846735795,41.934131846735795 0 0,0 0.6480395560589842,0.3179901957532516 l -9.383292137569352 18.713409759783143" fill="#fffc17" stroke="none" /><path d="M 109.73455568895987 81.39251694778311 l 9.677911793302371 -18.49920894478601 a41.877804201155634,41.877804201155634 0 0,0 0.635854538574094,0.33965147346909613 l -9.994911378404776 18.329878744815158" fill="#fffc17" stroke="none" /><path d="M 110.05341064243156 81.56283822128135 l 9.963378064451268 -18.272049135396227 a41.81193604789143,41.81193604789143 0 0,0 0.6289230184185485,0.34999497882941794 l -10.276425171941852 18.097838759006628" fill="#fffb17" stroke="none" /><path d="M 110.36928655335952 81.73862282372117 l 14.355827164294686 -25.282084083183037 a50.073588515355965,50.073588515355965 0 0,0 0.7458658145138074,0.4320536220735173 l -14.788889711273823 25.03122630371947" fill="#a1ff22" stroke="none" /><line stroke="#e1ed5e" stroke-width="0.3" x1="143.23703022742887" x2="145.7803849466894" y1="26.81831364943548" y2="22.513508569990506" /><path d="M 143.74570117128098 25.957352633546492 a86.0,86.0 0 0,1 28.547481713284135,27.462654790039103" fill="none" id="id14" stroke="none" /><text fill="#e1ed5e" style="font-size:6.75px; font-family:Arial;" text-anchor="middle"><textPath startOffset="19.985693538727396" xlink:href="#id14">February</textPath></text><path d="M 110.68208982089419 81.91981866633111 l 10.623160789591374 -17.9804398421034 a41.884150978122406,41.884150978122406 0 0,0 0.617567712718778,0.37207763690076284 l -10.93109056852779 17.794915595744023" fill="#fffc17" stroke="none" /><path d="M 111.2981086023043 82.29822771554956 l 11.145272471948179 -17.462310045979063 a41.71592070403503,41.71592070403503 0 0,0 0.6019666439567076,0.3915358500210059 l -11.444206141689167 17.267875271798527" fill="#fff917" stroke="none" /><path d="M 111.60114157652 82.49532879139004 l 11.293957179019033 -17.041168384926422 a41.44394503722145,41.44394503722145 0 0,0 0.5912576846868972,0.3992198280180261 l -11.585619558112471 16.844236644609726" fill="#fff617" stroke="none" /><path d="M 112.19680574252982 82.90503203632743 l 13.073462047019849 -18.323684051865367 a43.50939375299685,43.50939375299685 0 0,0 0.6059298088414826,0.44023377510949324 l -13.38693717221512 18.0959310419392" fill="#eeff19" stroke="none" /><path d="M 113.89432698308785 84.25364557470407 l 13.841324944350998 -15.686287544170318 a41.919892283028275,41.919892283028275 0 0,0 0.5369519250140121,0.4820807399350289 l -14.109287856961 15.44570779546599" fill="#fffc17" stroke="none" /><path d="M 114.42810811169701 84.74124197986012 l 18.36406821990607 -19.42131782376348 a47.72875955963907,47.72875955963907 0 0,0 0.5921019822323789,0.5696016377857628 l -18.695653445750867 19.102333099215418" fill="#bcff1f" stroke="none" /><path d="M 114.94478906791727 85.2469230424477 l 14.738061999775766 -14.549001789168155 a41.70951290036665,41.70951290036665 0 0,0 0.4999892828837366,0.5152829063104526 l -14.986315546362611 14.293154687307588" fill="#fff917" stroke="none" /><path d="M 115.4437574822437 85.77008943001954 l 25.002420621638525 -23.03728285606716 a54.99760930318162,54.99760930318162 0 0,0 0.6355009356348429,0.7017360056964683 l -25.3952651978894 22.603494063101145" fill="#6aff28" stroke="none" /><path d="M 115.9244219780498 86.31012108654704 l 25.76350843203935 -22.148327349432407 a54.975090450289876,54.975090450289876 0 0,0 0.610719291649446,0.7228990105322819 l -26.140938337175914 21.701569389271018" fill="#6bff28" stroke="none" /><path d="M 117.45458315368197 88.32363383020206 l 11.26217821484225 -7.533913330853722 a34.54977889929141,34.54977889929141 0 0,0 0.326418684821866,0.49715805128243745 l -11.39019353502204 7.33893721559361" fill="#ff9c0e" stroke="none" /><line stroke="#e1ed5e" stroke-width="0.3" x1="172.23445277983987" x2="176.4835382374775" y1="55.19839476539836" y2="52.563006222186495" /><path d="M 173.08426987136738 54.67131705675599 a86.0,86.0 0 0,1 12.851231095245387,41.99856678651699" fill="none" id="id15" stroke="none" /><text fill="#e1ed5e" style="font-size:6.75px; font-family:Arial;" text-anchor="middle"><textPath startOffset="22.20632615414155" xlink:href="#id15">March</textPath></text><path d="M 117.84615892207809 88.93136811851018 l 17.33701695501018 -10.752849363049933 a41.40088052812314,41.40088052812314 0 0,0 0.37040816134637294,0.6088536249851357 l -17.51954091464278 10.452827964857716" fill="#fff617" stroke="none" /><path d="M 118.03404312379186 89.2402003453031 l 17.530808533986157 -10.459550657372528 a41.41400126896792,41.41400126896792 0 0,0 0.3599869177677944,0.6153343339390427 l -17.708255126224277 10.15623691107959" fill="#fff617" stroke="none" /><path d="M 118.3937258080291 89.86733742301442 l 17.88840102717646 -9.854291269855745 a41.423073905273,41.423073905273 0 0,0 0.33866696642906335,0.6274984541948732 l -18.055376092823987 9.544911832328413" fill="#fff617" stroke="none" /><path d="M 118.56541770881063 90.18545643968196 l 18.193960088197667 -9.618173779928568 a41.57983115945889,41.57983115945889 0 0,0 0.32905598616653,0.6356314288569322 l -18.356825507524313 9.30356962881129" fill="#fff817" stroke="none" /><path d="M 118.89224826269711 90.83032412892265 l 18.62339559449611 -9.039183629487164 a41.70115224224695,41.70115224224695 0 0,0 0.30787723631037456,0.6484679781540108 l -18.77623102464824 8.717273235692613" fill="#fff917" stroke="none" /><path d="M 119.196687751892 91.48605970444005 l 24.438211840488545 -10.83861337066645 a47.73390614480765,47.73390614480765 0 0,0 0.32665741754792416,0.7539703571645483 l -24.62115996787915 10.416343868915298" fill="#bcff1f" stroke="none" /><path d="M 119.34039704204932 91.81776055985345 l 19.23673842654791 -8.138385138178359 a41.88744642000901,41.88744642000901 0 0,0 0.2752171046513159,0.6664600489380839 l -19.373977218085425 7.806050518786972" fill="#fffc17" stroke="none" /><path d="M 119.61058180528143 92.48833698450437 l 30.725052646183933 -11.768964526556738 a53.90193590258976,53.90193590258976 0 0,0 0.32442654137937393,0.8693018361683359 l -30.92308377606493 11.238339553359069" fill="#76ff27" stroke="none" /><path d="M 119.85752413597 93.16781622104841 l 48.771391911386914 -16.780294986034082 a72.57738815403914,72.57738815403914 0 0,0 0.396281892224705,1.1848324180405734 l -49.05301109738338 15.938289465071195" fill="#3effb9" stroke="none" /><path d="M 120.08093135843002 93.85539295169968 l 19.496575254124156 -5.965798676659338 a41.38889895237496,41.38889895237496 0 0,0 0.20259689225446614,0.6830560043719284 l -19.596378043490322 5.62931328554088" fill="#fff517" stroke="none" /><path d="M 120.18372546131832 94.20196356495316 l 20.142237121361884 -5.786118372290889 a41.95683377973235,41.95683377973235 0 0,0 0.19342745595362834,0.6958614738005081 l -20.238851347881877 5.438545595071429" fill="#fffd17" stroke="none" /><path d="M 120.45610955862082 95.25157060432595 l 6.008141886917705 -1.394656079029334 a27.16788736214504,27.16788736214504 0 0,0 0.10182215374748674,0.45644874993201984 l -6.031258427667229 1.2910291595473502" fill="#ff3505" stroke="none" /><path d="M 120.53481517161879 95.60439243477599 l 42.042390218992715 -8.99944055800997 a63.994796262841035,63.994796262841035 0 0,0 0.22130224582780195,1.0791483445492727 l -42.19107176073552 8.274416557297286" fill="#34ff57" stroke="none" /><path d="M 120.6074358757038 95.95851677861258 l 21.960138520369718 -4.306772172177724 a43.37847113582316,43.37847113582316 0 0,0 0.13739464788077818,0.7339677028912102 l -22.031018892160358 3.928126391823951" fill="#f0ff19" stroke="none" /><path d="M 120.67395015179393 96.31383870115 l 20.085454460801554 -3.581232631384483 a41.402223115558414,41.402223115558414 0 0,0 0.11905729442252214,0.7026828911287403 l -20.1441236167443 3.2349639519399047" fill="#fff617" stroke="none" /><path d="M 120.73433829027371 96.67025291283417 l 6.042359375187544 -0.9703482333254762 a27.119777979047498,27.119777979047498 0 0,0 0.0700518155522848,0.46155393911624953 l -6.058167084179129 0.8661951818171444" fill="#ff3405" stroke="none" /><path d="M 120.91429891909075 98.10471618934814 l 20.55893199135919 -1.8630799491896026 a41.64317687572348,41.64317687572348 0 0,0 0.058549347269134085,0.7144503367418304 l -20.58795582244782 1.5089156952400034" fill="#fff917" stroke="none" /><path d="M 120.96714384426684 98.82574320788733 l 23.948975603539125 -1.3412531280118067 a44.98650438084536,44.98650438084536 0 0,0 0.03664556038782228,0.7735298611323345 l -23.968514772160443 0.9288121602564725" fill="#dcff1b" stroke="none" /><path d="M 120.98425023603335 99.18683210126433 l 20.57746676388187 -0.7974044924872137 a41.59291121583594,41.59291121583594 0 0,0 0.02156553932367853,0.7156552608468144 l -20.58814399766119 0.44307908421540015" fill="#fff817" stroke="none" /><line stroke="#e1ed5e" stroke-width="0.3" x1="184.98032266829074" x2="189.97916517819016" y1="98.17113171792111" y2="98.06355123074" /><path d="M 185.9800911702706 98.14961562048488 a86.0,86.0 0 0,1 -9.607161424134198,41.387399972396054" fill="none" id="id16" stroke="none" /><text fill="#e1ed5e" style="font-size:6.75px; font-family:Arial;" text-anchor="middle"><textPath startOffset="21.466115282336823" xlink:href="#id16">April</textPath></text><path d="M 120.99513854157772 99.54816195383933 l 20.72979485706448 -0.4461275636251937 a41.734594874725744,41.734594874725744 0 0,0 0.009275002725017623,0.7183591824642381 l -20.734402866907214 0.08923212310049279" fill="#fffa17" stroke="none" /><path d="M 120.99824983174949 100.27111621757518 l 43.07641953453624 0.5561756824717358 a64.08000988051359,64.08000988051359 0 0,0 -0.02373382380927322,1.1028175321470322 l -43.06046364804196 -1.297583030408883" fill="#34ff58" stroke="none" /><path d="M 120.92983693683757 101.71520430193887 l 20.67628693540191 1.6944258288656462 a41.74560002324827,41.74560002324827 0 0,0 -0.0648555740197242,0.7156758549798383 l -20.64405676510511 -2.050083072394055" fill="#fffa17" stroke="none" /><path d="M 120.89721153311464 102.0752229133903 l 26.607829260096597 2.6423227265814746 a47.73870691200047,47.73870691200047 0 0,0 -0.08824317769712783,0.8170222310779476 l -26.558403780898416 -3.0999412795442134" fill="#bcff1f" stroke="none" /><path d="M 120.76222939487914 103.15116336523771 l 42.65529119608558 6.473957511701678 a64.1437827836894,64.1437827836894 0 0,0 -0.17507662370436514,1.0902023029307695 l -42.537532818019926 -7.207239044325652" fill="#34ff59" stroke="none" /><path d="M 120.41448212921028 104.9243191809786 l 14.813771077936167 3.5733327252680613 a36.23865218170458,36.23865218170458 0 0,0 -0.15149255460715574,0.605137450375458 l -14.75006720903395 -3.827798015040915" fill="#ffb310" stroke="none" /><path d="M 120.23288151984713 105.62410040840565 l 41.64280918513729 11.575382375246523 a64.22167319716952,64.22167319716952 0 0,0 -0.3052283741224836,1.0625400125211573 l -41.43738817412871 -12.290479863272262" fill="#34ff5a" stroke="none" /><path d="M 119.26925614724726 108.34839909993367 l 18.819767408338038 8.153658246697558 a41.51013866622753,41.51013866622753 0 0,0 -0.28969909026555973,0.6531949702225759 l -18.676627233341208 -8.476401553412822" fill="#fff717" stroke="none" /><path d="M 119.12269723197855 108.67885076344098 l 18.70982176170623 8.49146691549789 a41.54659194931878,41.54659194931878 0 0,0 -0.30116408945163,0.6486806558636438 l -18.56088305541477 -8.812267638640364" fill="#fff717" stroke="none" /><line stroke="#e1ed5e" stroke-width="0.3" x1="174.80103733775053" x2="179.2010983576182" y1="140.37084112569926" y2="142.7455964860345" /><path d="M 175.68104954172406 140.8457921977663 a86.0,86.0 0 0,1 -30.038265399797805,32.042727171017184" fill="none" id="id17" stroke="none" /><text fill="#e1ed5e" style="font-size:6.75px; font-family:Arial;" text-anchor="middle"><textPath startOffset="22.206326154141568" xlink:href="#id17">May</textPath></text><path d="M 118.30583269289576 110.29060199501025 l 18.063554176635986 10.154405416324233 a41.72206405866313,41.72206405866313 0 0,0 -0.3573157113025292,0.6230100608868969 l -17.886086469181077 -10.463835323069445" fill="#fffa17" stroke="none" /><path d="M 118.12598468904814 110.60418214915192 l 28.35550253912868 16.58872160679568 a53.851487162597415,53.851487162597415 0 0,0 -0.4749678711716406,0.7960734721845755 l -28.06575379225881 -17.074357172866357" fill="#77ff27" stroke="none" /><path d="M 117.75023020441432 111.22182372390056 l 36.38520794271866 23.002991228198958 a64.04672998590573,64.04672998590573 0 0,0 -0.5971446784687419,0.9267818018276065 l -35.98385840087287 -23.625894629948018" fill="#34ff58" stroke="none" /><path d="M 117.55443506779139 111.5257021239791 l 17.230208519783638 11.31282494515836 a41.6121346268411,41.6121346268411 0 0,0 -0.3982814208202888,0.5953766845935272 l -17.032923993552625 -11.607738543957694" fill="#fff817" stroke="none" /><path d="M 117.35343817320211 111.8261652097733 l 17.029948642957457 11.605710877316406 a41.608534051446476,41.608534051446476 0 0,0 -0.40843549827040676,0.5883817978174268 l -16.827652237524916 -11.897133937320852" fill="#fff817" stroke="none" /><path d="M 116.93607887273984 112.41649034213515 l 45.27242814679882 33.19095707298137 a77.1358386570251,77.1358386570251 0 0,0 -0.7942740973146124,1.0640599517708413 l -44.694392782789116 -33.96532990426152" fill="#44ffe9" stroke="none" /><path d="M 116.71984013943494 112.70617746262583 l 18.188700288442412 13.822432018017693 a43.84487787394596,43.84487787394596 0 0,0 -0.4618184802677712,0.5969626395037188 l -17.94807499095657 -14.133472651634666" fill="#eaff1a" stroke="none" /><path d="M 116.498646956653 112.99209946851258 l 16.22700305973753 12.778189531654567 a41.654243050947606,41.654243050947606 0 0,0 -0.4484418209872774,0.5595001227637574 l -16.004643326695398 -13.055617487996575" fill="#fff917" stroke="none" /><path d="M 114.81725581225074 114.88116024355365 l 14.499965148865677 14.562501156780463 a41.5503145781166,41.5503145781166 0 0,0 -0.5111678928598645,0.5002853697434065 l -14.247147303630019 -14.809936629446442" fill="#fff717" stroke="none" /><path d="M 114.55890576462653 115.13401014063108 l 14.190058809550862 14.750593031632485 a41.467969215419416,41.467969215419416 0 0,0 -0.5186737873083722,0.49043843988555186 l -13.934049187851683 -14.99266610826396" fill="#fff617" stroke="none" /><path d="M 113.75828350139079 115.86535959552629 l 13.371390709762709 15.419214314141726 a41.409464950815384,41.409464950815384 0 0,0 -0.5425320668781931,0.4623575973754261 l -13.103993166307468 -15.647096301740099" fill="#fff617" stroke="none" /><path d="M 113.48314897796784 116.09983520530334 l 13.110105633405542 15.654395020543669 a41.41898511626555,41.41898511626555 0 0,0 -0.5505369519672645,0.45305443110419413 l -12.838698552893586 -15.87774457050504" fill="#fff617" stroke="none" /><path d="M 112.92097659922987 116.55440617244103 l 20.253742057582276 25.949174194236413 a53.9176807916035,53.9176807916035 0 0,0 -0.7365444593032965,0.5647508835267999 l -19.804068869785485 -26.293964419590584" fill="#76ff27" stroke="none" /><path d="M 112.63410532772338 116.77436683061366 l 12.474688223780444 16.562707919179317 a41.73502206163697,41.73502206163697 0 0,0 -0.5775630795725952,0.4272673586846763 l -12.187740173789285 -16.774985226603764" fill="#fffa17" stroke="none" /><path d="M 112.34349029814194 116.9893568818739 l 25.265776563544655 34.77535806872715 a63.984706514842564,63.984706514842564 0 0,0 -0.8966166934727431,0.6397122041430839 l -24.663432542223028 -35.205114534714454" fill="#33ff57" stroke="none" /><line stroke="#e1ed5e" stroke-width="0.3" x1="143.8653032363475" x2="146.44561519142675" y1="172.8068346515853" y2="177.08958963109032" /><path d="M 144.38136562736335 173.6633856474863 a86.0,86.0 0 0,1 -40.68145358897372,12.25698825130547" fill="none" id="id18" stroke="none" /><text fill="#e1ed5e" style="font-size:6.75px; font-family:Arial;" text-anchor="middle"><textPath startOffset="21.466115282336833" xlink:href="#id18">June</textPath></text><path d="M 110.5260780823613 118.17145234162733 l 20.161084478016587 34.80462361016583 a61.222271840051924,61.222271840051924 0 0,0 -0.9164426973717082,0.5203800812528541 l -19.55899301372368 -35.14650685721331" fill="#30ff35" stroke="none" /><path d="M 109.89434966115114 118.52300852407294 l 15.868194995175704 29.706521522213375 a54.679029578576724,54.679029578576724 0 0,0 -0.8340090769067124,0.43631413133433905 l -15.354495015742497 -29.97526507249243" fill="#6eff28" stroke="none" /><path d="M 109.57404056367764 118.69057910512821 l 25.59910376024972 49.97493698392508 a77.14987479839394,77.14987479839394 0 0,0 -1.1871752649459655,0.5952743231981329 l -24.735074587620993 -50.408179148032524" fill="#44ffe9" stroke="none" /><path d="M 108.92500713936063 119.00905698771935 l 9.606986669430018 20.461581064072725 a43.60465643420014,43.60465643420014 0 0,0 -0.6821678653428981,0.31314980875799414 l -9.2533508083197 -20.623917943164795" fill="#edff1a" stroke="none" /><path d="M 108.59647513512805 119.15986991738527 l 13.683695472689742 30.498293908221026 a54.427375803397155,54.427375803397155 0 0,0 -0.8580847076732203,0.3761591190588877 l -13.156690090358769 -30.729317580574367" fill="#71ff27" stroke="none" /><path d="M 108.2653958097858 119.30500536409082 l 5.491277779919514 12.825658859742639 a34.95176178275463,34.95176178275463 0 0,0 -0.5551147664473604,0.23203801739613725 l -5.269691553974693 -12.91828192015875" fill="#ffa20e" stroke="none" /><path d="M 107.2578585660854 119.70592522655815 l 19.463365784575124 52.845288636542776 a77.31560297771557,77.31560297771557 0 0,0 -1.252808921496859,0.4492127064423456 l -18.55083730244853 -53.172488884025086" fill="#44ffeb" stroke="none" /><path d="M 106.2309692047433 120.05430185196036 l 6.043165239164702 19.44985697493522 a41.36705139320085,41.36705139320085 0 0,0 -0.6818177009906338,0.205426080272592 l -5.707472563733823 -19.550998424313537" fill="#fff517" stroke="none" /><path d="M 105.88484417918355 120.15858648285463 l 5.749257360174333 19.69413261904618 a41.516159967452424,41.516159967452424 0 0,0 -0.6877227653647621,0.19435732296911037 l -5.409403426704966 -19.79017873535381" fill="#fff717" stroke="none" /><path d="M 105.53697534728816 120.25689768951611 l 5.4211066821479985 19.832994827764242 a41.56054672175215,41.56054672175215 0 0,0 -0.6917051562491269,0.18268561857572843 l -5.078911083087374 -19.923371795643558" fill="#fff817" stroke="none" /><path d="M 103.41894727170886 120.7198165907248 l 2.4596641938341945 14.906281647784738 a36.1078516179341,36.1078516179341 0 0,0 -0.6141156971462496,0.09591224196704333 l -2.202712633079428 -14.946412197098887" fill="#ffb110" stroke="none" /><path d="M 103.06178313531738 120.77559828337769 l 3.0258129261651843 20.531523970309934 a41.75328938765033,41.75328938765033 0 0,0 -0.7119361501723769,0.09866786323691683 l -2.671948184805977 -20.58056639903945" fill="#fffa17" stroke="none" /><path d="M 101.62511606390274 120.93702456842531 l 1.5872341816050721 20.44897702647955 a41.51048448420329,41.51048448420329 0 0,0 -0.7128679296720057,0.04916354614539021 l -1.235003491154136 -20.473268917141223" fill="#fff717" stroke="none" /><line stroke="#e1ed5e" stroke-width="0.3" x1="102.19456741930631" x2="102.32365962044197" y1="184.97166512339345" y2="189.96999836594603" /><path d="M 102.22038585953345 185.97133177190398 a86.0,86.0 0 0,1 -42.740103519485714,-10.115201625700543" fill="none" id="id19" stroke="none" /><text fill="#e1ed5e" style="font-size:6.75px; font-family:Arial;" text-anchor="middle"><textPath startOffset="22.20632615414155" xlink:href="#id19">July</textPath></text><path d="M 100.54218724476979 120.99299961872073 l 0.6896474065896312 26.70252368208133 a47.71142797638363,47.71142797638363 0 0,0 -0.8211825392117971,0.014137402125084981 l -0.22990517748516615 -26.710438561485578" fill="#bcff1f" stroke="none" /><path d="M 99.81925306533755 120.99922214144158 l -0.17696718794699928 20.56009026313711 a41.56085185526016,41.56085185526016 0 0,0 -0.7153222468042914,-0.012314921188896941 l 0.5308491246439586 -20.553997864669054" fill="#fff817" stroke="none" /><path d="M 99.45781275523022 120.99299961872073 l -0.534133229940733 20.681155450739336 a41.68805184363603,41.68805184363603 0 0,0 -0.7171926052113369,-0.024701563443515036 l 0.8900461868267129 -20.668897088869727" fill="#fff917" stroke="none" /><path d="M 99.09653310690486 120.98055641714683 l -0.9021130076959033 20.949116118428563 a41.96853056420639,41.96853056420639 0 0,0 -0.7214828707062703,-0.037292423344501294 l 1.2625839468156626 -20.93048388832186" fill="#fffd17" stroke="none" /><path d="M 98.37488393609728 120.93702456842531 l -1.5962528528020032 20.565168198678982 a41.62702514203238,41.62702514203238 0 0,0 -0.7139147447818414,-0.06159956817635874 l 1.9500119153253863 -20.534644378223962" fill="#fff817" stroke="none" /><path d="M 96.22490169976321 120.6578951692458 l -3.7043930295300207 20.270985490607217 a41.6066829081645,41.6066829081645 0 0,0 -0.7034152325068918,-0.13481120345230563 l 4.0527758766086075 -20.204217088806445" fill="#fff817" stroke="none" /><path d="M 95.51606077576429 120.51570834832081 l -4.391270813933758 20.091715518850318 a41.565998440428736,41.565998440428736 0 0,0 -0.6976750914580393,-0.15878857938076055 l 4.73646605478466 -20.013150205891872" fill="#fff817" stroke="none" /><path d="M 93.08242187328487 119.8279376855182 l -6.975641463197942 19.99436532775159 a42.1762654564652,42.1762654564652 0 0,0 -0.6834170543106315,-0.24504904086165744 l 7.3187780781383 -19.87132874584998" fill="#ffff18" stroke="none" /><path d="M 92.06813273071674 119.44442032107085 l -7.747780119370915 18.993143490901826 a41.51262041875941,41.51262041875941 0 0,0 -0.6593163667002225,-0.2755942947528346 l 8.0735679455686 -18.856964153129017" fill="#fff717" stroke="none" /><path d="M 90.7491055286396 118.85261126421891 l -9.104514312604106 18.554299761653358 a41.66770960976815,41.66770960976815 0 0,0 -0.641178930295527,-0.32150042630642645 l 9.422547150582393 -18.39483149443763" fill="#fff917" stroke="none" /><path d="M 90.42595943632237 118.69057910512821 l -9.3669021870947 18.286200599785435 a41.54565620656086,41.54565620656086 0 0,0 -0.6336881734984764,-0.33151570242173506 l 9.680281263119673 -18.12225547841898" fill="#fff717" stroke="none" /><line stroke="#e1ed5e" stroke-width="0.3" x1="58.666819895761336" x2="56.23545636021788" y1="174.27360380694188" y2="178.64263932499728" /><path d="M 58.180547188652646 175.14741091055294 a86.0,86.0 0 0,1 -31.652253787137756,-30.449443065178592" fill="none" id="id20" stroke="none" /><text fill="#e1ed5e" style="font-size:6.75px; font-family:Arial;" text-anchor="middle"><textPath startOffset="22.20632615414155" xlink:href="#id20">August</textPath></text><path d="M 88.8546689885994 117.79835938074946 l -10.94738204706825 17.482247925411755 a41.62702514203238,41.62702514203238 0 0,0 -0.604024385115596,-0.38551694100543005 l 11.24668823423077 -17.291216555582523" fill="#fff817" stroke="none" /><path d="M 88.54995079064634 117.60387380957326 l -11.21341400868571 17.240059110151805 a41.565998440428736,41.565998440428736 0 0,0 -0.5964231905826889,-0.3952767687556567 l 11.508511898008361 -17.044484320304832" fill="#fff817" stroke="none" /><path d="M 87.65650970185807 116.9893568818739 l -12.124261177152686 16.687613883303513 a41.62702514203238,41.62702514203238 0 0,0 -0.5760685306209004,-0.42616172709983624 l 12.409714678192152 -16.476442207463908" fill="#fff817" stroke="none" /><path d="M 87.36589467227662 116.77436683061367 l -12.385237923402821 16.443944293839724 a41.58634067429662,41.58634067429662 0 0,0 -0.5680917345970715,-0.4355885174147444 l 12.66645838649338 -16.228316434597613" fill="#fff817" stroke="none" /><path d="M 85.97065885151581 115.62618273729859 l -13.685828958923407 15.243571452153072 a41.48580935452155,41.48580935452155 0 0,0 -0.5272657717835227,-0.4816447811734593 l 13.946194280173785 -15.005733904393036" fill="#fff717" stroke="none" /><path d="M 85.44109423537348 115.13401014063109 l -43.67671729387956 45.40203042189327 a84.0,84.0 0 0,0 -1.033400190496823,-1.0113995883097213 l 44.45176743675218 -44.64348073066098" fill="#4dd2ff" stroke="none" /><path d="M 85.18274418774928 114.88116024355367 l -25.119327407259753 25.22766300954759 a56.600780754309405,56.600780754309405 0 0,0 -0.684490423892058,-0.6933851855791591 l 25.549858456207343 -24.79153732998777" fill="#59ff2a" stroke="none" /><path d="M 84.67929136418377 114.36230785411682 l -28.258261887529436 26.490540764032463 a59.73342374326164,59.73342374326164 0 0,0 -0.6967579385059594,-0.7561931308840811 l 28.710066234031125 -26.000196378347038" fill="#39ff2e" stroke="none" /><path d="M 84.19399662182784 113.82643327865904 l -19.92349378436294 17.428242351744206 a47.47053524292018,47.47053524292018 0 0,0 -0.5327041526037367,-0.6196552773878138 l 20.220540446537456 -17.082709975194863" fill="#bfff1e" stroke="none" /><path d="M 83.72743513129214 113.27417163493432 l -19.04880076839271 15.5388565281161 a45.58277593998072,45.58277593998072 0 0,0 -0.49073567423077574,-0.612268207662245 l 19.31345435467835 -15.208660486875594" fill="#d5ff1c" stroke="none" /><path d="M 83.50135304334701 112.99209946851258 l -21.014437071422908 16.548124062781415 a47.747840575007146,47.747840575007146 0 0,0 -0.5029284203690516,-0.6501027787603174 l 21.29617230901003 -16.183943289907845" fill="#bcff1f" stroke="none" /><path d="M 83.06392112726016 112.41649034213515 l -20.093074810876995 14.731005400230082 a45.914537432132015,45.914537432132015 0 0,0 -0.4618132442568032,-0.6414182049449203 l 20.343667847509405 -14.382953589834024" fill="#d1ff1c" stroke="none" /><path d="M 82.05923443525364 110.91462005526583 l -17.587367232074204 10.699623180391075 a41.58634067429662,41.58634067429662 0 0,0 -0.3667897906003915,-0.6147607867555949 l 17.768937898372826 -10.395300299749369" fill="#fff817" stroke="none" /><line stroke="#e1ed5e" stroke-width="0.3" x1="26.63291911575756" x2="22.317208475507996" y1="142.92168965132927" y2="145.44649492493687" /><path d="M 25.769776987707644 143.4266507060508 a86.0,86.0 0 0,1 -11.730757126820373,-40.83630448921669" fill="none" id="id21" stroke="none" /><text fill="#e1ed5e" style="font-size:6.75px; font-family:Arial;" text-anchor="middle"><textPath startOffset="21.46611528233685" xlink:href="#id21">September</textPath></text><path d="M 81.69416730710424 110.29060199501025 l -23.26155702109248 13.076456510017008 a47.68508478352473,47.68508478352473 0 0,0 -0.39606684302624934,-0.7189763654839674 l 23.483200273570244 -12.674109626135218" fill="#bcff1f" stroke="none" /><path d="M 81.51974371655577 109.97397251340807 l -23.325542519945408 12.589020216277387 a47.50593072985029,47.50593072985029 0 0,0 -0.3821908495833578,-0.7229610550294638 l 23.538785877753654 -12.185644146161795" fill="#beff1e" stroke="none" /><path d="M 80.87730276802145 108.67885076344099 l -24.338350453868014 11.045978967036751 a47.72768142124407,47.72768142124407 0 0,0 -0.3330912960661227,-0.7510329390950837 l 24.524882834665416 -10.62539769144897" fill="#bcff1f" stroke="none" /><path d="M 80.73074385275274 108.34839909993369 l -24.539927389441416 10.631915740022881 a47.74407726174159,47.74407726174159 0 0,0 -0.3202241160092861,-0.75691521757128 l 24.71930248664301 -10.207925996785443" fill="#bcff1f" stroke="none" /><path d="M 80.32549172779594 107.34259656027581 l -40.634229328866994 15.164839109149083 a64.3717988831145,64.3717988831145 0 0,0 -0.37849311607217295,-1.0414504991055866 l 40.88924670594439 -14.463140813037379" fill="#34ff5c" stroke="none" /><path d="M 80.0844068197444 106.66101706037122 l -19.56627668346446 6.544183827058259 a41.63166317135426,41.63166317135426 0 0,0 -0.22145616092008094,-0.6815719806697698 l 19.67602509540079 -6.206412946410685" fill="#fff817" stroke="none" /><path d="M 79.97269907076064 106.31721596034903 l -31.378280822684612 9.897658057955075 a53.90228172056552,53.90228172056552 0 0,0 -0.2714961098508584,-0.887264995652395 l 31.5440037050416 -9.356066089750632" fill="#76ff27" stroke="none" /><path d="M 79.4281124754447 104.21870165774334 l -20.50843826643832 4.205690042251999 a41.935230327364664,41.935230327364664 0 0,0 -0.13892556116931545,-0.7083784433750575 l 20.5777937605833 -3.852047871808986" fill="#fffc17" stroke="none" /><path d="M 79.29508885075956 103.50808413554451 l -20.154964994443617 3.414905402868943 a41.442215947342675,41.442215947342675 0 0,0 -0.1131140530229629,-0.7043613161497967 l 20.21076080182787 -3.067464857025933" fill="#fff617" stroke="none" /><path d="M 79.1416061653843 102.43462659150553 l -20.311503391182566 2.370792624864587 a41.449396755898036,41.449396755898036 0 0,0 -0.07661762791589181,-0.709384078558416 l 20.349303320599507 -2.020812224421389" fill="#fff617" stroke="none" /><path d="M 79.07016306316243 101.71520430193888 l -20.61893102991162 1.6897255009971004 a41.68805184363603,41.68805184363603 0 0,0 -0.0524543710613554,-0.7156982179403111 l 20.64496195963731 -1.3345541465600288" fill="#fff917" stroke="none" /><line stroke="#e1ed5e" stroke-width="0.3" x1="15.007084014347285" x2="10.007500721073583" y1="101.09737516637583" y2="101.16192664675087" /><path d="M 14.007167355692545 101.11028546245083 a86.0,86.0 0 0,1 10.666146001902534,-42.60595125391555" fill="none" id="id22" stroke="none" /><text fill="#e1ed5e" style="font-size:6.75px; font-family:Arial;" text-anchor="middle"><textPath startOffset="22.20632615414155" xlink:href="#id22">October</textPath></text><path d="M 79.03285615573316 98.82574320788736 l -21.34174898800765 -1.1952364084907834 a42.37519216145922,42.37519216145922 0 0,0 0.04705544939426915,-0.7279269748944399 l 21.31801294760897 1.5624224476382351" fill="#fcff18" stroke="none" /><path d="M 79.12142395522702 97.74499172005258 l -20.30342849522633 -2.1928889819819917 a41.42150755326517,41.42150755326517 0 0,0 0.08266479807697709,-0.7082215073820902 l 20.262673344145764 2.542054227688944" fill="#fff617" stroke="none" /><path d="M 79.16333360222342 97.38593545837743 l -20.466592460146607 -2.5676369058544735 a41.62702514203238,41.62702514203238 0 0,0 0.09531399600709803,-0.7101999801334985 l 20.419362465081676 2.9195552280526313" fill="#fff817" stroke="none" /><path d="M 79.32604984820605 96.31383870115002 l -26.374764344822776 -4.7026153628283724 a47.79072200400064,47.79072200400064 0 0,0 0.15136977513910238,-0.8086233915196781 l 26.289908845773812 5.155916831810623" fill="#bbff1f" stroke="none" /><path d="M 79.3925641242962 95.95851677861259 l -20.24143323433154 -3.9697036199361966 a41.62702514203238,41.62702514203238 0 0,0 0.14395161308469592,-0.7019591887757983 l 20.17010232533185 4.317538464875398" fill="#fff817" stroke="none" /><path d="M 79.62865764111835 94.90015583598534 l -15.801413682452381 -3.9557897526817674 a37.28904376970654,37.28904376970654 0 0,0 0.16123723596847694,-0.6213128429945327 l 15.730980114613596 4.2271990212251636" fill="#ffc111" stroke="none" /><line stroke="#e1ed5e" stroke-width="0.3" x1="26.266209847984243" x2="21.928928074336255" y1="57.711370442889674" y2="55.22380399835377" /><path d="M 25.398753493254645 57.213857153982495 a86.0,86.0 0 0,1 29.58750427330803,-30.492523968695096" fill="none" id="id23" stroke="none" /><text fill="#e1ed5e" style="font-size:6.75px; font-family:Arial;" text-anchor="middle"><textPath startOffset="21.46611528233685" xlink:href="#id23">November</textPath></text><path d="M 82.7489923806493 88.02491185347247 l -26.822076231766594 -18.61901253744707 a53.651055132297174,53.651055132297174 0 0,0 0.5331570543007995,-0.7541128430615448 l 26.497606557661918 19.077951880840402" fill="#79ff26" stroke="none" /><path d="M 83.6137871275137 86.86637796730984 l -20.68664236593267 -16.580435276523485 a47.51128073735754,47.51128073735754 0 0,0 0.5169713948508592,-0.633745802701354 l 20.39817247900542 16.934065248832923" fill="#beff1e" stroke="none" /><path d="M 84.07557802195018 86.31012108654704 l -15.459555068828962 -13.290242951351688 a41.38696644015751,41.38696644015751 0 0,0 0.46906832164705803,-0.5362261783008435 l 15.22849488360406 13.554384685855476" fill="#fff517" stroke="none" /><path d="M 84.5562425177563 85.77008943001954 l -19.466313743658905 -17.936302355040873 a47.4697622380332,47.4697622380332 0 0,0 0.5588607830254605,-0.5961537178903243 l 19.15468563866299 18.268725489809245" fill="#bfff1e" stroke="none" /><path d="M 85.05521093208273 85.24692304244772 l -14.552485369068076 -14.365805739902292 a41.448745804414266,41.448745804414266 0 0,0 0.505604038240772,-0.503432813820132 l 14.30304553065999 14.614174404372534" fill="#fff617" stroke="none" /><path d="M 85.57189188830299 84.74124197986013 l -14.143902327284636 -14.9581900413931 a41.58634067429662,41.58634067429662 0 0,0 0.5243683405892882,-0.4873432248515119 l 13.884326102900491 15.19943785231926" fill="#fff817" stroke="none" /><path d="M 86.10567301691215 84.25364557470407 l -30.56115319612934 -34.63476499853263 a67.1903781233805,67.1903781233805 0 0,0 0.8738147112744467,-0.7577635069040461 l 29.96044468620812 35.15569349885636" fill="#38ff7d" stroke="none" /><path d="M 86.93701828274178 83.55741782278169 l -16.54999501412877 -20.831741094213328 a47.60570938697225,47.60570938697225 0 0,0 0.6460036839918298,-0.5042161220962648 l 16.188958774977515 21.113535605532814" fill="#bdff1f" stroke="none" /><path d="M 87.80319425747018 82.90503203632743 l -11.838404543113318 -16.59263504540669 a41.3829183356178,41.3829183356178 0 0,0 0.5834377843966101,-0.4087354530223376 l 11.551035619133048 16.793955341192973" fill="#fff517" stroke="none" /><line stroke="#e1ed5e" stroke-width="0.3" x1="56.762969772571076" x2="54.21961505331055" y1="26.818313649435495" y2="22.513508569990535" /><path d="M 56.25429882871897 25.957352633546506 a86.0,86.0 0 0,1 42.265352541879196,-11.944610805530505" fill="none" id="id24" stroke="none" /><text fill="#e1ed5e" style="font-size:6.75px; font-family:Arial;" text-anchor="middle"><textPath startOffset="22.20632615414155" xlink:href="#id24">December</textPath></text><path d="M 89.3179101791058 81.91981866633112 l -13.473722041635927 -22.80521338397024 a47.48809059074816,47.48809059074816 0 0,0 0.7073538050366147,-0.4097449804061135 l 13.079171504133992 23.033762521766402" fill="#bfff1e" stroke="none" /><path d="M 89.63071344664047 81.73862282372117 l -11.109214477873593 -19.56446614419194 a43.49851065787753,43.49851065787753 0 0,0 0.6542919846698285,-0.36411278108186074 l 10.77079840413172 19.752794322833985" fill="#eeff19" stroke="none" /><path d="M 90.26544431104013 81.39251694778311 l -21.480078114713123 -41.05890420177214 a67.33818479466453,67.33818479466453 0 0,0 1.0316835591663376,-0.5284683898118343 l 20.770134067958022 41.42256511689647" fill="#38ff7f" stroke="none" /><path d="M 91.23893434514133 80.91482961587045 l -12.071334341933659 -26.296284237047484 a49.93461037357059,49.93461037357059 0 0,0 0.7842536861237183,-0.3518717685174706 l 11.616898537343165 26.500176336081484" fill="#a2ff22" stroke="none" /><path d="M 91.56875222667455 80.76684994638697 l -11.45852908791778 -26.13890793707379 a49.54015411663849,49.54015411663849 0 0,0 0.7839522787871569,-0.3356474529767451 l 11.006893051340315 26.33227491801332" fill="#a7ff21" stroke="none" /><path d="M 91.90106846888425 80.62456947434976 l -6.2840494184772595 -15.033608132094564 a37.29412932817351,37.29412932817351 0 0,0 0.5944260312284156,-0.24248130328685158 l 6.024339517660463 15.139550321564993" fill="#ffc111" stroke="none" /><path d="M 92.91201910852362 80.23233633223022 l -0.8719781594322582 -2.431859121125179 a23.583463701221017,23.583463701221017 0 0,0 0.3833076460831911,-0.13372851127550275 l 0.8299885092857817 2.446508485572892" fill="#ff0000" stroke="none" /><path d="M 93.59665428221793 80.00007090966166 l -6.302023325051066 -19.68346317405083 a41.66770960976815,41.66770960976815 0 0,0 0.6849668020444619,-0.21282251964275423 l 5.962271150295876 19.789025828576108" fill="#fff917" stroke="none" /><path d="M 98.55514903715128 79.0497635885617 l -1.4107918171441485 -20.456381216106987 a41.50497173882509,41.50497173882509 0 0,0 0.7131699507241427,-0.04302035901033338 l 1.0584598175803828 20.477634844497626" fill="#fff717" stroke="none" /><path d="M 98.91598698831166 79.02799685794201 l -1.0658102329802466 -20.619840642028862 a41.64736737590027,41.64736737590027 0 0,0 0.7162537397455314,-0.03084339271321081 l 0.7107156608453912 20.635131761266265" fill="#fff917" stroke="none" /></svg>