<?xml version="1.0" encoding="utf-8" ?>
<svg baseProfile="full" height="200mm" version="1.1" viewBox="0,0,200,200" width="200mm" xmlns="http://www.w3.org/2000/svg" xmlns:ev="http://www.w3.org/2001/xml-events" xmlns:xlink="http://www.w3.org/1999/xlink"><defs /><rect fill="#1a1a1a" height="200" width="200" x="0" y="0" /><text alignment-baseline="middle" fill="#e1ed5e" style="dominant-baseline: central; font-size:9.0px; font-family:Arial;" text-anchor="middle" x="100.0" y="100.0">2025</text><line stroke="#e1ed5e" stroke-width="0.3" x1="100.0" x2="100.0" y1="15.0" y2="10.0" /><path d="M 100.0 14.0 a86.0,86.0 0 0,1 42.46469731375804,11.215312516191453" fill="none" id="id61" stroke="none" /><text fill="#e1ed5e" style="font-size:6.75px; font-family:Arial;" text-anchor="middle"><textPath startOffset="22.20632615414155" xlink:href="#id61">January</textPath></text><path d="M 101.44485096284872 79.0497635885617 l 2.1536848923589256 -31.22827807907745 a52.30245534139078,52.30245534139078 0 0,0 0.897634191689298,0.06967368928928336 l -2.690909273410565 31.186579127599703" fill="#97ff23" stroke="none" /><path d="M 103.95276090670814 79.375362276772 l 4.904386277215686 -25.590009770305954 a47.055740342590454,47.055740342590454 0 0,0 0.7941969049908084,0.15930842772458528 l -5.34414959167362 25.501797386504162" fill="#d7ff1c" stroke="none" /><path d="M 105.01212808612495 79.60689891045804 l 5.724213550300887 -23.290399523620973 a44.98352206702202,44.98352206702202 0 0,0 0.7503489493199449,0.1912806543979373 l -6.124271388305857 23.18841587305417" fill="#f1ff19" stroke="none" /><path d="M 106.40334571778207 80.00007090966166 l 9.551335272575441 -29.832221558657633 a52.32394369510297,52.32394369510297 0 0,0 0.8554146989785432,0.2820167770913392 l -10.063432793796402 29.663391057307056" fill="#97ff23" stroke="none" /><line stroke="#e1ed5e" stroke-width="0.3" x1="143.23703022742887" x2="145.7803849466894" y1="26.81831364943548" y2="22.513508569990506" /><path d="M 143.74570117128098 25.957352633546492 a86.0,86.0 0 0,1 28.547481713284135,27.462654790039103" fill="none" id="id62" stroke="none" /><text fill="#e1ed5e" style="font-size:6.75px; font-family:Arial;" text-anchor="middle"><textPath startOffset="19.985693538727396" xlink:href="#id62">February</textPath></text><line stroke="#e1ed5e" stroke-width="0.3" x1="172.23445277983987" x2="176.4835382374775" y1="55.19839476539836" y2="52.563006222186495" /><path d="M 173.08426987136738 54.67131705675599 a86.0,86.0 0 0,1 12.851231095245387,41.99856678651699" fill="none" id="id63" stroke="none" /><text fill="#e1ed5e" style="font-size:6.75px; font-family:Arial;" text-anchor="middle"><textPath startOffset="22.20632615414155" xlink:href="#id63">March</textPath></text><path d="M 119.196687751892 91.48605970444005 l 19.05096751831853 -8.449311783363752 a41.840590994415614,41.840590994415614 0 0,0 0.28632769674143776,0.6608838011357021 l -19.193585924902646 8.120128837641447" fill="#ffe415" stroke="none" /><path d="M 120.6074358757038 95.95851677861258 l 22.189420166514246 -4.351738364548979 a43.61212051355636,43.61212051355636 0 0,0 0.13813469641500845,0.7379210717529167 l -22.261040586839112 3.9691392153334992" fill="#fffb17" stroke="none" /><path d="M 120.78858239683441 97.02765380044208 l 10.153355013137016 -1.45172410556747 a31.256613520138128,31.256613520138128 0 0,0 0.07156871590243676,0.5332700625447199 l -10.176839728097288 1.2767357009580858" fill="#ff4e07" stroke="none" /><line stroke="#e1ed5e" stroke-width="0.3" x1="184.98032266829074" x2="189.97916517819016" y1="98.17113171792111" y2="98.06355123074" /><path d="M 185.9800911702706 98.14961562048488 a86.0,86.0 0 0,1 -9.607161424134198,41.387399972396054" fill="none" id="id64" stroke="none" /><text fill="#e1ed5e" style="font-size:6.75px; font-family:Arial;" text-anchor="middle"><textPath startOffset="21.466115282336823" xlink:href="#id64">April</textPath></text><path d="M 120.9904718944345 100.63252640178507 l 10.675754973280975 0.32170295711069374 a31.680600968210882,31.680600968210882 0 0,0 -0.021117183026050448,0.5449406618089465 l -10.66863565740372 -0.5054208659336464" fill="#ff5507" stroke="none" /><path d="M 120.95626037817324 101.35467743843564 l 31.250271407428663 2.020114126121785 a52.31549654916093,52.31549654916093 0 0,0 -0.06582645019108566,0.8981496134991919 l -31.21086839857324 -2.557736876117747" fill="#97ff23" stroke="none" /><path d="M 120.8583938346157 102.4346265915055 l 14.72757239278386 1.7190268656395142 a35.827556843576076,35.827556843576076 0 0,0 -0.07677076120636578,0.6119385022404704 l -14.695800122330645 -1.9722831221673798" fill="#ff910d" stroke="none" /><path d="M 120.76222939487914 103.15116336523771 l 14.664801285566169 2.2257332625832826 a35.832743687575565,35.832743687575565 0 0,0 -0.09780333355206894,0.6090214513893056 l -14.624316197652812 -2.477833943665793" fill="#ff910d" stroke="none" /><path d="M 120.64145759157962 103.86396538481128 l 30.762770545198585 5.758618547172227 a52.29712030184844,52.29712030184844 0 0,0 -0.17325305545615963,0.8834135971884298 l -30.65908755676676 -6.287295871428602" fill="#97ff23" stroke="none" /><path d="M 120.02730092923936 106.31721596034902 l 59.49735664261347 18.76726436124764 a83.38706323480291,83.38706323480291 0 0,0 -0.4435705299202716,1.3651697175117328 l -59.16549386167695 -19.78863297873717" fill="#4cd8ff" stroke="none" /><path d="M 119.26925614724726 108.34839909993367 l 18.78710999906521 8.139509434512174 a41.47454800359433,41.47454800359433 0 0,0 -0.2894507031746446,0.6526349229048393 l -18.644218211159288 -8.4616926939097" fill="#ffdf14" stroke="none" /><line stroke="#e1ed5e" stroke-width="0.3" x1="174.80103733775053" x2="179.2010983576182" y1="140.37084112569926" y2="142.7455964860345" /><path d="M 175.68104954172406 140.8457921977663 a86.0,86.0 0 0,1 -30.038265399797805,32.042727171017184" fill="none" id="id65" stroke="none" /><text fill="#e1ed5e" style="font-size:6.75px; font-family:Arial;" text-anchor="middle"><textPath startOffset="22.206326154141568" xlink:href="#id65">May</textPath></text><path d="M 118.48025628344425 109.97397251340804 l 22.879551380487765 12.34831449780963 a46.99912964522457,46.99912964522457 0 0,0 -0.39036937835114616,0.7086338121581813 l -22.66360559268511 -12.740318828365616" fill="#d8ff1c" stroke="none" /><path d="M 116.93607887273984 112.41649034213515 l 13.48208511532966 9.884234767929694 a37.7171982103624,37.7171982103624 0 0,0 -0.38837710308661455,0.5202945972636334 l -13.309946745547954 -10.114842244702642" fill="#ffab0f" stroke="none" /><path d="M 116.498646956653 112.99209946851258 l 24.59195449392429 19.365292181208947 a52.30141797259088,52.30141797259088 0 0,0 -0.5630673227492922,0.7025130606884832 l -24.254969259120145 -19.785733075475683" fill="#97ff23" stroke="none" /><path d="M 115.07121518719521 114.62390073753431 l 17.023637273480794 16.518374834876415 a44.72047497847636,44.72047497847636 0 0,0 -0.5408182796549246,0.5478460619958512 l -16.736778368770334 -16.808961390852932" fill="#f5ff19" stroke="none" /><path d="M 112.92097659922987 116.55440617244103 l 38.762929797689644 49.6632185173231 a84.0,84.0 0 0,0 -1.147485086026025,0.8798426326905142 l -37.90231598317012 -50.32310049184099" fill="#4dd2ff" stroke="none" /><path d="M 111.7513745106137 117.40417183066458 l 8.300327028284123 12.293057099022032 a35.83289188311841,35.83289188311841 0 0,0 -0.5141598543666166,0.34075711519426566 l -8.087492475177543 -12.434112235307616" fill="#ff910d" stroke="none" /><path d="M 111.45004920935366 117.60387380957326 l 8.616989309924655 13.248186942850538 a36.804017275366135,36.804017275366135 0 0,0 -0.534040658170629,0.3408500153037137 l -8.387666849707095 -13.39455138697806" fill="#ff9f0e" stroke="none" /><line stroke="#e1ed5e" stroke-width="0.3" x1="143.8653032363475" x2="146.44561519142675" y1="172.8068346515853" y2="177.08958963109032" /><path d="M 144.38136562736335 173.6633856474863 a86.0,86.0 0 0,1 -40.68145358897372,12.25698825130547" fill="none" id="id66" stroke="none" /><text fill="#e1ed5e" style="font-size:6.75px; font-family:Arial;" text-anchor="middle"><textPath startOffset="21.466115282336833" xlink:href="#id66">June</textPath></text><path d="M 110.5260780823613 118.17145234162733 l 9.66086840582288 16.67781755384456 a40.27386771548338,40.27386771548338 0 0,0 -0.6028638084387957,0.342321804210462 l -9.372355830462885 -16.84164252384965" fill="#ffcf13" stroke="none" /><path d="M 109.89434966115114 118.52300852407294 l 2.4189736140958895 4.528510756935662 a26.134086386239925,26.134086386239925 0 0,0 -0.3986183630319575,0.2085382876710091 l -2.3406643485374365 -4.569478463551388" fill="#ff0000" stroke="none" /><path d="M 109.2508944713604 118.85261126421891 l 5.231381541666428 10.661153133373057 a32.87550163015097,32.87550163015097 0 0,0 -0.5101766435430428,0.2449157922842315 l -5.047092230123152 -10.74962320215685" fill="#ff6609" stroke="none" /><path d="M 108.59647513512805 119.15986991738527 l 13.347028918630723 29.7479296856868 a53.60494596743462,53.60494596743462 0 0,0 -0.8451185402812292,0.37047513231477386 l -12.83298970369174 -29.973269371296027" fill="#88ff25" stroke="none" /><path d="M 107.93186726928326 119.44442032107085 l 5.602781284447758 13.734828201641815 a35.83363286083262,35.83363286083262 0 0,0 -0.5731315260384421,0.228060862297365 l -5.36552868236745 -13.829235908345249" fill="#ff910d" stroke="none" /><path d="M 107.59598834532513 119.57807347666477 l 3.427730971516925 8.834711925262372 a30.476363987071704,30.476363987071704 0 0,0 -0.490712677475146,0.18554554600639872 l -3.2751480732815046 -8.8924057213754" fill="#ff4306" stroke="none" /><path d="M 106.91757812671514 119.82793768551818 l 5.862857130842749 16.804778163690557 a38.79813649985651,38.79813649985651 0 0,0 -0.6324655442635143,0.21456665176248793 l -5.572721853642008 -16.903207802351165" fill="#ffba11" stroke="none" /><path d="M 106.2309692047433 120.05430185196036 l 11.433166133081393 36.79751210804938 a59.532767681139646,59.532767681139646 0 0,0 -0.981227654060827,0.2956358430353446 l -10.79806350458032 -36.98886332019045" fill="#46ff2c" stroke="none" /><path d="M 105.18746579009965 120.34920634021253 l 1.976882866221495 7.754845811599878 a29.002855704587475,29.002855704587475 0 0,0 -0.4848265346743835,0.11915856645197932 l -1.8431030468039002 -7.787725636365887" fill="#ff2c04" stroke="none" /><path d="M 104.48393922423573 120.51570834832081 l 3.1658669395840975 14.485031922610155 a35.82696406140471,35.82696406140471 0 0,0 -0.6036136093327522,0.12649310066087177 l -2.9160618688219673 -14.537381003997568" fill="#ff910d" stroke="none" /><path d="M 104.13013068566511 120.58985236759428 l 3.0618212431945664 15.26403210245825 a36.568089971160674,36.568089971160674 0 0,0 -0.6182312482389385,0.11848549012776464 l -2.7986223803839234 -15.314474790934483" fill="#ff9b0e" stroke="none" /><path d="M 103.7750983002368 120.6578951692458 l 6.0407842226579 33.05606299149161 a54.60348753510822,54.60348753510822 0 0,0 -0.9260518212781854,0.1610059793278296 l -5.470883429907664 -33.15514754934044" fill="#7dff26" stroke="none" /><path d="M 101.62511606390274 120.93702456842531 l 2.549673819317034 32.8484743842312 a53.94727767140108,53.94727767140108 0 0,0 -0.9264474896622162,0.06389324307273285 l -1.9838635688758872 -32.88749597182022" fill="#84ff25" stroke="none" /><line stroke="#e1ed5e" stroke-width="0.3" x1="102.19456741930631" x2="102.32365962044197" y1="184.97166512339345" y2="189.96999836594603" /><path d="M 102.22038585953345 185.97133177190398 a86.0,86.0 0 0,1 -42.740103519485714,-10.115201625700543" fill="none" id="id67" stroke="none" /><text fill="#e1ed5e" style="font-size:6.75px; font-family:Arial;" text-anchor="middle"><textPath startOffset="22.20632615414155" xlink:href="#id67">July</textPath></text><path d="M 99.09653310690486 120.98055641714683 l -0.5626494294383584 13.065999637204072 a34.07810846031888,34.07810846031888 0 0,0 -0.5858382742892545,-0.03028114709753299 l 0.7874757721411018 -13.054378683344337" fill="#ff780b" stroke="none" /><path d="M 96.58105272829116 120.7198165907248 l -5.153320253981431 31.23062217990694 a52.65293780021359,52.65293780021359 0 0,0 -0.8929713310744881,-0.15525451207782245 l 5.690140556527969 -31.137289089308112" fill="#93ff23" stroke="none" /><path d="M 94.81253420990036 120.34920634021253 l -3.664895270286878 14.37652084620382 a35.83630038060379,35.83630038060379 0 0,0 -0.5964347370142519,-0.15752383495643235 l 3.911820450112619 -14.311305661943805" fill="#ff910d" stroke="none" /><path d="M 94.11515582081647 120.15858648285463 l -8.771243732718728 30.0459740248787 a52.30008421270529,52.30008421270529 0 0,0 -0.8620175230904721,-0.2597188084695924 l 9.287136230249446 -29.890539847303383" fill="#97ff23" stroke="none" /><line stroke="#e1ed5e" stroke-width="0.3" x1="58.666819895761336" x2="56.23545636021788" y1="174.27360380694188" y2="178.64263932499728" /><path d="M 58.180547188652646 175.14741091055294 a86.0,86.0 0 0,1 -31.652253787137756,-30.449443065178592" fill="none" id="id68" stroke="none" /><text fill="#e1ed5e" style="font-size:6.75px; font-family:Arial;" text-anchor="middle"><textPath startOffset="22.20632615414155" xlink:href="#id68">August</textPath></text><path d="M 89.4739219176387 118.17145234162733 l -7.921634278832887 13.675330796455748 a36.804017275366135,36.804017275366135 0 0,0 -0.5454567929200194,-0.3222654877104682 l 8.155858942781288 -13.53694673645153" fill="#ff9f0e" stroke="none" /><path d="M 89.1626897886671 117.98757091392108 l -18.21892989493103 30.239449371683374 a56.30373499814168,56.30373499814168 0 0,0 -0.8258438809965176,-0.507300762966052 l 18.736752975859858 -29.921360141888943" fill="#69ff28" stroke="none" /><line stroke="#e1ed5e" stroke-width="0.3" x1="26.63291911575756" x2="22.317208475507996" y1="142.92168965132927" y2="145.44649492493687" /><path d="M 25.769776987707644 143.4266507060508 a86.0,86.0 0 0,1 -11.730757126820373,-40.83630448921669" fill="none" id="id69" stroke="none" /><text fill="#e1ed5e" style="font-size:6.75px; font-family:Arial;" text-anchor="middle"><textPath startOffset="21.46611528233685" xlink:href="#id69">September</textPath></text><line stroke="#e1ed5e" stroke-width="0.3" x1="15.007084014347285" x2="10.007500721073583" y1="101.09737516637583" y2="101.16192664675087" /><path d="M 14.007167355692545 101.11028546245083 a86.0,86.0 0 0,1 10.666146001902534,-42.60595125391555" fill="none" id="id70" stroke="none" /><text fill="#e1ed5e" style="font-size:6.75px; font-family:Arial;" text-anchor="middle"><textPath startOffset="22.20632615414155" xlink:href="#id70">October</textPath></text><line stroke="#e1ed5e" stroke-width="0.3" x1="26.266209847984243" x2="21.928928074336255" y1="57.711370442889674" y2="55.22380399835377" /><path d="M 25.398753493254645 57.213857153982495 a86.0,86.0 0 0,1 29.58750427330803,-30.492523968695096" fill="none" id="id71" stroke="none" /><text fill="#e1ed5e" style="font-size:6.75px; font-family:Arial;" text-anchor="middle"><textPath startOffset="21.46611528233685" xlink:href="#id71">November</textPath></text><line stroke="#e1ed5e" stroke-width="0.3" x1="56.762969772571076" x2="54.21961505331055" y1="26.818313649435495" y2="22.513508569990535" /><path d="M 56.25429882871897 25.957352633546506 a86.0,86.0 0 0,1 42.265352541879196,-11.944610805530505" fill="none" id="id72" stroke="none" /><text fill="#e1ed5e" style="font-size:6.75px; font-family:Arial;" text-anchor="middle"><textPath startOffset="22.20632615414155" xlink:href="#id72">December</textPath></text></svg>