<?xml version="1.0" encoding="utf-8" ?>
<svg baseProfile="full" height="200mm" version="1.1" viewBox="0,0,200,200" width="200mm" xmlns="http://www.w3.org/2000/svg" xmlns:ev="http://www.w3.org/2001/xml-events" xmlns:xlink="http://www.w3.org/1999/xlink"><defs /><rect fill="#1a1a1a" height="200" width="200" x="0" y="0" /><text alignment-baseline="middle" fill="#e1ed5e" style="dominant-baseline: central; font-size:9.0px; font-family:Arial;" text-anchor="middle" x="100.0" y="100.0">2021</text><line stroke="#e1ed5e" stroke-width="0.3" x1="100.0" x2="100.0" y1="15.0" y2="10.0" /><path d="M 100.0 14.0 a86.0,86.0 0 0,1 42.46469731375804,11.215312516191453" fill="none" id="id13" stroke="none" /><text fill="#e1ed5e" style="font-size:6.75px; font-family:Arial;" text-anchor="middle"><textPath startOffset="22.20632615414155" xlink:href="#id13">January</textPath></text><path d="M 100.72285384407766 79.0124445844662 l 0.9134817389444413 -26.522302916763493 a47.53802933331611,47.53802933331611 0 0,0 0.8175616716129518,0.03520592536631349 l -1.3698842429467246 26.502649264872986" fill="#beff1f" stroke="none" /><path d="M 101.08401301168833 79.027996857942 l 1.0583445278413166 -20.47540437609578 a41.50273829282942,41.50273829282942 0 0,0 0.7131315739585882,0.04301804401903602 l -1.4106381506395167 20.45415306269644" fill="#fff717" stroke="none" /><path d="M 101.44485096284872 79.0497635885617 l 0.1971867305617963 -2.8591935976034404 a23.865985107303622,23.865985107303622 0 0,0 0.40959691300973733,0.031792603618610915 l -0.24637383293387483 2.855375731796365" fill="#ff0400" stroke="none" /><path d="M 101.80526077348638 79.07773832637324 l 1.8349674044874886 -21.26654983208868 a42.34556738848238,42.34556738848238 0 0,0 0.7256716991534093,0.06891127179510534 l -2.200764230731142 21.231813015778393" fill="#fdff18" stroke="none" /><path d="M 102.88285421437855 79.19881850522331 l 2.80258202584133 -20.221978996635162 a41.41526146175754,41.41526146175754 0 0,0 0.7053039134467689,0.10394346280715591 l -3.1502549197167546 20.170741049667036" fill="#fff617" stroke="none" /><path d="M 103.2404852339499 79.25152402106235 l 3.177000679102112 -20.341991250202316 a41.58858764797437,41.58858764797437 0 0,0 0.7063540272364757,0.11655446676886938 l -3.5266839124774627 20.284290520493823" fill="#fff817" stroke="none" /><path d="M 103.95276090670814 79.375362276772 l 1.025875744650488 -5.35279418154431 a26.450213444759463,26.450213444759463 0 0,0 0.44642114864700055,0.08954788270646827 l -1.1178633027646139 5.334342342760634" fill="#ff2a04" stroke="none" /><path d="M 104.66035177308747 79.52364482259891 l 1.2626570325983804 -5.547781610828725 a26.68965584050736,26.68965584050736 0 0,0 0.4470851775148959,0.10581061677502752 l -1.3579658970758004 5.525225081912829" fill="#ff2e04" stroke="none" /><path d="M 106.0581310904928 79.89281104454417 l 6.065740874058517 -20.132446143486362 a42.026378672315474,42.026378672315474 0 0,0 0.6908628880800765,0.21465446227469864 l -6.411389134849312 20.02505154632914" fill="#fffd18" stroke="none" /><path d="M 107.08798089147638 80.2323363322302 l 7.040854637268678 -19.636233298901285 a41.86037612776978,41.86037612776978 0 0,0 0.6761799729689156,0.24904279056198533 l -7.377816936010171 19.512127240532973" fill="#fffb17" stroke="none" /><path d="M 107.4271985657038 80.35727306442388 l 7.377816936010171 -19.512127240532973 a41.86037612776978,41.86037612776978 0 0,0 0.6717929273573555,0.2606452188853276 l -7.712593028367193 19.3822393177571" fill="#fffb17" stroke="none" /><path d="M 107.76421540070413 80.48803036053334 l 7.6501648073283395 -19.225353207481803 a41.69152550035197,41.69152550035197 0 0,0 0.6645155279254704,0.2710725688320364 l -7.979964204842197 19.09081975246619" fill="#fff917" stroke="none" /><path d="M 108.09893153111575 80.62456947434976 l 7.931163802374304 -18.974072400792974 a41.56498924703405,41.56498924703405 0 0,0 0.6577486206695385,0.2816136328709299 l -8.256596180834157 18.83473923995925" fill="#fff817" stroke="none" /><path d="M 108.76106565485865 80.91482961587045 l 17.944056165461458 -39.08946500250233 a64.01134066558598,64.01134066558598 0 0,0 0.9974240661763727,0.4683039730663804 l -18.614258442937427 38.77479604679595" fill="#34ff57" stroke="none" /><path d="M 109.08828744355905 81.06846463323043 l 9.05876419981799 -18.87003639498893 a41.93178163406333,41.93178163406333 0 0,0 0.6480032364618008,0.317972373884648 l -9.382238703290222 18.71130886096945" fill="#fffc17" stroke="none" /><path d="M 109.73455568895987 81.39251694778311 l 9.67850879959137 -18.50035011493897 a41.87909210092934,41.87909210092934 0 0,0 0.6358740934894475,0.33966191902764836 l -9.995527939609127 18.33100946940957" fill="#fffc17" stroke="none" /><path d="M 110.05341064243156 81.56283822128135 l 9.963973263701442 -18.2731406838524 a41.81317932588914,41.81317932588914 0 0,0 0.6289417194456943,0.35000538593077746 l -10.277039072219173 18.098919900361444" fill="#fffb17" stroke="none" /><path d="M 110.36928655335952 81.73862282372117 l 14.356654627449284 -25.28354133066943 a50.075264303382184,50.075264303382184 0 0,0 0.7458907760362025,0.4320680813984433 l -14.789742135950815 25.032669091880937" fill="#a1ff22" stroke="none" /><line stroke="#e1ed5e" stroke-width="0.3" x1="143.23703022742887" x2="145.7803849466894" y1="26.81831364943548" y2="22.513508569990506" /><path d="M 143.74570117128098 25.957352633546492 a86.0,86.0 0 0,1 28.547481713284135,27.462654790039103" fill="none" id="id14" stroke="none" /><text fill="#e1ed5e" style="font-size:6.75px; font-family:Arial;" text-anchor="middle"><textPath startOffset="19.985693538727396" xlink:href="#id14">February</textPath></text><path d="M 110.68208982089419 81.91981866633111 l 10.62245014761539 -17.979237031042597 a41.88275392176491,41.88275392176491 0 0,0 0.6175471135928774,0.3720652261578929 l -10.930359327425906 17.793725195426088" fill="#fffc17" stroke="none" /><path d="M 111.2981086023043 82.29822771554956 l 11.145062685568199 -17.46198135461509 a41.71553077027402,41.71553077027402 0 0,0 0.6019610171573102,0.39153219019415825 l -11.44399072850979 17.267550240261407" fill="#fff917" stroke="none" /><path d="M 111.60114157652 82.49532879139004 l 11.294294712145346 -17.041677680184925 a41.44455602844208,41.44455602844208 0 0,0 0.5912664013583954,0.399225713553532 l -11.585965807910283 16.84474005433272" fill="#fff617" stroke="none" /><path d="M 112.19680574252982 82.90503203632743 l 13.073593187199506 -18.32386785713515 a43.50961954521089,43.50961954521089 0 0,0 0.605932953317222,0.44023605970484614 l -13.387071456870517 18.09611256261363" fill="#eeff19" stroke="none" /><path d="M 113.89432698308785 84.25364557470405 l 13.84178838899069 -15.68681276310046 a41.92059273706577,41.92059273706577 0 0,0 0.5369608971301921,0.4820887951895272 l -14.109760273716871 15.44622495914164" fill="#fffc17" stroke="none" /><path d="M 114.42810811169701 84.74124197986012 l 18.36510935737074 -19.42241890122396 a47.73027492718337,47.73027492718337 0 0,0 0.592120781215111,0.5696197223922568 l -18.696713382198272 19.103416092069402" fill="#bcff1f" stroke="none" /><path d="M 114.94478906791727 85.2469230424477 l 14.736698412145026 -14.54765569367204 a41.707596825130295,41.707596825130295 0 0,0 0.4999663140927641,0.515259234952337 l -14.984928989940899 14.291832263169587" fill="#fff917" stroke="none" /><path d="M 115.4437574822437 85.77008943001954 l 25.002837047584766 -23.03766655180836 a54.99817554782002,54.99817554782002 0 0,0 0.635507478628294,0.7017432306332579 l -25.395688166829093 22.603870533905553" fill="#6aff28" stroke="none" /><path d="M 115.92442197804982 86.31012108654704 l 25.767592892207873 -22.15183867092407 a54.980476747114785,54.980476747114785 0 0,0 0.6107791281200047,0.7229698380400361 l -26.145082633814997 21.705009883254927" fill="#6bff28" stroke="none" /><path d="M 117.45458315368197 88.32363383020206 l 11.262157738754473 -7.533899633230783 a34.549754264051515,34.549754264051515 0 0,0 0.3264184520735572,0.49715769679079524 l -11.390172826185955 7.338923872462314" fill="#ff9c0e" stroke="none" /><line stroke="#e1ed5e" stroke-width="0.3" x1="172.23445277983987" x2="176.4835382374775" y1="55.19839476539836" y2="52.563006222186495" /><path d="M 173.08426987136738 54.67131705675599 a86.0,86.0 0 0,1 12.851231095245387,41.99856678651699" fill="none" id="id15" stroke="none" /><text fill="#e1ed5e" style="font-size:6.75px; font-family:Arial;" text-anchor="middle"><textPath startOffset="22.20632615414155" xlink:href="#id15">March</textPath></text><path d="M 117.84615892207809 88.93136811851018 l 17.338000781227517 -10.753459556553342 a41.40203821985133,41.40203821985133 0 0,0 0.3704185190600006,0.6088706503429623 l -17.520535098573742 10.453421133003298" fill="#fff617" stroke="none" /><path d="M 118.03404312379186 89.2402003453031 l 17.527348484710117 -10.45748625968034 a41.40997216499506,41.40997216499506 0 0,0 0.35995189519870874,0.6152744690157427 l -17.704760054379154 10.154232378310704" fill="#fff617" stroke="none" /><path d="M 118.3937258080291 89.86733742301442 l 17.88939838236027 -9.85484068891594 a41.4242125793556,41.4242125793556 0 0,0 0.3386762760060925,0.6275157034272261 l -18.056382757584824 9.545444002156254" fill="#fff617" stroke="none" /><path d="M 118.56541770881063 90.18545643968196 l 18.19144997524019 -9.616846817435784 a41.57699188199507,41.57699188199507 0 0,0 0.3290335165888572,0.6355880247847937 l -18.354292924989164 9.302286070390647" fill="#fff817" stroke="none" /><path d="M 118.89224826269711 90.83032412892265 l 18.62132365443884 -9.038177977937105 a41.69884914202311,41.69884914202311 0 0,0 0.3078602326523523,0.6484321641137425 l -18.774142080932947 8.716303398182822" fill="#fff917" stroke="none" /><path d="M 119.196687751892 91.48605970444005 l 24.439355606711683 -10.83912064345547 a47.73515735496412,47.73515735496412 0 0,0 0.32666597995380153,0.7539901203778437 l -24.622312296508163 10.416831378491024" fill="#bcff1f" stroke="none" /><path d="M 119.34039704204932 91.81776055985345 l 19.235227130272694 -8.137745762059971 a41.88580543912788,41.88580543912788 0 0,0 0.27520632275732393,0.6664339397265703 l -19.372455139916216 7.8054372518800985" fill="#fffc17" stroke="none" /><path d="M 119.61058180528143 92.48833698450437 l 30.724038500359235 -11.768576066807846 a53.90084990409517,53.90084990409517 0 0,0 0.3244200049400115,0.8692843217605578 l -30.922063093800872 11.237968608017955" fill="#76ff27" stroke="none" /><path d="M 119.85752413597 93.16781622104841 l 48.76616833022141 -16.778497759639563 a72.57186404117772,72.57186404117772 0 0,0 0.39625172985660023,1.1847422363990787 l -49.04775735384978 15.93658242031817" fill="#3effb9" stroke="none" /><path d="M 120.08093135843002 93.85539295169968 l 19.49104808278714 -5.964107405704402 a41.383118812200905,41.383118812200905 0 0,0 0.20256859871523944,0.6829606126231278 l -19.590822578614084 5.627717406334744" fill="#fff517" stroke="none" /><path d="M 120.18372546131832 94.20196356495316 l 20.14103541095322 -5.78577316541879 a41.95558346949451,41.95558346949451 0 0,0 0.193421691831156,0.6958407371851244 l -20.237643873350738 5.438221124814713" fill="#fffc17" stroke="none" /><path d="M 120.45610955862082 95.25157060432595 l 6.006796581082348 -1.3943437962975431 a27.166506287094503,27.166506287094503 0 0,0 0.10181697763517966,0.45642554643548083 l -6.0299079457195655 1.2907400803120983" fill="#ff3505" stroke="none" /><path d="M 120.53481517161879 95.60439243477599 l 42.04484209829277 -8.99996539834139 a63.99730368571632,63.99730368571632 0 0,0 0.22131091681897536,1.0791906273816743 l -42.193532311026736 8.274899114796304" fill="#34ff57" stroke="none" /><path d="M 120.6074358757038 95.95851677861258 l 21.95747772200509 -4.306250342484258 a43.37575965022184,43.37575965022184 0 0,0 0.13738605966640194,0.7339218243066009 l -22.028349505581353 3.9276504407150945" fill="#f0ff19" stroke="none" /><path d="M 120.67395015179393 96.31383870115 l 20.086674367326868 -3.581450140481139 a41.40346226128739,41.40346226128739 0 0,0 0.11906085774175441,0.7027039220405572 l -20.145347086588846 3.235160430124744" fill="#fff617" stroke="none" /><path d="M 120.73433829027371 96.67025291283417 l 6.042700251786616 -0.9704029750224117 a27.120123223177323,27.120123223177323 0 0,0 0.07005270733606421,0.4615598148571277 l -6.058508852561981 0.8662440477732019" fill="#ff3405" stroke="none" /><path d="M 120.91429891909075 98.10471618934814 l 20.56007911351397 -1.8631839030470665 a41.644328698471334,41.644328698471334 0 0,0 0.058550966705380694,0.7144700979659206 l -20.589104564038845 1.508999887873377" fill="#fff917" stroke="none" /><path d="M 120.96714384426684 98.82574320788733 l 23.94435342139418 -1.340994264486169 a44.981874955599615,44.981874955599615 0 0,0 0.03664178930392192,0.7734502595114318 l -23.9638888189316 0.9286328983517375" fill="#dcff1b" stroke="none" /><path d="M 120.98425023603335 99.18683210126433 l 20.57253659289575 -0.7972134417355264 a41.58797734450178,41.58797734450178 0 0,0 0.021562981157078394,0.7155703677514909 l -20.583211268508478 0.4429729265590366" fill="#fff817" stroke="none" /><line stroke="#e1ed5e" stroke-width="0.3" x1="184.98032266829074" x2="189.97916517819016" y1="98.17113171792111" y2="98.06355123074" /><path d="M 185.9800911702706 98.14961562048488 a86.0,86.0 0 0,1 -9.607161424134198,41.387399972396054" fill="none" id="id16" stroke="none" /><text fill="#e1ed5e" style="font-size:6.75px; font-family:Arial;" text-anchor="middle"><textPath startOffset="21.466115282336823" xlink:href="#id16">April</textPath></text><path d="M 120.99513854157772 99.54816195383933 l 20.73107390553349 -0.44615509012900967 a41.735874219360504,41.735874219360504 0 0,0 0.009275287043698786,0.7183812032594243 l -20.735682199694903 0.08923762880912257" fill="#fffa17" stroke="none" /><path d="M 120.99824983174949 100.27111621757518 l 43.07874876278326 0.5562057560043998 a64.08233930289781,64.08233930289781 0 0,0 -0.023734686576001057,1.102857621526698 l -43.062792013522255 -1.2976531933212128" fill="#34ff58" stroke="none" /><path d="M 120.92983693683757 101.71520430193887 l 20.671865251082806 1.6940634709557958 a41.741163516122995,41.741163516122995 0 0,0 -0.06484868150372029,0.7155997966400794 l -20.639641973302012 -2.0496446561444457" fill="#fffa17" stroke="none" /><path d="M 120.89721153311464 102.0752229133903 l 26.60935804559569 2.6424745444779605 a47.740243217235744,47.740243217235744 0 0,0 -0.08824601749871952,0.8170485241137697 l -26.55992972659592 -3.1001193904765216" fill="#bcff1f" stroke="none" /><path d="M 120.76222939487914 103.15116336523771 l 42.657899707053545 6.474353415438399 a64.14642116752023,64.14642116752023 0 0,0 -0.17508382501543676,1.0902471455016869 l -42.54013412767682 -7.207679790633291" fill="#34ff59" stroke="none" /><path d="M 120.41448212921028 104.9243191809786 l 14.814576928409839 3.5735271100640795 a36.23948114517473,36.23948114517473 0 0,0 -0.1514960200173244,0.6051512929664645 l -14.750869594097454 -3.82800624242794" fill="#ffb310" stroke="none" /><path d="M 120.23288151984713 105.62410040840565 l 41.640867201434254 11.574842565268066 a64.21965758423156,64.21965758423156 0 0,0 -0.3052187944552266,1.0625066644427015 l -41.43545577009293 -12.28990670521535" fill="#34ff5a" stroke="none" /><path d="M 119.26925614724726 108.34839909993367 l 18.82081700950852 8.154112986070992 a41.51128254144574,41.51128254144574 0 0,0 -0.28970707336609225,0.6532129700067998 l -18.677668851411152 -8.476874292570479" fill="#fff717" stroke="none" /><path d="M 119.12269723197855 108.67885076344098 l 18.71101356148558 8.492007814739214 a41.54790074980141,41.54790074980141 0 0,0 -0.3011735767209132,0.6487010905976528 l -18.562065367924838 -8.812828972615698" fill="#fff717" stroke="none" /><line stroke="#e1ed5e" stroke-width="0.3" x1="174.80103733775053" x2="179.2010983576182" y1="140.37084112569926" y2="142.7455964860345" /><path d="M 175.68104954172406 140.8457921977663 a86.0,86.0 0 0,1 -30.038265399797805,32.042727171017184" fill="none" id="id17" stroke="none" /><text fill="#e1ed5e" style="font-size:6.75px; font-family:Arial;" text-anchor="middle"><textPath startOffset="22.206326154141568" xlink:href="#id17">May</textPath></text><path d="M 118.30583269289576 110.29060199501025 l 18.064597802848205 10.154992089553563 a41.72326128092689,41.72326128092689 0 0,0 -0.3573259645422531,0.6230279382746118 l -17.88711984215357 -10.464439873686489" fill="#fffa17" stroke="none" /><path d="M 118.12598468904814 110.60418214915192 l 28.35719645997966 16.589712595454127 a53.853449667723666,53.853449667723666 0 0,0 -0.4749851803850178,0.7961024834218199 l -28.067430403896417 -17.07537717276205" fill="#77ff27" stroke="none" /><path d="M 117.75023020441432 111.22182372390056 l 36.38315150856315 23.00169113567469 a64.04429705310608,64.04429705310608 0 0,0 -0.5971219948301822,0.9267465963168062 l -35.981824650355925 -23.624559331912952" fill="#34ff58" stroke="none" /><path d="M 117.55443506779137 111.5257021239791 l 17.231271841250997 11.313523089328054 a41.61340665585988,41.61340665585988 0 0,0 -0.3982935957670748,0.5953948844870607 l -17.0339751400732 -11.60845488802092" fill="#fff817" stroke="none" /><path d="M 117.35343817320211 111.8261652097733 l 17.03094917905075 11.606392730965206 a41.609744835024316,41.609744835024316 0 0,0 -0.4084473835003286,0.5883989193775715 l -16.82864088838829 -11.897832912529799" fill="#fff817" stroke="none" /><path d="M 116.93607887273984 112.41649034213515 l 45.260678462524794 33.18234292785321 a77.12126956038776,77.12126956038776 0 0,0 -0.7941240781240287,1.063858976549269 l -44.68279311770567 -33.95651478391179" fill="#44ffe9" stroke="none" /><path d="M 116.71984013943494 112.70617746262583 l 18.187567854286097 13.821571429086525 a43.843455544720065,43.843455544720065 0 0,0 -0.46180349886165506,0.5969432740167998 l -17.946957538206373 -14.132592697216579" fill="#eaff1a" stroke="none" /><path d="M 116.498646956653 112.99209946851258 l 16.22800440545597 12.778978055902073 a41.65551759546889,41.65551759546889 0 0,0 -0.4484555424961608,0.5595172424558679 l -16.005630950904955 -13.05642313193619" fill="#fff917" stroke="none" /><path d="M 114.81725581225074 114.88116024355365 l 14.496395970616565 14.558916585241992 a41.545256101420165,41.545256101420165 0 0,0 -0.5111056615410345,0.500224463299975 l -14.243640356699736 -14.806291151464539" fill="#fff717" stroke="none" /><path d="M 114.55890576462653 115.13401014063108 l 14.188494767153344 14.748967206595418 a41.46571321549202,41.46571321549202 0 0,0 -0.5186455696732035,0.49041175835024386 l -13.932513363089331 -14.991013601691582" fill="#fff617" stroke="none" /><path d="M 113.75828350139079 115.86535959552629 l 13.370256918957368 15.417906883688573 a41.407734385595546,41.407734385595546 0 0,0 -0.5425093936288116,0.4623382747404175 l -13.102882048751509 -15.645769548651938" fill="#fff617" stroke="none" /><path d="M 113.48314897796784 116.09983520530334 l 13.10836792384668 15.65232007220793 a41.416278634211864,41.416278634211864 0 0,0 -0.5505009776821339,0.4530248267166485 l -12.836996817619855 -15.875640017781757" fill="#fff617" stroke="none" /><path d="M 112.92097659922987 116.55440617244103 l 20.243135931476022 25.935585583644123 a53.90044303511344,53.90044303511344 0 0,0 -0.7363089822974763,0.5645703297999917 l -19.79369822068505 -26.280195255271487" fill="#76ff27" stroke="none" /><path d="M 112.63410532772338 116.77436683061366 l 12.475445684542578 16.5637136037414 a41.73628108834224,41.73628108834224 0 0,0 -0.5775805030051283,0.4272802481235289 l -12.188480211118884 -16.7760038006047" fill="#fffa17" stroke="none" /><path d="M 112.34349029814194 116.9893568818739 l 25.26516941663781 34.7745224027015 a63.98367357482837,63.98367357482837 0 0,0 -0.8966022189004503,0.6397018769200767 l -24.662839869888476 -35.204268541465794" fill="#33ff57" stroke="none" /><line stroke="#e1ed5e" stroke-width="0.3" x1="143.8653032363475" x2="146.44561519142675" y1="172.8068346515853" y2="177.08958963109032" /><path d="M 144.38136562736335 173.6633856474863 a86.0,86.0 0 0,1 -40.68145358897372,12.25698825130547" fill="none" id="id18" stroke="none" /><text fill="#e1ed5e" style="font-size:6.75px; font-family:Arial;" text-anchor="middle"><textPath startOffset="21.466115282336833" xlink:href="#id18">June</textPath></text><path d="M 110.5260780823613 118.17145234162733 l 20.161687252736414 34.80566419641347 a61.223474402774464,61.223474402774464 0 0,0 -0.9164606986609789,0.5203903028547068 l -19.559577787154236 -35.147557665062806" fill="#30ff35" stroke="none" /><path d="M 109.89434966115114 118.52300852407294 l 15.867312203705183 29.70486886645595 a54.677155921235325,54.677155921235325 0 0,0 -0.8339804983594744,0.4362991803891297 l -15.353640802819212 -29.973597465789798" fill="#6eff28" stroke="none" /><path d="M 109.57404056367764 118.69057910512821 l 25.598119569763153 49.97301563316191 a77.1477160442002,77.1477160442002 0 0,0 -1.187142046232538,0.5952576666456111 l -24.734123615847853 -50.40624114071682" fill="#44ffe9" stroke="none" /><path d="M 108.92500713936063 119.00905698771935 l 9.607577870267228 20.462840241822416 a43.60604749388082,43.60604749388082 0 0,0 -0.6821896276107506,0.31315979874779337 l -9.253920246889058 -20.62518711090428" fill="#edff1a" stroke="none" /><path d="M 108.59647513512805 119.15986991738527 l 13.68451291886435 30.50011583664212 a54.42937271136198,54.42937271136198 0 0,0 -0.8581161902894948,0.37617292011267367 l -13.157476053917101 -30.731153310049248" fill="#70ff27" stroke="none" /><path d="M 108.2653958097858 119.30500536409082 l 5.4895079919701955 12.82152526872762 a34.94726525920137,34.94726525920137 0 0,0 -0.5550433512598341,0.2320081658419593 l -5.2679931812129 -12.914118477589554" fill="#ffa20e" stroke="none" /><path d="M 107.2578585660854 119.70592522655815 l 19.464472253166953 52.84829282670955 a77.31880445101748,77.31880445101748 0 0,0 -1.2528607976274213,0.44923130737710093 l -18.551891894909797 -53.175511675126614" fill="#44ffeb" stroke="none" /><path d="M 106.2309692047433 120.05430185196036 l 6.04286227216361 19.448881879168983 a41.366030314968256,41.366030314968256 0 0,0 -0.681800871432093,0.20542100966465862 l -5.707186426291271 -19.550018257939367" fill="#fff517" stroke="none" /><path d="M 105.88484417918355 120.15858648285463 l 5.748745684562254 19.692379869650747 a41.514334058808714,41.514334058808714 0 0,0 -0.6876925188549032,0.19434877500330006 l -5.408921997602746 -19.788417437992567" fill="#fff717" stroke="none" /><path d="M 105.53697534728816 120.25689768951611 l 5.4205079471414415 19.830804369434514 a41.55827590883551,41.55827590883551 0 0,0 -0.6916673624007007,0.18267563687685612 l -5.078350141929243 -19.921171355614955" fill="#fff817" stroke="none" /><path d="M 103.41894727170886 120.7198165907248 l 2.4582412163461544 14.897657989616945 a36.099111346478,36.099111346478 0 0,0 -0.6139670442173711,0.0958890254367544 l -2.2014383085202662 -14.937765322400805" fill="#ffb110" stroke="none" /><path d="M 103.06178313531738 120.77559828337769 l 3.025498352518846 20.52938944431053 a41.751131806175366,41.751131806175366 0 0,0 -0.7118993612086449,0.09866276462176539 l -2.67167040012337 -20.578426774424898" fill="#fffa17" stroke="none" /><path d="M 101.98527174616119 120.90594882070398 l 1.9301078574762913 20.32504424891047 a41.416482068702734,41.416482068702734 0 0,0 -0.7103038741047066,0.061288007060584127 l -1.579959665630043 -20.355256508249717" fill="#fff617" stroke="none" /><path d="M 101.62511606390274 120.93702456842531 l 1.5873274266032977 20.450178339334734 a41.51168941042747,41.51168941042747 0 0,0 -0.7128886221132893,0.0491649732172917 l -1.2350760437110782 -20.47447165706831" fill="#fff717" stroke="none" /><path d="M 101.26447882468166 120.96189622390904 l 1.2383221499284942 20.528283979056692 a41.56559955050665,41.56559955050665 0 0,0 -0.714556065775248,0.036934386650351814 l -0.8847780157397666 -20.546558172469247" fill="#fff817" stroke="none" /><line stroke="#e1ed5e" stroke-width="0.3" x1="102.19456741930631" x2="102.32365962044197" y1="184.97166512339345" y2="189.96999836594603" /><path d="M 102.22038585953345 185.97133177190398 a86.0,86.0 0 0,1 -42.740103519485714,-10.115201625700543" fill="none" id="id19" stroke="none" /><text fill="#e1ed5e" style="font-size:6.75px; font-family:Arial;" text-anchor="middle"><textPath startOffset="22.20632615414155" xlink:href="#id19">July</textPath></text><path d="M 100.54218724476979 120.99299961872073 l 0.6895772551706095 26.699807482600473 a47.708710871151695,47.708710871151695 0 0,0 -0.821135773909053,0.014136597017987806 l -0.22988179136888864 -26.70772155689762" fill="#bcff1f" stroke="none" /><path d="M 99.81925306533755 120.99922214144158 l -0.17697828502470547 20.56137952428175 a41.56214116416194,41.56214116416194 0 0,0 -0.7153444376714002,-0.012315303224798633 l 0.5308824125887736 -20.555286743777792" fill="#fff817" stroke="none" /><path d="M 99.45781275523022 120.99299961872073 l -0.5343016997576611 20.68767844964175 a41.69457701771495,41.69457701771495 0 0,0 -0.717304862954027,-0.024705429827151647 l 0.8903269143863312 -20.675416221388506" fill="#fff917" stroke="none" /><path d="M 99.09653310690486 120.98055641714683 l -0.9021686491951774 20.95040824061209 a41.96982388385505,41.96982388385505 0 0,0 -0.7215051042217236,-0.037293572563289974 l 1.26266182183039 -20.9317748612866" fill="#fffd17" stroke="none" /><path d="M 98.37488393609728 120.93702456842531 l -1.5963482108718199 20.566396735086258 a41.62825737369302,41.62825737369302 0 0,0 -0.7139358778882432,-0.061601391629702566 l 1.950128406501605 -20.535871091177892" fill="#fff817" stroke="none" /><path d="M 96.22490169976321 120.6578951692458 l -3.703261208370637 20.264791998146528 a41.60038684844453,41.60038684844453 0 0,0 -0.7033087894068355,-0.13479080337884314 l 4.0515376123491675 -20.198043996419216" fill="#fff817" stroke="none" /><path d="M 95.51606077576429 120.51570834832081 l -4.391142205073713 20.091127084946166 a41.56539611601578,41.56539611601578 0 0,0 -0.6976649815904633,-0.15878627840781517 l 4.736327336057039 -20.012564072960664" fill="#fff817" stroke="none" /><path d="M 93.08242187328487 119.8279376855182 l -6.978604674729495 20.002858816732907 a42.1852610096809,42.1852610096809 0 0,0 -0.6835628167297085,-0.24510130607915998 l 7.32188705208893 -19.87976996961379" fill="#ffff18" stroke="none" /><path d="M 92.06813273071674 119.44442032107085 l -7.747197953625478 18.991716352112622 a41.511079106954874,41.511079106954874 0 0,0 -0.6592918871060974,-0.2755840622805049 l 8.072961300229037 -18.855547246812144" fill="#fff717" stroke="none" /><path d="M 90.7491055286396 118.85261126421891 l -9.104789354306691 18.554860275484355 a41.668333968393384,41.668333968393384 0 0,0 -0.641188537869334,-0.32150524374338324 l 9.422831799858786 -18.39538719083167" fill="#fff917" stroke="none" /><path d="M 90.42595943632237 118.69057910512821 l -9.370800650910288 18.293811236678927 a41.554207219018224,41.554207219018224 0 0,0 -0.6338186005024147,-0.33158393566583466 l 9.6843101539392 -18.129797882068377" fill="#fff717" stroke="none" /><line stroke="#e1ed5e" stroke-width="0.3" x1="58.666819895761336" x2="56.23545636021788" y1="174.27360380694188" y2="178.64263932499728" /><path d="M 58.180547188652646 175.14741091055294 a86.0,86.0 0 0,1 -31.652253787137756,-30.449443065178592" fill="none" id="id20" stroke="none" /><text fill="#e1ed5e" style="font-size:6.75px; font-family:Arial;" text-anchor="middle"><textPath startOffset="22.20632615414155" xlink:href="#id20">August</textPath></text><path d="M 88.8546689885994 117.79835938074946 l -10.945768684697022 17.479671491991777 a41.62398524938485,41.62398524938485 0 0,0 -0.603980275086571,-0.38548878789791247 l 11.245030761830515 -17.28866827527006" fill="#fff817" stroke="none" /><path d="M 88.54995079064634 117.60387380957326 l -11.216302297678036 17.244499708966433 a41.57129571625086,41.57129571625086 0 0,0 -0.5964992002604489,-0.3953271438253996 l 11.511476196678446 -17.048874544049717" fill="#fff817" stroke="none" /><path d="M 87.65650970185807 116.9893568818739 l -12.12295267626007 16.68581288633199 a41.62479898734831,41.62479898734831 0 0,0 -0.5760377232871212,-0.42613893657080115 l 12.408375369965755 -16.474664001021424" fill="#fff817" stroke="none" /><path d="M 87.36589467227662 116.77436683061367 l -12.382795633201969 16.4407016525388 a41.58228117875756,41.58228117875756 0 0,0 -0.5680362797091207,-0.4355459969713815 l 12.663960641404577 -16.225116313740052" fill="#fff817" stroke="none" /><path d="M 85.97065885151581 115.62618273729859 l -13.68667371399612 15.244512358571608 a41.487073837032824,41.487073837032824 0 0,0 -0.5272818427812301,-0.4816594616488249 l 13.947055106244207 -15.006660130336206" fill="#fff717" stroke="none" /><path d="M 85.44109423537348 115.13401014063109 l -43.67671729387956 45.40203042189327 a84.0,84.0 0 0,0 -1.033400190496823,-1.011399588309712 l 44.45176743675218 -44.64348073066099" fill="#4dd2ff" stroke="none" /><path d="M 85.18274418774928 114.88116024355367 l -25.117497874230708 25.22582558603807 a56.59818781847184,56.59818781847184 0 0,0 -0.6844590667318401,-0.6933534209414172 l 25.547997566018083 -24.78973167111599" fill="#59ff2a" stroke="none" /><path d="M 84.67929136418377 114.36230785411682 l -28.24957563919724 26.482397891818795 a59.721517556719476,59.721517556719476 0 0,0 -0.6966190593078367,-0.7560424049435004 l 28.701241106500806 -25.992204232073952" fill="#39ff2e" stroke="none" /><path d="M 84.19399662182784 113.82643327865904 l -19.922234093689465 17.42714042682164 a47.46886160642207,47.46886160642207 0 0,0 -0.5326853714143541,-0.619633430621537 l 20.2192619746746 -17.081629897038574" fill="#bfff1e" stroke="none" /><path d="M 83.72743513129214 113.27417163493432 l -19.04993871898143 15.53978479919989 a45.584244483050355,45.584244483050355 0 0,0 -0.49075148429189097,-0.6122879331443943 l 19.314608115328184 -15.209569032477237" fill="#d5ff1c" stroke="none" /><path d="M 83.50135304334701 112.99209946851258 l -21.01566048091279 16.54908745437498 a47.74939776932466,47.74939776932466 0 0,0 -0.5029448223103516,-0.6501239804804516 l 21.297412120441212 -16.18488547978128" fill="#bbff1f" stroke="none" /><path d="M 83.06392112726016 112.41649034213515 l -20.09232276157559 14.730454043982991 a45.9136049237605,45.9136049237605 0 0,0 -0.4618038649895726,-0.6414051779630657 l 20.34290641894077 -14.382415260568784" fill="#d1ff1c" stroke="none" /><path d="M 82.05923443525364 110.91462005526583 l -17.581292136102622 10.695927275437088 a41.57922966139459,41.57922966139459 0 0,0 -0.36672707176312425,-0.6146556663767542 l 17.76280008356398 -10.391709515174222" fill="#fff817" stroke="none" /><line stroke="#e1ed5e" stroke-width="0.3" x1="26.63291911575756" x2="22.317208475507996" y1="142.92168965132927" y2="145.44649492493687" /><path d="M 25.769776987707644 143.4266507060508 a86.0,86.0 0 0,1 -11.730757126820373,-40.83630448921669" fill="none" id="id21" stroke="none" /><text fill="#e1ed5e" style="font-size:6.75px; font-family:Arial;" text-anchor="middle"><textPath startOffset="21.46611528233685" xlink:href="#id21">September</textPath></text><path d="M 81.69416730710424 110.29060199501025 l -23.262999836801217 13.077267587145258 a47.686739946138296,47.686739946138296 0 0,0 -0.3960805906170059,-0.7190013213544579 l 23.484656836869743 -12.674895747392977" fill="#bcff1f" stroke="none" /><path d="M 81.51974371655577 109.97397251340807 l -23.32192326215455 12.587066867948698 a47.501817993942176,47.501817993942176 0 0,0 -0.3821577621349764,-0.7228984660464567 l 23.535133532514408 -12.183753386816115" fill="#beff1e" stroke="none" /><path d="M 80.87730276802145 108.67885076344099 l -24.339785870438003 11.046630431944823 a47.72925775472905,47.72925775472905 0 0,0 -0.33310229729115415,-0.751057743953291 l 24.52632925246044 -10.626024351498836" fill="#bcff1f" stroke="none" /><path d="M 80.73074385275274 108.34839909993369 l -24.535289324034505 10.629906299659817 a47.73902261029055,47.73902261029055 0 0,0 -0.3201902139760816,-0.7568350831792833 l 24.714630519202895 -10.205996690814375" fill="#bcff1f" stroke="none" /><path d="M 80.32549172779595 107.34259656027581 l -40.632158746969786 15.164066360610425 a64.36958880399894,64.36958880399894 0 0,0 -0.3784801212554168,-1.0414147429509055 l 40.88716312923042 -14.462403820653401" fill="#34ff5c" stroke="none" /><path d="M 80.0844068197444 106.66101706037122 l -19.564204332544346 6.543490703599217 a41.6294779806382,41.6294779806382 0 0,0 -0.22144453698027183,-0.6815362058615821 l 19.673941120540867 -6.205755597759833" fill="#fff817" stroke="none" /><path d="M 79.97269907076064 106.31721596034903 l -31.377691372958168 9.89747212769753 a53.90166364205863,53.90166364205863 0 0,0 -0.2714929967004528,-0.8872548216967437 l 31.54341114216475 -9.355890333448738" fill="#76ff27" stroke="none" /><path d="M 79.4281124754447 104.21870165774334 l -20.50964348515194 4.205937197899677 a41.93646062735322,41.93646062735322 0 0,0 -0.13892963698134708,-0.708399225852797 l 20.579003055108956 -3.852274244978925" fill="#fffc17" stroke="none" /><path d="M 79.29508885075956 103.50808413554451 l -20.154664706895545 3.4148545244094364 a41.44191138006083,41.44191138006083 0 0,0 -0.11311322172475936,-0.7043561396550898 l 20.210459682981593 -3.067419155061133" fill="#fff617" stroke="none" /><path d="M 79.1416061653843 102.43462659150553 l -20.307099430884353 2.370278587257714 a41.44496289742381,41.44496289742381 0 0,0 -0.07660943209772803,-0.7093081954610884 l 20.344891164483133 -2.0203740699118438" fill="#fff617" stroke="none" /><path d="M 79.07016306316243 101.71520430193888 l -20.623406854780423 1.6900922957357725 a41.6925426728063,41.6925426728063 0 0,0 -0.05246002168807583,-0.7157753162524675 l 20.649443435132834 -1.3348438429865443" fill="#fff917" stroke="none" /><line stroke="#e1ed5e" stroke-width="0.3" x1="15.007084014347285" x2="10.007500721073583" y1="101.09737516637583" y2="101.16192664675087" /><path d="M 14.007167355692545 101.11028546245083 a86.0,86.0 0 0,1 10.666146001902534,-42.60595125391555" fill="none" id="id22" stroke="none" /><text fill="#e1ed5e" style="font-size:6.75px; font-family:Arial;" text-anchor="middle"><textPath startOffset="22.20632615414155" xlink:href="#id22">October</textPath></text><path d="M 79.03285615573316 98.82574320788736 l -21.34080994974444 -1.1951838180155703 a42.37425165169432,42.37425165169432 0 0,0 0.047054405007037156,-0.7279108186862177 l 21.317074953732988 1.5623537009547996" fill="#fcff18" stroke="none" /><path d="M 79.12142395522702 97.74499172005258 l -20.304702073108164 -2.1930265358392345 a41.422788537919544,41.422788537919544 0 0,0 0.08266735453481865,-0.7082434095516741 l 20.263944365569756 2.5422136837157705" fill="#fff617" stroke="none" /><path d="M 79.16333360222342 97.38593545837743 l -20.4534836001476 -2.5659923334718124 a41.61381352484161,41.61381352484161 0 0,0 0.0952837451778862,-0.7099745763186834 l 20.40628385591188 2.9176852518551555" fill="#fff817" stroke="none" /><path d="M 79.32604984820605 96.31383870115002 l -26.379344077894793 -4.703431928346098 a47.79537396426011,47.79537396426011 0 0,0 0.15138450950905755,-0.8087021031131524 l 26.29447384447587 5.156812108921823" fill="#bbff1f" stroke="none" /><path d="M 79.3925641242962 95.95851677861259 l -20.233060115289216 -3.9680615029681108 a41.618492518131504,41.618492518131504 0 0,0 0.14392210617253526,-0.7018153025929363 l 20.161758713201685 4.31575246172445" fill="#fff817" stroke="none" /><path d="M 79.62865764111835 94.90015583598534 l -15.802357638359172 -3.956026066417874 a37.290016856000676,37.290016856000676 0 0,0 0.16124144357823478,-0.6213290566313217 l 15.73191986291063 4.22745154859806" fill="#ffc111" stroke="none" /><line stroke="#e1ed5e" stroke-width="0.3" x1="26.266209847984257" x2="21.92892807433627" y1="57.711370442889674" y2="55.22380399835377" /><path d="M 25.39875349325466 57.213857153982495 a86.0,86.0 0 0,1 29.58750427330802,-30.492523968695096" fill="none" id="id23" stroke="none" /><text fill="#e1ed5e" style="font-size:6.75px; font-family:Arial;" text-anchor="middle"><textPath startOffset="21.46611528233685" xlink:href="#id23">November</textPath></text><path d="M 82.7489923806493 88.02491185347247 l -26.823728682723203 -18.620159615130866 a53.65306669422181,53.65306669422181 0 0,0 0.5331770441859498,-0.7541411173364542 l 26.499239018733373 19.07912723279911" fill="#79ff26" stroke="none" /><path d="M 83.6137871275137 86.86637796730984 l -20.68783053732199 -16.581387601142897 a47.51280345644888,47.51280345644888 0 0,0 0.5169879635941218,-0.6337661140214838 l 20.399344081651478 16.935037884772463" fill="#beff1e" stroke="none" /><path d="M 84.07557802195018 86.31012108654704 l -15.456483124644533 -13.287602067809939 a41.382915377710034,41.382915377710034 0 0,0 0.46902240803640793,-0.5361736911069049 l 15.225468853030282 13.551691315119784" fill="#fff517" stroke="none" /><path d="M 84.5562425177563 85.77008943001954 l -19.466399449778862 -17.936381324839747 a47.46987877887639,47.46987877887639 0 0,0 0.5588621550590207,-0.596155181480064 l 19.154769972749385 18.268805923197863" fill="#bfff1e" stroke="none" /><path d="M 85.05521093208273 85.24692304244772 l -14.549938013759467 -14.3632910621283 a41.44516633191468,41.44516633191468 0 0,0 0.505560374778454,-0.5033893378625928 l 14.3005418388137 14.611616250641003" fill="#fff617" stroke="none" /><path d="M 85.57189188830299 84.74124197986013 l -14.144747265618328 -14.959083624216015 a41.58757047552005,41.58757047552005 0 0,0 0.5243838473354056,-0.48735763668204174 l 13.885155534488067 15.200345846972704" fill="#fff817" stroke="none" /><path d="M 86.10567301691215 84.25364557470407 l -30.562925039961872 -34.63677301813713 a67.19305610271181,67.19305610271181 0 0,0 0.8738495385488503,-0.7577937087732154 l 29.962181702766248 35.15773172033003" fill="#38ff7d" stroke="none" /><path d="M 86.93701828274178 83.55741782278169 l -16.548642592685013 -20.8300387799019 a47.60353523937459,47.60353523937459 0 0,0 0.6459741810734674,-0.5041930946005153 l 16.18763585645212 21.111810263725637" fill="#bdff1f" stroke="none" /><path d="M 87.80319425747017 82.90503203632743 l -11.832140620339699 -16.583855569747044 a41.3721333496942,41.3721333496942 0 0,0 0.5832857320874716,-0.4086289306627599 l 11.54492374866857 16.785069343173745" fill="#fff517" stroke="none" /><line stroke="#e1ed5e" stroke-width="0.3" x1="56.762969772571076" x2="54.21961505331055" y1="26.818313649435495" y2="22.513508569990535" /><path d="M 56.25429882871897 25.957352633546506 a86.0,86.0 0 0,1 42.265352541879196,-11.944610805530505" fill="none" id="id24" stroke="none" /><text fill="#e1ed5e" style="font-size:6.75px; font-family:Arial;" text-anchor="middle"><textPath startOffset="22.20632615414155" xlink:href="#id24">December</textPath></text><path d="M 89.3179101791058 81.91981866633112 l -13.4563866873724 -22.775872088978044 a47.45401088858894,47.45401088858894 0 0,0 0.70684617445604,-0.4094509280085594 l 13.062343780451037 23.004127174376652" fill="#bfff1e" stroke="none" /><path d="M 89.63071344664047 81.73862282372117 l -11.105257382929349 -19.557497294124257 a43.490496703069596,43.490496703069596 0 0,0 0.6541714410853028,-0.3640456987075806 l 10.766961852772 19.74575839039202" fill="#efff19" stroke="none" /><path d="M 90.26544431104013 81.39251694778311 l -21.47862654536193 -41.05612954487309 a67.33505337733547,67.33505337733547 0 0,0 1.031635582943261,-0.5284438145269679 l 20.768730474829905 41.41976588471256" fill="#38ff7f" stroke="none" /><path d="M 91.23893434514133 80.91482961587045 l -12.068142888459638 -26.28933195113568 a49.92696055954172,49.92696055954172 0 0,0 0.7841335411019504,-0.35181786294834666 l 11.613827228890914 26.493170144600555" fill="#a2ff22" stroke="none" /><path d="M 91.56875222667455 80.76684994638697 l -11.455946545359051 -26.133016706038088 a49.53372168870002,49.53372168870002 0 0,0 0.7838504882975951,-0.3356038716013436 l 11.004412299271149 26.32634010560222" fill="#a7ff21" stroke="none" /><path d="M 91.90106846888425 80.62456947434976 l -6.273597720478537 -15.008604074748071 a37.267028758532945,37.267028758532945 0 0,0 0.593994078952128,-0.24230509910767808 l 6.014319771938028 15.114370060039326" fill="#ffc011" stroke="none" /><path d="M 92.91201910852362 80.23233633223022 l -0.872098914072903 -2.432195893636157 a23.583821468474113,23.583821468474113 0 0,0 0.38331346095946917,-0.13373053997165546 l 0.8301034490501484 2.446847286780025" fill="#ff0000" stroke="none" /><path d="M 93.59665428221793 80.00007090966166 l -6.295142114921228 -19.66197070422052 a41.645142436434796,41.645142436434796 0 0,0 0.6845958249810692,-0.2127072552633343 l 5.955760917229431 19.767418094366377" fill="#fff917" stroke="none" /><path d="M 98.55514903715128 79.0497635885617 l -1.4108201088661827 -20.456791444068447 a41.50538294121066,41.50538294121066 0 0,0 0.7131770163158723,-0.04302078522612181 l 1.0584810437106875 20.478045498674874" fill="#fff717" stroke="none" /><path d="M 98.91598698831166 79.02799685794201 l -1.065464355489603 -20.613149076759505 a41.640666877635766,41.640666877635766 0 0,0 0.7161385042038274,-0.030838430428380637 l 0.7104850188964517 20.62843523371208" fill="#fff917" stroke="none" /></svg>