<?xml version="1.0" encoding="utf-8" ?>
<svg baseProfile="full" height="200mm" version="1.1" viewBox="0,0,200,200" width="200mm" xmlns="http://www.w3.org/2000/svg" xmlns:ev="http://www.w3.org/2001/xml-events" xmlns:xlink="http://www.w3.org/1999/xlink"><defs /><rect fill="#1a1a1a" height="200" width="200" x="0" y="0" /><text alignment-baseline="middle" fill="#e1ed5e" style="dominant-baseline: central; font-size:9.0px; font-family:Arial;" text-anchor="middle" x="100.0" y="100.0">2025</text><line stroke="#e1ed5e" stroke-width="0.3" x1="100.0" x2="100.0" y1="15.0" y2="10.0" /><path d="M 100.0 14.0 a86.0,86.0 0 0,1 42.46469731375804,11.215312516191453" fill="none" id="id61" stroke="none" /><text fill="#e1ed5e" style="font-size:6.75px; font-family:Arial;" text-anchor="middle"><textPath startOffset="22.20632615414155" xlink:href="#id61">January</textPath></text><path d="M 101.44485096284872 79.0497635885617 l 2.153766962339938 -31.22946808797712 a52.30364817694654,52.30364817694654 0 0,0 0.8976546635767634,0.06967527830175595 l -2.6910118152790425 31.1877675474869" fill="#97ff23" stroke="none" /><path d="M 103.95276090670814 79.375362276772 l 4.904847206027187 -25.59241479554724 a47.05818913857634,47.05818913857634 0 0,0 0.7942382352552732,0.15931671818682197 l -5.344651850749585 25.50419412128321" fill="#d7ff1c" stroke="none" /><path d="M 105.01212808612495 79.60689891045804 l 5.724231737947553 -23.290473524626265 a44.98359827029804,44.98359827029804 0 0,0 0.7503502204309088,0.19128097843242445 l -6.124290847063487 23.188489550024975" fill="#f1ff19" stroke="none" /><path d="M 106.40334571778207 80.00007090966166 l 9.551378163289863 -29.83235552163337 a52.32408435672621,52.32408435672621 0 0,0 0.8554169985762341,0.28201753523254275 l -10.063477984108514 29.663524262141593" fill="#97ff23" stroke="none" /><line stroke="#e1ed5e" stroke-width="0.3" x1="143.23703022742887" x2="145.7803849466894" y1="26.81831364943548" y2="22.513508569990506" /><path d="M 143.74570117128098 25.957352633546492 a86.0,86.0 0 0,1 28.547481713284135,27.462654790039103" fill="none" id="id62" stroke="none" /><text fill="#e1ed5e" style="font-size:6.75px; font-family:Arial;" text-anchor="middle"><textPath startOffset="19.985693538727396" xlink:href="#id62">February</textPath></text><line stroke="#e1ed5e" stroke-width="0.3" x1="172.23445277983987" x2="176.4835382374775" y1="55.19839476539836" y2="52.563006222186495" /><path d="M 173.08426987136738 54.67131705675599 a86.0,86.0 0 0,1 12.851231095245387,41.99856678651699" fill="none" id="id63" stroke="none" /><text fill="#e1ed5e" style="font-size:6.75px; font-family:Arial;" text-anchor="middle"><textPath startOffset="22.20632615414155" xlink:href="#id63">March</textPath></text><path d="M 119.196687751892 91.48605970444005 l 19.052660787847657 -8.450062766859531 a41.842443327514495,41.842443327514495 0 0,0 0.28634037281166513,0.6609130592534834 l -19.195291870502004 8.120850563019445" fill="#ffe415" stroke="none" /><path d="M 120.6074358757038 95.95851677861258 l 22.191849886216666 -4.352214875623391 a43.61459651853139,43.61459651853139 0 0,0 0.13814253878065175,0.737962965983771 l -22.263478148907176 3.969573832177057" fill="#fffb17" stroke="none" /><path d="M 120.78858239683441 97.02765380044208 l 10.15334750792555 -1.451723032474252 a31.256605938599485,31.256605938599485 0 0,0 0.07156869854287908,0.5332699331958515 l -10.176832205526265 1.2767347572137362" fill="#ff4e07" stroke="none" /><line stroke="#e1ed5e" stroke-width="0.3" x1="184.98032266829074" x2="189.97916517819016" y1="98.17113171792111" y2="98.06355123074" /><path d="M 185.9800911702706 98.14961562048488 a86.0,86.0 0 0,1 -9.607161424134198,41.387399972396054" fill="none" id="id64" stroke="none" /><text fill="#e1ed5e" style="font-size:6.75px; font-family:Arial;" text-anchor="middle"><textPath startOffset="21.466115282336823" xlink:href="#id64">April</textPath></text><path d="M 120.9904718944345 100.63252640178507 l 10.680561867518044 0.32184780795210527 a31.685410044418703,31.685410044418703 0 0,0 -0.021120388588424993,0.5450233831302373 l -10.673439346078416 -0.5056484380963489" fill="#ff5507" stroke="none" /><path d="M 120.95626037817324 101.35467743843564 l 31.252822327897285 2.0202790255047725 a52.318052793876085,52.318052793876085 0 0,0 -0.065829666609289,0.8981934989701205 l -31.213416102623658 -2.5579456609716633" fill="#97ff23" stroke="none" /><path d="M 120.8583938346157 102.4346265915055 l 14.72762694483939 1.7190332330466152 a35.827611765981665,35.827611765981665 0 0,0 -0.07677087889328768,0.6119394403210313 l -14.695854556699254 -1.9722904276550413" fill="#ff910d" stroke="none" /><path d="M 120.76222939487914 103.15116336523771 l 14.66916321057463 2.2263952887090497 a35.83715556567572,35.83715556567572 0 0,0 -0.09781537550981527,0.609096436671687 l -14.628666080703528 -2.4785709550739417" fill="#ff910d" stroke="none" /><path d="M 120.64145759157962 103.86396538481128 l 30.76596776080856 5.759217048047947 a52.300373053138486,52.300373053138486 0 0,0 -0.17326383136688642,0.8834685433250682 l -30.662273996466013 -6.287949318440961" fill="#97ff23" stroke="none" /><path d="M 120.02730092923936 106.31721596034902 l 59.497342096965745 18.767259773110762 a83.38704798269264,83.38704798269264 0 0,0 -0.4435704487879427,1.3651694678121 l -59.165479397161555 -19.788628140900656" fill="#4cd8ff" stroke="none" /><path d="M 119.26925614724726 108.34839909993367 l 18.787096060627825 8.13950339568861 a41.4745328132215,41.4745328132215 0 0,0 -0.2894505971610939,0.6526346838722693 l -18.64420437873546 -8.461686416053567" fill="#ffdf14" stroke="none" /><line stroke="#e1ed5e" stroke-width="0.3" x1="174.80103733775053" x2="179.2010983576182" y1="140.37084112569926" y2="142.7455964860345" /><path d="M 175.68104954172406 140.8457921977663 a86.0,86.0 0 0,1 -30.038265399797805,32.042727171017184" fill="none" id="id65" stroke="none" /><text fill="#e1ed5e" style="font-size:6.75px; font-family:Arial;" text-anchor="middle"><textPath startOffset="22.206326154141568" xlink:href="#id65">May</textPath></text><path d="M 118.48025628344425 109.97397251340804 l 22.880728210846755 12.348949644502051 a47.000466933904974,47.000466933904974 0 0,0 -0.39038048571749073,0.7086539752544494 l -22.664771315677754 -12.740974138154305" fill="#d8ff1c" stroke="none" /><path d="M 116.93607887273984 112.41649034213515 l 13.485907216037441 9.887036896857023 a37.72193744873431,37.72193744873431 0 0,0 -0.3884259034152989,0.5203599732787418 l -13.31372004592705 -10.11770974964508" fill="#ffab0f" stroke="none" /><path d="M 116.498646956653 112.99209946851258 l 24.591936919341503 19.36527834184816 a52.3013956031057,52.3013956031057 0 0,0 -0.5630670819235819,0.702512760221381 l -24.254951925363066 -19.785718935647793" fill="#97ff23" stroke="none" /><path d="M 115.07121518719521 114.62390073753431 l 17.023617379973512 16.518355531809462 a44.720447259168544,44.720447259168544 0 0,0 -0.5408179444369204,0.5478457224217828 l -16.736758810481057 -16.80894174821191" fill="#f5ff19" stroke="none" /><path d="M 112.92097659922987 116.55440617244103 l 38.762929797689644 49.6632185173231 a84.0,84.0 0 0,0 -1.147485086026025,0.8798426326905142 l -37.90231598317012 -50.32310049184099" fill="#4dd2ff" stroke="none" /><path d="M 111.7513745106137 117.40417183066458 l 8.30033288577145 12.293065774153256 a35.83290235059468,35.83290235059468 0 0,0 -0.5141600045625899,0.34075721473596693 l -8.087498182468895 -12.43412100998054" fill="#ff910d" stroke="none" /><path d="M 111.45004920935366 117.60387380957326 l 8.616963069974595 13.248146600249282 a36.80396914990037,36.80396914990037 0 0,0 -0.5340399598513336,0.3408495696032996 l -8.387641308076331 -13.394510598676389" fill="#ff9f0e" stroke="none" /><line stroke="#e1ed5e" stroke-width="0.3" x1="143.8653032363475" x2="146.44561519142675" y1="172.8068346515853" y2="177.08958963109032" /><path d="M 144.38136562736335 173.6633856474863 a86.0,86.0 0 0,1 -40.68145358897372,12.25698825130547" fill="none" id="id66" stroke="none" /><text fill="#e1ed5e" style="font-size:6.75px; font-family:Arial;" text-anchor="middle"><textPath startOffset="21.466115282336833" xlink:href="#id66">June</textPath></text><path d="M 110.5260780823613 118.17145234162733 l 9.66085293887897 16.67779085284235 a40.27383685823345,40.27383685823345 0 0,0 -0.6028633465333403,0.34232154192848946 l -9.37234082542443 -16.841615560565465" fill="#ffcf13" stroke="none" /><path d="M 109.89434966115114 118.52300852407294 l 2.420525409249791 4.531415840730729 a26.137379952704418,26.137379952704418 0 0,0 -0.39866859918918185,0.20856456885416144 l -2.3421659075341137 -4.572409828529607" fill="#ff0000" stroke="none" /><path d="M 109.2508944713604 118.85261126421891 l 5.2314309314952 10.66125378604455 a32.875613747569176,32.875613747569176 0 0,0 -0.5101783834309613,0.24491662753616522 l -5.047139880064005 -10.749724690080276" fill="#ff6609" stroke="none" /><path d="M 108.59647513512805 119.15986991738527 l 13.347444791511066 29.748856585394446 a53.60596188737272,53.60596188737272 0 0,0 -0.8451345569520726,0.37048215355258496 l -12.83338955990124 -29.974203292241487" fill="#88ff25" stroke="none" /><path d="M 107.93186726928326 119.44442032107085 l 5.602779640826781 13.734824172419433 a35.83362850926705,35.83362850926705 0 0,0 -0.573131456438482,0.2280608346021045 l -5.365527108346432 -13.829231851427606" fill="#ff910d" stroke="none" /><path d="M 107.59598834532513 119.57807347666477 l 3.4315553842007707 8.844569053673514 a30.486937024142012,30.486937024142012 0 0,0 -0.49088291836516873,0.1856099165440714 l -3.278802245075327 -8.902327220324217" fill="#ff4306" stroke="none" /><path d="M 106.91757812671514 119.82793768551818 l 5.8629589020298445 16.80506987167259 a38.79844545118165,38.79844545118165 0 0,0 -0.6324705806154022,0.21456836036649246 l -5.572818588477215 -16.903501218937205" fill="#ffba11" stroke="none" /><path d="M 106.2309692047433 120.05430185196036 l 11.433816185999019 36.799604295797614 a59.53495852991799,59.53495852991799 0 0,0 -0.9812637639460366,0.2956467226475444 l -10.798677447612736 -36.990966387550884" fill="#46ff2c" stroke="none" /><path d="M 105.18746579009965 120.34920634021253 l 1.9772027475190903 7.75610063057942 a29.004150654283784,29.004150654283784 0 0,0 -0.48484818171425553,0.11916388676770999 l -1.8434012810616236 -7.7889857756611605" fill="#ff2c04" stroke="none" /><path d="M 104.48393922423573 120.51570834832081 l 3.165856516567884 14.48498423339091 a35.82691524643877,35.82691524643877 0 0,0 -0.6036127868969542,0.1264929283114539 l -2.9160522682415517 -14.537333142428905" fill="#ff910d" stroke="none" /><path d="M 104.13013068566511 120.58985236759428 l 3.06183506232859 15.264100994692189 a36.56816023572046,36.56816023572046 0 0,0 -0.6182324361529515,0.1184857177943125 l -2.7986350116039342 -15.314543910834969" fill="#ff9b0e" stroke="none" /><path d="M 103.7750983002368 120.6578951692458 l 6.040785821537862 33.056071740798785 a54.6034964293082,54.6034964293082 0 0,0 -0.9260519721200173,0.16100600555361558 l -5.470884877945795 -33.15515632487341" fill="#7dff26" stroke="none" /><path d="M 101.62511606390274 120.93702456842531 l 2.549773099490257 32.84975345067581 a53.94856058508583,53.94856058508583 0 0,0 -0.9264695213979032,0.06389476251021772 l -1.9839408173134234 -32.888776557702315" fill="#84ff25" stroke="none" /><line stroke="#e1ed5e" stroke-width="0.3" x1="102.19456741930631" x2="102.32365962044197" y1="184.97166512339345" y2="189.96999836594603" /><path d="M 102.22038585953345 185.97133177190398 a86.0,86.0 0 0,1 -42.740103519485714,-10.115201625700543" fill="none" id="id67" stroke="none" /><text fill="#e1ed5e" style="font-size:6.75px; font-family:Arial;" text-anchor="middle"><textPath startOffset="22.20632615414155" xlink:href="#id67">July</textPath></text><path d="M 99.09653310690486 120.98055641714683 l -0.5626727790440622 13.066541868162984 a34.07865119378651,34.07865119378651 0 0,0 -0.5858476044443729,-0.030281629359979783 l 0.7875084519019241 -13.054920432040802" fill="#ff780b" stroke="none" /><path d="M 96.58105272829116 120.7198165907248 l -5.153813674647298 31.233612452902207 a52.655968509130616,52.655968509130616 0 0,0 -0.8930227306029628,-0.1552634485446906 l 5.6906853767223105 -31.140270425836512" fill="#93ff23" stroke="none" /><path d="M 94.81253420990036 120.34920634021253 l -3.664916160385848 14.37660279314123 a35.836384948309124,35.836384948309124 0 0,0 -0.5964361445009778,-0.1575242066864691 l 3.911842747698315 -14.311387237151179" fill="#ff910d" stroke="none" /><path d="M 94.11515582081647 120.15858648285463 l -8.772088807648984 30.04886883662687 a52.30309985305107,52.30309985305107 0 0,0 -0.8620672273091274,-0.25973378394294333 l 9.288031009398356 -29.893419683578202" fill="#97ff23" stroke="none" /><line stroke="#e1ed5e" stroke-width="0.3" x1="58.666819895761336" x2="56.23545636021788" y1="174.27360380694188" y2="178.64263932499728" /><path d="M 58.180547188652646 175.14741091055294 a86.0,86.0 0 0,1 -31.652253787137756,-30.449443065178592" fill="none" id="id68" stroke="none" /><text fill="#e1ed5e" style="font-size:6.75px; font-family:Arial;" text-anchor="middle"><textPath startOffset="22.20632615414155" xlink:href="#id68">August</textPath></text><path d="M 89.4739219176387 118.17145234162733 l -7.9216770100067055 13.675404564433 a36.80410252598305,36.80410252598305 0 0,0 -0.5454580563834002,-0.3222662341869039 l 8.155902937418487 -13.537019757952347" fill="#ff9f0e" stroke="none" /><path d="M 89.1626897886671 117.98757091392108 l -18.220005798894558 30.241235137566523 a56.30581983125926,56.30581983125926 0 0,0 -0.825874460613893,-0.5073195474646512 l 18.73785945944076 -29.923127123273492" fill="#69ff28" stroke="none" /><path d="M 87.07902340077011 116.55440617244103 l -15.055434299745901 19.289081795516047 a45.46905757212717,45.46905757212717 0 0,0 -0.6128417170949366,-0.48687852429141015 l 15.385233509558196 -19.027069357219506" fill="#ebff1a" stroke="none" /><path d="M 86.51685102203217 116.09983520530335 l -7.6766408583128705 9.16645310016914 a32.95636555585011,32.95636555585011 0 0,0 -0.43178256814100613,-0.36797447189253685 l 7.833288903030933 -9.032954238053652" fill="#ff6709" stroke="none" /><line stroke="#e1ed5e" stroke-width="0.3" x1="26.63291911575756" x2="22.317208475507996" y1="142.92168965132927" y2="145.44649492493687" /><path d="M 25.769776987707644 143.4266507060508 a86.0,86.0 0 0,1 -11.730757126820373,-40.83630448921669" fill="none" id="id69" stroke="none" /><text fill="#e1ed5e" style="font-size:6.75px; font-family:Arial;" text-anchor="middle"><textPath startOffset="21.46611528233685" xlink:href="#id69">September</textPath></text><line stroke="#e1ed5e" stroke-width="0.3" x1="15.007084014347285" x2="10.007500721073583" y1="101.09737516637583" y2="101.16192664675087" /><path d="M 14.007167355692545 101.11028546245083 a86.0,86.0 0 0,1 10.666146001902534,-42.60595125391555" fill="none" id="id70" stroke="none" /><text fill="#e1ed5e" style="font-size:6.75px; font-family:Arial;" text-anchor="middle"><textPath startOffset="22.20632615414155" xlink:href="#id70">October</textPath></text><line stroke="#e1ed5e" stroke-width="0.3" x1="26.266209847984243" x2="21.928928074336255" y1="57.711370442889674" y2="55.22380399835377" /><path d="M 25.398753493254645 57.213857153982495 a86.0,86.0 0 0,1 29.58750427330803,-30.492523968695096" fill="none" id="id71" stroke="none" /><text fill="#e1ed5e" style="font-size:6.75px; font-family:Arial;" text-anchor="middle"><textPath startOffset="21.46611528233685" xlink:href="#id71">November</textPath></text><line stroke="#e1ed5e" stroke-width="0.3" x1="56.762969772571076" x2="54.21961505331055" y1="26.818313649435495" y2="22.513508569990535" /><path d="M 56.25429882871897 25.957352633546506 a86.0,86.0 0 0,1 42.265352541879196,-11.944610805530505" fill="none" id="id72" stroke="none" /><text fill="#e1ed5e" style="font-size:6.75px; font-family:Arial;" text-anchor="middle"><textPath startOffset="22.20632615414155" xlink:href="#id72">December</textPath></text></svg>