<?xml version="1.0" encoding="utf-8" ?>
<svg baseProfile="full" height="200mm" version="1.1" viewBox="0,0,200,200" width="200mm" xmlns="http://www.w3.org/2000/svg" xmlns:ev="http://www.w3.org/2001/xml-events" xmlns:xlink="http://www.w3.org/1999/xlink"><defs /><rect fill="#1a1a1a" height="200" width="200" x="0" y="0" /><text alignment-baseline="middle" fill="#e1ed5e" style="dominant-baseline: central; font-size:9.0px; font-family:Arial;" text-anchor="middle" x="100.0" y="100.0">2022</text><line stroke="#e1ed5e" stroke-width="0.3" x1="100.0" x2="100.0" y1="15.0" y2="10.0" /><path d="M 100.0 14.0 a86.0,86.0 0 0,1 42.46469731375804,11.215312516191453" fill="none" id="id25" stroke="none" /><text fill="#e1ed5e" style="font-size:6.75px; font-family:Arial;" text-anchor="middle"><textPath startOffset="22.20632615414155" xlink:href="#id25">January</textPath></text><path d="M 100.0 79.0 l 0.0 -28.229420048649338 a49.22942004864934,49.22942004864934 0 0,0 0.8474035406425895,0.007293869809156504 l -0.48592306137006114 28.22523755544874" fill="#d9ff1c" stroke="none" /><path d="M 100.72285384407766 79.0124445844662 l 0.978700303293366 -28.415878284189443 a49.43272749747262,49.43272749747262 0 0,0 0.8501467959862958,0.03660910936645959 l -1.4676879316689935 28.39482144829879" fill="#d6ff1c" stroke="none" /><path d="M 102.16513564639614 79.11191278185805 l 2.875747160800311 -27.74369246199681 a48.89233574225561,48.89233574225561 0 0,0 0.8363692829428461,0.09397583403959105 l -3.352883147252882 27.69008067448662" fill="#deff1b" stroke="none" /><line stroke="#e1ed5e" stroke-width="0.3" x1="143.23703022742887" x2="145.7803849466894" y1="26.81831364943548" y2="22.513508569990506" /><path d="M 143.74570117128098 25.957352633546492 a86.0,86.0 0 0,1 28.547481713284135,27.462654790039103" fill="none" id="id26" stroke="none" /><text fill="#e1ed5e" style="font-size:6.75px; font-family:Arial;" text-anchor="middle"><textPath startOffset="19.985693538727396" xlink:href="#id26">February</textPath></text><path d="M 111.60114157652 82.49532879139004 l 15.377214084507509 -23.202292194976728 a48.83532065742829,48.83532065742829 0 0,0 0.696706324576988,0.47041922038440104 l -15.774325103491039 22.934161062293658" fill="#deff1b" stroke="none" /><path d="M 113.34407831869373 83.78471172551755 l 17.72033324715058 -21.533170374150693 a48.88705141732039,48.88705141732039 0 0,0 0.6451751352667832,0.5403156215423288 l -18.088365919376482 21.224953595214544" fill="#deff1b" stroke="none" /><path d="M 113.89432698308785 84.25364557470405 l 18.437789510696053 -20.895432273028458 a48.86702660703959,48.86702660703959 0 0,0 0.625937772673717,0.5619731125760615 l -18.79473827096576 20.5749601516831" fill="#deff1b" stroke="none" /><path d="M 114.16331599549186 84.49514656593476 l 18.815934568505796 -20.598164144788083 a48.89845443428587,48.89845443428587 0 0,0 0.6165678680388482,0.5730326373483767 l -19.167710320339488 20.271226921365066" fill="#deff1b" stroke="none" /><path d="M 114.94478906791727 85.2469230424477 l 12.689931612365156 -12.52714486718343 a38.831537310335996,38.831537310335996 0 0,0 0.4654897922075059,0.4797281485777466 l -12.90368566827577 12.306852523055566" fill="#ff900d" stroke="none" /><path d="M 116.38621287248628 86.86637796730983 l 21.7445252431519 -17.428333077703734 a48.86702660703959,48.86702660703959 0 0,0 0.5204243378176472,0.660886059109452 l -22.041303661563514 17.051454624641245" fill="#deff1b" stroke="none" /><path d="M 116.82858285166822 87.43820079747576 l 22.36676524369916 -16.695809521090776 a48.910969940711375,48.910969940711375 0 0,0 0.4978144254548612,0.6790183168653343 l -22.650842281667646 16.308328760553948" fill="#ddff1b" stroke="none" /><path d="M 117.45458315368197 88.32363383020206 l 23.17150064553904 -15.500738336678635 a48.87815150164004,48.87815150164004 0 0,0 0.46178998644811803,0.703337830950388 l -23.434887267345083 15.099582441750572" fill="#deff1b" stroke="none" /><line stroke="#e1ed5e" stroke-width="0.3" x1="172.23445277983987" x2="176.4835382374775" y1="55.19839476539836" y2="52.563006222186495" /><path d="M 173.08426987136738 54.67131705675599 a86.0,86.0 0 0,1 12.851231095245387,41.99856678651699" fill="none" id="id27" stroke="none" /><text fill="#e1ed5e" style="font-size:6.75px; font-family:Arial;" text-anchor="middle"><textPath startOffset="22.20632615414155" xlink:href="#id27">March</textPath></text><path d="M 117.84615892207809 88.93136811851018 l 23.68565715094377 -14.690434004296398 a48.87147656487976,48.87147656487976 0 0,0 0.4372465886174261,0.7187184254376071 l -23.935019537847417 14.28054780565171" fill="#deff1b" stroke="none" /><path d="M 118.03404312379186 89.2402003453031 l 23.942901306128476 -14.285250369965592 a48.88065460292514,48.88065460292514 0 0,0 0.4248900287295928,0.7262747892252845 l -24.185251009328397 13.870996168386412" fill="#deff1b" stroke="none" /><path d="M 118.89224826269711 90.83032412892265 l 25.0737904930898 -12.169993136015995 a48.87119844251475,48.87119844251475 0 0,0 0.36081327979263994,0.7599647861018763 l -25.279561966724195 11.73658593427358" fill="#deff1b" stroke="none" /><path d="M 119.04729006885535 91.15688171328212 l 25.2987337895545 -11.745486869600732 a48.89233574225561,48.89233574225561 0 0,0 0.3478286513401488,0.7663943267931007 l -25.497164757858 11.308270533965569" fill="#deff1b" stroke="none" /><path d="M 119.34039704204932 91.81776055985345 l 25.691370221234287 -10.869112057966072 a48.89595133300077,48.89595133300077 0 0,0 0.32126575633438254,0.7779705115349175 l -25.874657664454865 10.425266975977852" fill="#deff1b" stroke="none" /><path d="M 119.61058180528143 92.48833698450437 l 58.30347286397964 -22.332638834272675 a83.43429910956696,83.43429910956696 0 0,0 0.5021767890015333,1.345584127932592 l -58.6792542414828 21.32573156931075" fill="#4cd8ff" stroke="none" /><path d="M 119.97218684219823 93.5106431181261 l 42.734249748041606 -13.885199446874834 a65.93344929122944,65.93344929122944 0 0,0 0.34142385936515496,1.082406936670642 l -42.96692909117496 13.147542343777772" fill="#33ff56" stroke="none" /><path d="M 120.91429891909075 98.10471618934814 l 27.826148836237017 -2.5216455787561256 a48.94017278903756,48.94017278903756 0 0,0 0.06880875540759292,0.8396411021589185 l -27.865432075464103 2.0422905593894383" fill="#ddff1b" stroke="none" /><path d="M 120.96714384426684 98.82574320788733 l 28.185808269691822 -1.5785353049371587 a49.229976293379366,49.229976293379366 0 0,0 0.04010225053001088,0.8464951267024909 l -28.20880412845533 1.093129071611668" fill="#d9ff1c" stroke="none" /><line stroke="#e1ed5e" stroke-width="0.3" x1="184.98032266829074" x2="189.97916517819016" y1="98.17113171792111" y2="98.06355123074" /><path d="M 185.9800911702706 98.14961562048488 a86.0,86.0 0 0,1 -9.607161424134198,41.387399972396054" fill="none" id="id28" stroke="none" /><text fill="#e1ed5e" style="font-size:6.75px; font-family:Arial;" text-anchor="middle"><textPath startOffset="21.466115282336823" xlink:href="#id28">April</textPath></text><path d="M 120.99513854157772 99.54816195383933 l 28.08329988772154 -0.6043829301665875 a49.089802621413654,49.089802621413654 0 0,0 0.010909607591756475,0.8449611307909278 l -28.089542502431012 0.12088554131519687" fill="#dbff1b" stroke="none" /><path d="M 120.99824983174949 100.27111621757518 l 44.56094495658928 0.5753429426265643 a65.56465903522442,65.56465903522442 0 0,0 -0.024283705145468338,1.1283683571227985 l -44.5444391887588 -1.3423011155394777" fill="#33ff51" stroke="none" /><path d="M 120.95626037817324 101.35467743843564 l 27.82674683063266 1.798806916704503 a48.88482643840031,48.88482643840031 0 0,0 -0.06150977826662406,0.839252054701725 l -27.791660493701702 -2.2775321079029984" fill="#deff1b" stroke="none" /><path d="M 120.8583938346157 102.4346265915055 l 62.575181503847105 7.303879774516526 a84.0,84.0 0 0,0 -0.1799939630126075,1.4347289828504204 l -62.44018603158764 -8.379926511654341" fill="#4dd2ff" stroke="none" /><path d="M 120.76222939487914 103.15116336523771 l 18.56922527380375 2.8183226998777244 a39.78188143157969,39.78188143157969 0 0,0 -0.10858226913644684,0.6761418935625243 l -18.517961250306016 -3.137543823133454" fill="#ff9f0e" stroke="none" /><path d="M 120.70491114924044 103.5080841355445 l 36.522593459718614 6.1881130414645815 a58.04311779585818,58.04311779585818 0 0,0 -0.17538296770822615,0.9836408225013797 l -36.4106640496712 -6.815872614699179" fill="#6aff28" stroke="none" /><path d="M 120.64145759157962 103.86396538481128 l 27.395067610793618 5.128203398090094 a48.87092032014975,48.87092032014975 0 0,0 -0.16190253343875222,0.8255375299585408 l -27.302735144379202 -5.59900465511658" fill="#deff1b" stroke="none" /><path d="M 120.41448212921028 104.9243191809786 l 32.509296072714086 7.841793350315622 a54.441711291326556,54.441711291326556 0 0,0 -0.2275888705615859,0.9091044059729843 l -32.36949588785744 -8.400225595686003" fill="#96ff23" stroke="none" /><path d="M 120.32669344350535 105.2749913415812 l 35.367633592160196 9.1782739523959 a57.53916007045766,57.53916007045766 0 0,0 -0.25704091866133494,0.95654487990763 l -35.20440459715709 -9.785709765479078" fill="#70ff27" stroke="none" /><path d="M 120.13307415673323 105.97154293290107 l 26.749945022957775 7.934130869125793 a48.901791902666005,48.901791902666005 0 0,0 -0.24630954094183094,0.8049538311725646 l -26.60940870950981 -8.393411672850414" fill="#deff1b" stroke="none" /><path d="M 119.12269723197855 108.67885076344098 l 25.42548231993813 11.539374595872275 a48.921538590581804,48.921538590581804 0 0,0 -0.354623807463633,0.7638281324617169 l -25.223083895634666 -11.975322795612822" fill="#ddff1b" stroke="none" /><line stroke="#e1ed5e" stroke-width="0.3" x1="174.80103733775053" x2="179.2010983576182" y1="140.37084112569926" y2="142.7455964860345" /><path d="M 175.68104954172406 140.8457921977663 a86.0,86.0 0 0,1 -30.038265399797805,32.042727171017184" fill="none" id="id29" stroke="none" /><text fill="#e1ed5e" style="font-size:6.75px; font-family:Arial;" text-anchor="middle"><textPath startOffset="22.206326154141568" xlink:href="#id29">May</textPath></text><path d="M 118.48025628344425 109.97397251340804 l 38.39752771430035 20.723515958398742 a64.63294911243648,64.63294911243648 0 0,0 -0.5368338596156756,0.9745093891377051 l -38.03511744523317 -21.381395865934252" fill="#31ff44" stroke="none" /><path d="M 117.94076556474637 110.91462005526583 l 25.304337080096516 15.394394625073103 a50.61919750661093,50.61919750661093 0 0,0 -0.4592736684114604,0.740495389398895 l -25.035598772017092 -15.82768634583727" fill="#c7ff1e" stroke="none" /><path d="M 117.35343817320211 111.8261652097733 l 24.62372735898807 16.780782281951318 a50.7980301873132,50.7980301873132 0 0,0 -0.49864094575062684,0.718329472752867 l -24.331225506075306 -17.202153016891206" fill="#c4ff1e" stroke="none" /><path d="M 116.71984013943494 112.70617746262583 l 22.17041989325882 16.848324340151073 a48.84588930729873,48.84588930729873 0 0,0 -0.5144941772235868,0.6650530785745178 l -21.877118898817166 -17.227455412838843" fill="#deff1b" stroke="none" /><path d="M 115.80600337817218 113.82643327865902 l 22.125920638833804 19.354833611146393 a50.39669961460187,50.39669961460187 0 0,0 -0.5767809885381219,0.6480195550358583 l -21.789480800647343 -19.732827335923115" fill="#caff1d" stroke="none" /><path d="M 115.32070863581623 114.36230785411682 l 26.66228999991425 24.99440634092494 a57.54583500721794,57.54583500721794 0 0,0 -0.6836813728441864,0.716837186105021 l -26.228102075691098 -25.44965064361247" fill="#70ff27" stroke="none" /><path d="M 114.81725581225074 114.88116024355365 l 25.785357244444686 25.896565325855168 a57.54472251775788,57.54472251775788 0 0,0 -0.7079372287135455,0.6928655793316302 l -25.335770063355344 -26.33658100810937" fill="#70ff27" stroke="none" /><path d="M 114.29624159901734 115.38237550388516 l 24.870912476067623 26.76043995069521 a57.53331950079243,57.53331950079243 0 0,0 -0.7312223283537315,0.6679542598370666 l -24.40659059824703 -27.184586977118858" fill="#70ff27" stroke="none" /><path d="M 113.75828350139079 115.86535959552629 l 38.49062615343908 44.38545149324397 a79.75029026262698,79.75029026262698 0 0,0 -1.0448599097261915,0.890452282820307 l -37.720900767135845 -45.041428166287226" fill="#47ffff" stroke="none" /><line stroke="#e1ed5e" stroke-width="0.3" x1="143.8653032363475" x2="146.44561519142675" y1="172.8068346515853" y2="177.08958963109032" /><path d="M 144.38136562736335 173.6633856474863 a86.0,86.0 0 0,1 -40.68145358897372,12.25698825130547" fill="none" id="id30" stroke="none" /><text fill="#e1ed5e" style="font-size:6.75px; font-family:Arial;" text-anchor="middle"><textPath startOffset="21.466115282336833" xlink:href="#id30">June</textPath></text><path d="M 110.21172684928248 118.3499491758327 l 14.044477324956267 25.237205118954996 a49.88189511696591,49.88189511696591 0 0,0 -0.7538750290897915,0.4110727741871241 l -13.607979483997827 -25.475218544901892" fill="#d0ff1d" stroke="none" /><path d="M 107.59598834532513 119.57807347666477 l 10.5130726789123 27.096633119498566 a50.06462151077834,50.06462151077834 0 0,0 -0.8061114009123751,0.3048023556143914 l -10.045091057239649 -27.273583725219588" fill="#ceff1d" stroke="none" /><path d="M 106.91757812671514 119.82793768551818 l 9.525301601648067 27.30248695910708 a49.916382290227304,49.916382290227304 0 0,0 -0.8137089752486184,0.27605426400182986 l -9.053922893462222 -27.46240421000703" fill="#d0ff1d" stroke="none" /><path d="M 106.2309692047433 120.05430185196036 l 8.648024873590463 27.833567385667923 a50.14611136372666,50.14611136372666 0 0,0 -0.8265154322615319,0.24902231973092454 l -8.167634466888686 -27.978305074504572" fill="#cdff1d" stroke="none" /><path d="M 104.13013068566511 120.58985236759428 l 5.475382837224387 27.296309210214414 a48.84004873763348,48.84004873763348 0 0,0 -0.8257047146550587,0.15824827375742592 l -5.004710507997625 -27.386514682320307" fill="#deff1b" stroke="none" /><line stroke="#e1ed5e" stroke-width="0.3" x1="102.19456741930631" x2="102.32365962044197" y1="184.97166512339345" y2="189.96999836594603" /><path d="M 102.22038585953345 185.97133177190398 a86.0,86.0 0 0,1 -42.740103519485714,-10.115201625700543" fill="none" id="id31" stroke="none" /><text fill="#e1ed5e" style="font-size:6.75px; font-family:Arial;" text-anchor="middle"><textPath startOffset="22.20632615414155" xlink:href="#id31">July</textPath></text><path d="M 99.81925306533755 120.99922214144158 l -0.15385660008510807 17.875096632470665 a38.8757587663728,38.8757587663728 0 0,0 -0.669107919246458,-0.011519299629222036 l 0.46152420922423393 -17.869799855562285" fill="#ff910d" stroke="none" /><path d="M 97.65516085044442 120.86867818915974 l -1.985679259511125 17.67221494125962 a38.783422141189035,38.783422141189035 0 0,0 -0.6627765069854434,-0.08025300492223707 l 2.2895831895479577 -17.635416407612034" fill="#ff8f0d" stroke="none" /><path d="M 97.2962882734958 120.8252237178851 l -3.5855371908322624 27.617446570172756 a48.84922677567886,48.84922677567886 0 0,0 -0.8329291167143478,-0.11543638590920677 l 4.060394898733441 -27.55163561877094" fill="#deff1b" stroke="none" /><path d="M 96.93821686468263 120.77559828337769 l -4.0627467997463595 27.5675943423275 a48.865357872849515,48.865357872849515 0 0,0 -0.831093016386526,-0.1297996368684275 l 4.5366756797414025 -27.493576398111966" fill="#deff1b" stroke="none" /><path d="M 94.81253420990036 120.34920634021253 l -2.1720261561370147 8.520346970176709 a29.792838569832995,29.792838569832995 0 0,0 -0.4958515150443387,-0.13095889184749973 l 2.3183681139928427 -8.481696729025627" fill="#ff0000" stroke="none" /><path d="M 94.11515582081647 120.15858648285463 l -7.802415039507466 26.727242652473887 a48.8428299612836,48.8428299612836 0 0,0 -0.8050345604171434,-0.24255030925448895 l 8.261324574364854 -26.58897697411367" fill="#deff1b" stroke="none" /><line stroke="#e1ed5e" stroke-width="0.3" x1="58.666819895761336" x2="56.23545636021788" y1="174.27360380694188" y2="178.64263932499728" /><path d="M 58.180547188652646 175.14741091055294 a86.0,86.0 0 0,1 -31.652253787137756,-30.449443065178592" fill="none" id="id32" stroke="none" /><text fill="#e1ed5e" style="font-size:6.75px; font-family:Arial;" text-anchor="middle"><textPath startOffset="22.20632615414155" xlink:href="#id32">August</textPath></text><path d="M 84.43433777217949 114.09645910891817 l -20.646789030039 18.69799132427642 a48.8550673453441,48.8550673453441 0 0,0 -0.5591372898232335,-0.6281966724901153 l 20.96558516951057 -18.339820482045436" fill="#deff1b" stroke="none" /><line stroke="#e1ed5e" stroke-width="0.3" x1="26.63291911575756" x2="22.317208475507996" y1="142.92168965132927" y2="145.44649492493687" /><path d="M 25.769776987707644 143.4266507060508 a86.0,86.0 0 0,1 -11.730757126820373,-40.83630448921669" fill="none" id="id33" stroke="none" /><text fill="#e1ed5e" style="font-size:6.75px; font-family:Arial;" text-anchor="middle"><textPath startOffset="21.46611528233685" xlink:href="#id33">September</textPath></text><path d="M 81.51974371655577 109.97397251340807 l -31.842359661649294 17.185628551691956 a57.183997810338205,57.183997810338205 0 0,0 -0.4600520476062022,-0.8702450989300918 l 32.13346421748038 -16.634968437675738" fill="#74ff27" stroke="none" /><path d="M 80.45479744820244 107.68017299344265 l -16.59727392248981 6.521801685424482 a38.832649799796044,38.832649799796044 0 0,0 -0.23910875036454818,-0.6242374957062969 l 16.70707695244787 -6.235140622885027" fill="#ff900d" stroke="none" /><path d="M 79.67330655649465 105.27499134158121 l -26.99723800628557 7.006068012270119 a48.89150137516058,48.89150137516058 0 0,0 -0.2043866975174558,-0.8164232582063309 l 27.113836018098088 -6.540316914666397" fill="#deff1b" stroke="none" /><line stroke="#e1ed5e" stroke-width="0.3" x1="15.007084014347285" x2="10.007500721073583" y1="101.09737516637583" y2="101.16192664675087" /><path d="M 14.007167355692545 101.11028546245083 a86.0,86.0 0 0,1 10.666146001902534,-42.60595125391555" fill="none" id="id34" stroke="none" /><text fill="#e1ed5e" style="font-size:6.75px; font-family:Arial;" text-anchor="middle"><textPath startOffset="22.20632615414155" xlink:href="#id34">October</textPath></text><path d="M 79.26566170972629 96.67025291283419 l -27.507902686550644 -4.417520229596556 a48.86035167027931,48.86035167027931 0 0,0 0.14050408013502044,-0.829263034436858 l 27.4277867448954 4.890369052349241" fill="#deff1b" stroke="none" /><path d="M 79.32604984820605 96.31383870115002 l -18.233442172070518 -3.2510191998152504 a39.52100265319907,39.52100265319907 0 0,0 0.12517670865876068,-0.66869898301626 l 18.174779739501894 3.5643962602940835" fill="#ff9b0e" stroke="none" /><path d="M 79.91906864156998 93.8553929516997 l -26.613379717905346 -8.143484865062488 a48.83142694431813,48.83142694431813 0 0,0 0.25286428095086527,-0.8016488720102084 l 26.469259953186274 8.600383903499111" fill="#dfff1b" stroke="none" /><path d="M 80.14247586403 93.16781622104843 l -13.17350740769922 -4.532479628703946 a34.93142738578221,34.93142738578221 0 0,0 0.20051790258437588,-0.5668911126371932 l 13.093536424305034 4.75856836776775" fill="#ff5407" stroke="none" /><line stroke="#e1ed5e" stroke-width="0.3" x1="26.266209847984257" x2="21.92892807433627" y1="57.711370442889674" y2="55.22380399835377" /><path d="M 25.39875349325466 57.213857153982495 a86.0,86.0 0 0,1 29.58750427330802,-30.492523968695096" fill="none" id="id35" stroke="none" /><text fill="#e1ed5e" style="font-size:6.75px; font-family:Arial;" text-anchor="middle"><textPath startOffset="21.46611528233685" xlink:href="#id35">November</textPath></text><path d="M 85.31137513191541 84.99185889309783 l -18.204974758034766 -18.600980858993548 a47.02724716248969,47.02724716248969 0 0,0 0.5833993282194515,-0.5612296915204297 l 17.882092186202886 18.91159363727629" fill="#f7ff18" stroke="none" /><path d="M 85.57189188830299 84.74124197986013 l -13.754279621752938 -14.546136116038841 a41.01924783351507,41.01924783351507 0 0,0 0.517217782808558,-0.4806975606902623 l 13.501853955149523 14.780738262803752" fill="#ffb110" stroke="none" /><path d="M 86.10567301691215 84.25364557470407 l -13.084413936126257 -14.828485002282383 a40.77589076413016,40.77589076413016 0 0,0 0.5302927920659857,-0.4598646836876739 l 12.827227345413498 15.051514679389738" fill="#ffad10" stroke="none" /><line stroke="#e1ed5e" stroke-width="0.3" x1="56.762969772571076" x2="54.21961505331055" y1="26.818313649435495" y2="22.513508569990535" /><path d="M 56.25429882871897 25.957352633546506 a86.0,86.0 0 0,1 42.265352541879196,-11.944610805530505" fill="none" id="id36" stroke="none" /><text fill="#e1ed5e" style="font-size:6.75px; font-family:Arial;" text-anchor="middle"><textPath startOffset="22.20632615414155" xlink:href="#id36">December</textPath></text><path d="M 91.23893434514133 80.91482961587045 l -4.705864052429638 -10.251289144872729 a32.27980875776424,32.27980875776424 0 0,0 0.506974197180165,-0.22746454433160038 l 4.528707736782699 10.330774019720858" fill="#ff2904" stroke="none" /><path d="M 91.90106846888425 80.62456947434976 l -7.032393503077567 -16.823904637843274 a39.23453661723741,39.23453661723741 0 0,0 0.6253539178578428,-0.2550975647959807 l 6.741755715631344 16.94246308882283" fill="#ff960d" stroke="none" /><path d="M 92.23578459929587 80.48803036053334 l -8.024646131082383 -20.166448713277987 a42.70439124311868,42.70439124311868 0 0,0 0.685338037017683,-0.265900510997629 l 7.676324929065022 20.301591928166165" fill="#ffca12" stroke="none" /><path d="M 96.40284397218896 79.31037775812273 l -6.646129227338186 -38.22628265808163 a59.799738653269706,59.799738653269706 0 0,0 1.0156581075308986,-0.16759229023707425 l 5.987141913668402 38.335021211258336" fill="#55ff2b" stroke="none" /><path d="M 96.75951476605007 79.25152402106235 l -5.33158879959958 -34.13758562424436 a55.551419527721734,55.551419527721734 0 0,0 0.9460433716349996,-0.13942220103804745 l 4.743176447535932 34.224302309443374" fill="#88ff25" stroke="none" /></svg>