<?xml version="1.0" encoding="utf-8" ?>
<svg baseProfile="full" height="200mm" version="1.1" viewBox="0,0,200,200" width="200mm" xmlns="http://www.w3.org/2000/svg" xmlns:ev="http://www.w3.org/2001/xml-events" xmlns:xlink="http://www.w3.org/1999/xlink"><defs /><rect fill="#1a1a1a" height="200" width="200" x="0" y="0" /><text alignment-baseline="middle" fill="#e1ed5e" style="dominant-baseline: central; font-size:9.0px; font-family:Arial;" text-anchor="middle" x="100.0" y="100.0">2024</text><line stroke="#e1ed5e" stroke-width="0.3" x1="100.0" x2="100.0" y1="15.0" y2="10.0" /><path d="M 100.0 14.0 a86.0,86.0 0 0,1 42.35913384403234,11.155469271406648" fill="none" id="id49" stroke="none" /><text fill="#e1ed5e" style="font-size:6.75px; font-family:Arial;" text-anchor="middle"><textPath startOffset="22.145653131862478" xlink:href="#id49">January</textPath></text><path d="M 100.0 79.0 l 0.0 -11.531630652539555 a32.531630652539555,32.531630652539555 0 0,0 0.5584486992398401,0.004793610435868657 l -0.19795577439098533 11.529931440298121" fill="#ff820c" stroke="none" /><path d="M 100.36049292484886 79.00309439819443 l 0.39083684898389914 -22.764287058512398 a43.76764192280085,43.76764192280085 0 0,0 0.7511083534998421,0.019345886821402522 l -0.7815585165544825 22.754223454340952" fill="#eaff1a" stroke="none" /><path d="M 101.08105385017728 79.02784411241856 l 0.5951743286653556 -11.546222974007804 a32.561552553485534,32.561552553485534 0 0,0 0.5579742185574957,0.033566343416205714 l -0.7932928993553137 11.534304652766906" fill="#ff830c" stroke="none" /><path d="M 102.15924093988457 79.11130261209362 l 1.3930635212202147 -13.476625882452923 a34.54843426930782,34.54843426930782 0 0,0 0.5894030311713193,0.0660438390198223 l -1.6242024539923308 13.45072628292613" fill="#ff9e0e" stroke="none" /><path d="M 102.87502721639298 79.19773525538626 l 1.3330531258421967 -9.645308358922282 a30.736991525877677,30.736991525877677 0 0,0 0.5220530098299997,0.07672381456227878 l -1.4984312412798786 9.62100347106112" fill="#ff6909" stroke="none" /><path d="M 103.58742460773223 79.30868818359171 l 2.884029118293115 -16.634313553400844 a37.88247645779545,37.88247645779545 0 0,0 0.6397904098404732,0.11659112521282664 l -3.169154261684642 16.58235425425665" fill="#ffca12" stroke="none" /><path d="M 104.9986988182912 79.60360301121754 l 2.7292478913769838 -11.136262754944708 a32.4658249681283,32.4658249681283 0 0,0 0.5401613045207074,0.13730689132481397 l -2.9200144891230857 11.087770631784625" fill="#ff810b" stroke="none" /><path d="M 107.06938296918511 80.22567764915836 l 6.138138708886001 -17.16946641492841 a39.23368651103993,39.23368651103993 0 0,0 0.6322431017112927,0.232168424427852 l -6.431970962251419 17.06156714149184" fill="#ffdb14" stroke="none" /><line stroke="#e1ed5e" stroke-width="0.3" x1="143.13028292997686" x2="145.6673583964461" y1="26.7553504044142" y2="22.446841604673864" /><path d="M 143.63769802327073 25.89364864446614 a86.0,86.0 0 0,1 29.32050498858742,28.57503671076993" fill="none" id="id50" stroke="none" /><text fill="#e1ed5e" style="font-size:6.75px; font-family:Arial;" text-anchor="middle"><textPath startOffset="20.669276256404974" xlink:href="#id50">February</textPath></text><line stroke="#e1ed5e" stroke-width="0.3" x1="172.87174338648825" x2="177.1583165268699" y1="56.24261187166439" y2="53.66864786411523" /><path d="M 173.72905801456457 55.72781907015455 a86.0,86.0 0 0,1 12.242430191666344,42.057860355516425" fill="none" id="id51" stroke="none" /><text fill="#e1ed5e" style="font-size:6.75px; font-family:Arial;" text-anchor="middle"><textPath startOffset="22.145653131862474" xlink:href="#id51">March</textPath></text><path d="M 118.36410011445183 89.81374322990088 l 12.798288277593157 -7.098994767008485 a35.63529670141307,35.63529670141307 0 0,0 0.29213247833263567,0.5374908565652858 l -12.918266105541134 6.878249076968596" fill="#ffac0f" stroke="none" /><path d="M 118.70294669586156 90.45014215332178 l 7.514700238421087 -3.8370594860969054 a29.43763860171625,29.43763860171625 0 0,0 0.22594100688886412,0.4520333656579906 l -7.5794611585216884 3.707494264275166" fill="#ff5708" stroke="none" /><path d="M 119.0197475246899 91.09779779509293 l 10.532554764952733 -4.929767449865005 a32.62915805148752,32.62915805148752 0 0,0 0.23308955268680992,0.5093427385874313 l -10.615628782494596 4.748235729062889" fill="#ff840c" stroke="none" /><path d="M 119.4528033332814 92.08871423366111 l 22.00707397011933 -8.950085397753481 a44.757426909355814,44.757426909355814 0 0,0 0.28333864944936193,0.7141984871173016 l -22.157471294534815 8.570985893422614" fill="#deff1b" stroke="none" /><path d="M 119.83427380445688 93.10060997987247 l 10.638427651713988 -3.7005973747116 a32.26368340421885,32.26368340421885 0 0,0 0.17747265652195357,0.5246663741826914 l -10.700385729808307 3.517429326054747" fill="#ff7f0b" stroke="none" /><path d="M 119.94978838288452 93.4421083053983 l 10.693973961904051 -3.5153216505907254 a32.25693410325359,32.25693410325359 0 0,0 0.16840467326497588,0.5275252404396968 l -10.752743350946284 3.331227376459642" fill="#ff7f0b" stroke="none" /><path d="M 120.05942366710727 93.78553927170692 l 10.781862319769797 -3.340248507435545 a32.28741844594667,32.28741844594667 0 0,0 0.1594747551807787,0.5308395936436489 l -10.837613394954204 3.1546713102011728" fill="#ff7f0b" stroke="none" /><path d="M 120.35273937422433 94.82641323984039 l 14.66782676873207 -3.728504206521294 a36.134295019444416,36.134295019444416 0 0,0 0.14765586824802784,0.6024863301405328 l -14.729670163496388 3.476162051772666" fill="#ffb310" stroke="none" /><path d="M 120.43855184770803 95.1765574152323 l 7.871457960139013 -1.857642645723988 a29.087687346667664,29.087687346667664 0 0,0 0.11051816727002768,0.48696343696212263 l -7.902186988966707 1.7222448748228392" fill="#ff5207" stroke="none" /><path d="M 120.592083275326 95.88100663000786 l 31.99601133413131 -6.400098367385497 a53.629832981584045,53.629832981584045 0 0,0 0.17282522105487905,0.9042945855462219 l -32.101162847468345 5.84990121680596" fill="#78ff26" stroke="none" /><path d="M 120.86939407059847 97.66154086499901 l 7.991442175229382 -0.8954577642877093 a29.041454635055654,29.041454635055654 0 0,0 0.0512617734368449,0.4959111570693504 l -8.005636341147893 0.7581420849354276" fill="#ff5207" stroke="none" /><line stroke="#e1ed5e" stroke-width="0.3" x1="184.99686870605535" x2="189.99668451229388" y1="99.2704041080226" y2="99.22748670261217" /><path d="M 185.99683186730306 99.26182062694052 a86.0,86.0 0 0,1 -10.086455211305974,41.156179273409016" fill="none" id="id52" stroke="none" /><text fill="#e1ed5e" style="font-size:6.75px; font-family:Arial;" text-anchor="middle"><textPath startOffset="21.40746469413373" xlink:href="#id52">April</textPath></text><path d="M 120.93736805541906 101.62068470465957 l 11.89538050753654 0.9207776829275498 a32.93096429298394,32.93096429298394 0 0,0 -0.04846556225553272,0.5632432982696951 l -11.877821322583266 -1.1248420285729022" fill="#ff880c" stroke="none" /><path d="M 120.9064616781168 101.97986365728391 l 11.872221957425163 1.1243117628707917 a32.92533987551289,32.92533987551289 0 0,0 -0.05811731313872675,0.5622322848407806 l -11.85117225180477 -1.3279485699945037" fill="#ff880c" stroke="none" /><path d="M 120.77682067341334 103.0534771498775 l 11.79993780315248 1.734184503888404 a32.92668973570595,32.92668973570595 0 0,0 -0.0869868388268185,0.5585179054159458 l -11.768429472187393 -1.9364905912358004" fill="#ff880c" stroke="none" /><path d="M 120.592083275326 104.11899336999214 l 54.766805540401464 10.954894941924753 a76.8517028593467,76.8517028593467 0 0,0 -0.2698676426616171,1.2914143633221684 l -54.57068018691548 -11.893425756532329" fill="#44ffe6" stroke="none" /><path d="M 120.05942366710727 106.21446072829308 l 8.768570368308044 2.7165255144632408 a30.179724242846277,30.179724242846277 0 0,0 -0.15756012595850113,0.4935548504594417 l -8.720645526572289 -2.866649398614066" fill="#ff6209" stroke="none" /><path d="M 119.83427380445688 106.89939002012753 l 11.26431125831574 3.918312182509567 a32.92635227065768,32.92635227065768 0 0,0 -0.19028269107810666,0.532254552846474 l -11.19538839719369 -4.1111016917369625" fill="#ff880c" stroke="none" /><path d="M 119.4528033332814 107.91128576633889 l 10.433298904853425 4.243131835950278 a32.263120962471746,32.263120962471746 0 0,0 -0.21305052628990379,0.5112437047749633 l -10.358922534027036 -4.421608050166519" fill="#ff7f0b" stroke="none" /><path d="M 119.16976305983485 108.57439118712176 l 10.491483192898482 4.6927069859046995 a32.49315963703759,32.49315963703759 0 0,0 -0.23211803483334698,0.5072197967465659 l -10.409380693210078 -4.8721157648659545" fill="#ff820b" stroke="none" /><line stroke="#e1ed5e" stroke-width="0.3" x1="174.33088141563837" x2="178.70328620479359" y1="141.23008692659167" y2="143.65538615756765" /><path d="M 175.20536237346943 141.71514677278685 a86.0,86.0 0 0,1 -30.301960400862466,31.631185727798858" fill="none" id="id53" stroke="none" /><text fill="#e1ed5e" style="font-size:6.75px; font-family:Arial;" text-anchor="middle"><textPath startOffset="22.145653131862474" xlink:href="#id53">May</textPath></text><path d="M 118.36410011445183 110.18625677009912 l 19.679587675546752 10.915935545082439 a43.50430669680641,43.50430669680641 0 0,0 -0.36785301653475383,0.6499610332216409 l -19.489301293990618 -11.252153348403201" fill="#edff1a" stroke="none" /><path d="M 118.00360718960297 110.81064883170644 l 9.647069633527654 5.7927881321091155 a32.25265954597559,32.25265954597559 0 0,0 -0.28909446466980043,0.47221408174564233 l -9.546207204402448 -5.957539329979315" fill="#ff7e0b" stroke="none" /><path d="M 117.62189284568427 111.42229804090321 l 9.44139874554617 6.119800599119492 a32.251309685782545,32.251309685782545 0 0,0 -0.30512128796972615,0.46199251920960593 l -9.334953018655717 -6.28097299666816" fill="#ff7e0b" stroke="none" /><path d="M 117.21940702142032 112.02048342749411 l 11.14143210269855 7.777584894906104 a34.58758021490631,34.58758021490631 0 0,0 -0.34403920406084704,0.48393422572148864 l -11.006277800107743 -7.967696347337097" fill="#ff9e0e" stroke="none" /><path d="M 117.01052211995028 112.31430620078461 l 6.556877172105149 4.746673420655326 a29.094661624331764,29.094661624331764 0 0,0 -0.29634711249221257,0.4020517732065712 l -6.4744280400291085 -4.8585315031307745" fill="#ff5207" stroke="none" /><path d="M 116.57777611688842 112.89097897827486 l 8.893973423498242 6.916007528829556 a32.26649561295437,32.26649561295437 0 0,0 -0.3437665825797464,0.4343378471212657 l -8.773940410276934 -7.067665319865505" fill="#ff7f0b" stroke="none" /><path d="M 116.1254893667686 113.45245675266167 l 18.241049642155595 15.217332376898037 a44.75506465401797,44.75506465401797 0 0,0 -0.49721904258918925,0.5857227819305656 l -17.97713603605929 -15.52822194127816" fill="#deff1b" stroke="none" /><path d="M 115.6541949942343 113.99807769240083 l 8.454486197645636 7.560053690883693 a32.34163783036757,32.34163783036757 0 0,0 -0.37362646172316233,0.41068093115626364 l -8.323462035080594 -7.704072197597629" fill="#ff800b" stroke="none" /><path d="M 115.41159269507618 114.26474011684316 l 9.993437869522898 9.24977689866584 a34.61716465080402,34.61716465080402 0 0,0 -0.40740144266845585,0.432646214052904 l -9.833180593118183 -9.419964572663241" fill="#ff9f0e" stroke="none" /><path d="M 114.65682725009322 115.03919595460226 l 12.608093509527864 12.937014653190548 a39.06461652186023,39.06461652186023 0 0,0 -0.4842664052267015,0.46391626165791233 l -12.384154618435849 -13.15154304515404" fill="#ffd914" stroke="none" /><path d="M 114.39649973595853 115.28858382429668 l 7.720094643234136 8.198472979496804 a32.26120866053159,32.26120866053159 0 0,0 -0.406445493000222,0.3761998804421224 l -7.578219378919947 -8.329790606071306" fill="#ff7f0b" stroke="none" /><path d="M 113.86319453409587 115.77377054828091 l 7.432848368390011 8.45721701407219 a32.25929635859143,32.25929635859143 0 0,0 -0.41909514357309796,0.362004403307697 l -7.286573745054055 -8.583565549844606" fill="#ff7f0b" stroke="none" /><path d="M 113.59037401385874 116.0094264158162 l 8.025255409017209 9.453730692604575 a33.40071564016584,33.40071564016584 0 0,0 -0.44029406412181876,0.3673089678914543 l -7.861787010733497 -9.590101844407899" fill="#ff8e0d" stroke="none" /><path d="M 113.03279911837588 116.46651593811092 l 7.4355356121996055 9.394556346229795 a32.98102160847626,32.98102160847626 0 0,0 -0.4469557507401387,0.3475554951632235 l -7.273169916824236 -9.520812893013812" fill="#ff880c" stroke="none" /><path d="M 112.45986205192187 116.90419585922612 l 6.681576497530068 9.064841752820918 a32.26120866053159,32.26120866053159 0 0,0 -0.44861359796014433,0.3247616488289802 l -6.524981889195956 -9.178204173022976" fill="#ff7f0b" stroke="none" /><path d="M 111.8722381534696 117.32195027204791 l 3.890468708294442 5.676310113467552 a27.88158726417621,27.88158726417621 0 0,0 -0.3971183925934487,0.2671989773676325 l -3.79245402760399 -5.742258764892306" fill="#ff4106" stroke="none" /><path d="M 111.5731344415666 117.5232005979908 l 8.287345229700932 12.548096941073265 a36.03778001564124,36.03778001564124 0 0,0 -0.5191402969663181,0.3365004684184404 l -8.070719300477604 -12.6885112511956" fill="#ffb210" stroke="none" /><line stroke="#e1ed5e" stroke-width="0.3" x1="143.1302829299769" x2="145.66735839644613" y1="173.24464959558577" y2="177.55315839532614" /><path d="M 143.63769802327073 174.10635135553383 a86.0,86.0 0 0,1 -40.68552437913181,11.842963189579606" fill="none" id="id54" stroke="none" /><text fill="#e1ed5e" style="font-size:6.75px; font-family:Arial;" text-anchor="middle"><textPath startOffset="21.407464694133747" xlink:href="#id54">June</textPath></text><path d="M 110.34350942703117 118.27599006163325 l 11.695801696325857 20.665360927334397 a44.7455031443172,44.7455031443172 0 0,0 -0.6717276152440832,0.37259598487256423 l -11.33932989292568 -20.863089827640103" fill="#deff1b" stroke="none" /><path d="M 109.3889696526874 118.78422872680471 l 1.0960319233419566 2.192798049362327 a23.451458598930827,23.451458598930827 0 0,0 -0.36164354795803133,0.17689798149556446 l -1.0582281261218558 -2.211289780955115" fill="#ff0000" stroke="none" /><path d="M 108.07796709384702 119.3841803445677 l 9.142893484399446 21.93961600905328 a44.76845076759907,44.76845076759907 0 0,0 -0.7119154482502424,0.2895298151163075 l -8.764923574958761 -22.093333080748884" fill="#deff1b" stroke="none" /><path d="M 107.407793817531 119.65005319985036 l 2.4708650526758165 6.554263108650257 a28.00453703009331,28.00453703009331 0 0,0 -0.45128757780415674,0.1657190495539764 l -2.3579883232175325 -6.595713007212956" fill="#ff4306" stroke="none" /><path d="M 106.38641147887787 120.00534299687104 l 2.0821878505800164 6.522423785648374 a27.846715875855715,27.846715875855715 0 0,0 -0.45663225979111266,0.141465841334056 l -1.9699149579172794 -6.5572062147890735" fill="#ff4006" stroke="none" /><path d="M 105.69591212413111 120.21278271476187 l 3.5587017683940103 12.628577131034971 a34.120416099761094,34.120416099761094 0 0,0 -0.5651293013021037,0.1540285040882672 l -3.3413910661572115 -12.687806129267381" fill="#ff980e" stroke="none" /><line stroke="#e1ed5e" stroke-width="0.3" x1="101.45913802915013" x2="101.54496967792366" y1="184.9874750549273" y2="189.98673829345242" /><path d="M 101.47630435890484 185.9873277026323 a86.0,86.0 0 0,1 -42.54439059252881,-10.42667462771756" fill="none" id="id55" stroke="none" /><text fill="#e1ed5e" style="font-size:6.75px; font-family:Arial;" text-anchor="middle"><textPath startOffset="22.145653131862474" xlink:href="#id55">July</textPath></text><line stroke="#e1ed5e" stroke-width="0.3" x1="58.13341422392154" x2="55.670673884152215" y1="173.97424548756322" y2="178.32567169271397" /><path d="M 57.64086615596767 174.84453072859336 a86.0,86.0 0 0,1 -31.369924170532244,-30.572349798747897" fill="none" id="id56" stroke="none" /><text fill="#e1ed5e" style="font-size:6.75px; font-family:Arial;" text-anchor="middle"><textPath startOffset="22.145653131862474" xlink:href="#id56">August</textPath></text><path d="M 85.86807049272751 115.53346607816431 l -6.0742331375816025 6.676646267229787 a30.026290134236095,30.026290134236095 0 0,0 -0.37828868797181014,-0.3501383620645157 l 6.1879515968673795 -6.571390159032891" fill="#ff5f08" stroke="none" /><path d="M 84.83555147118756 114.52719865689866 l -10.569527860260251 10.125368597736287 a35.63687153830496,35.63687153830496 0 0,0 -0.4194021383134588,-0.44539053695663194 l 10.741785832309963 -9.942436600835165" fill="#ffac0f" stroke="none" /><path d="M 83.20337586046588 112.60449989151573 l -11.70246570153511 8.781748429929273 a35.63102214413507,35.63102214413507 0 0,0 -0.36292398460925673,-0.49237608669184924 l 11.851491705728195 -8.579566033968543" fill="#ffac0f" stroke="none" /><line stroke="#e1ed5e" stroke-width="0.3" x1="26.387840678322732" x2="22.057713659400548" y1="142.50000000000003" y2="145.00000000000006" /><path d="M 25.521815274538298 143.00000000000003 a86.0,86.0 0 0,1 -11.493303480769221,-40.785679425670985" fill="none" id="id57" stroke="none" /><text fill="#e1ed5e" style="font-size:6.75px; font-family:Arial;" text-anchor="middle"><textPath startOffset="21.40746469413373" xlink:href="#id57">September</textPath></text><path d="M 81.4637452351635 109.86951160357371 l -10.448003299040556 5.562973270612943 a32.83669905616918,32.83669905616918 0 0,0 -0.2606482273410144,-0.4998273436833954 l 10.541959595356518 -5.382799683825045" fill="#ff860c" stroke="none" /><path d="M 80.83023694016515 108.57439118712176 l -21.688511750656268 9.700995439336232 a44.75922672294655,44.75922672294655 0 0,0 -0.30770075266258,-0.7040795387662694 l 21.85184638533582 -9.327253830794113" fill="#deff1b" stroke="none" /><path d="M 80.5471966667186 107.91128576633889 l -7.30311125215438 2.9701117679172206 a28.88397094586632,28.88397094586632 0 0,0 -0.18285111284683014,-0.46090425156155895 l 7.353021039967335 -2.8443064991420965" fill="#ff4f07" stroke="none" /><path d="M 80.16572619554312 106.89939002012753 l -23.603493412572742 8.210520258838864 a45.99074917240714,45.99074917240714 0 0,0 -0.2529810477248385,-0.7478935158121846 l 23.740959881869948 -7.804125068552518" fill="#cfff1d" stroke="none" /><path d="M 79.64726062577567 105.17358676015961 l -10.91804118879332 2.7753233755233055 a32.26525824111074,32.26525824111074 0 0,0 -0.13184579129810747,-0.5379758209828781 l 10.964074506607721 -2.587491729932328" fill="#ff7f0b" stroke="none" /><path d="M 79.2786578344484 103.40968896794605 l -47.18904241501295 7.764938971853734 a68.82363433787215,68.82363433787215 0 0,0 -0.18182059708031625,-1.1674186625513583 l 47.31538450423154 -6.953732127370926" fill="#3aff90" stroke="none" /><line stroke="#e1ed5e" stroke-width="0.3" x1="15.003131293944662" x2="10.003315487706104" y1="100.72959589197737" y2="100.7725132973878" /><path d="M 14.003168132696942 100.73817937305945 a86.0,86.0 0 0,1 10.791469493833615,-42.45332614584628" fill="none" id="id58" stroke="none" /><text fill="#e1ed5e" style="font-size:6.75px; font-family:Arial;" text-anchor="middle"><textPath startOffset="22.145653131862435" xlink:href="#id58">October</textPath></text><path d="M 79.407916724674 95.88100663000787 l -14.34825424753011 -2.8700526958024515 a35.63248449267754,35.63248449267754 0 0,0 0.1251248083573949,-0.5987675036806515 l 14.296871728348346 3.115936650768512" fill="#ffac0f" stroke="none" /><path d="M 79.73907114497095 94.47779374421319 l -11.129478012413992 -3.0333887228738403 a32.535455256419866,32.535455256419866 0 0,0 0.1514936131434619,-0.5375973888659882 l 11.075765907195949 3.223994035642842" fill="#ff820c" stroke="none" /><path d="M 80.68587082218212 91.75594674310238 l -10.877246281822085 -4.642849636665009 a32.826687593070716,32.826687593070716 0 0,0 0.22566959305014636,-0.5163761921718673 l 10.795942806754962 4.828887898612743" fill="#ff860c" stroke="none" /><path d="M 80.9802524753101 91.09779779509293 l -10.35670824069481 -4.847462397500766 a32.435003160386955,32.435003160386955 0 0,0 0.24035996475677357,-0.5022598820589154 l 10.271969017978131 5.0245347816247685" fill="#ff810b" stroke="none" /><path d="M 81.29705330413844 90.45014215332179 l -10.179694319694523 -5.1978244528297415 a32.429941184663015,32.429941184663015 0 0,0 0.2574195009095525,-0.49363583502752717 l 10.088966749810032 5.371806530961755" fill="#ff810b" stroke="none" /><path d="M 81.46374523516351 90.13048839642627 l -10.028101317100326 -5.3393991163029675 a32.360985826467974,32.360985826467974 0 0,0 0.2652902000503935,-0.48810408783476533 l 9.934965767434583 5.510758037612352" fill="#ff800b" stroke="none" /><line stroke="#e1ed5e" stroke-width="0.3" x1="26.387840678322718" x2="22.05771365940052" y1="57.49999999999999" y2="54.99999999999999" /><path d="M 25.521815274538284 56.99999999999999 a86.0,86.0 0 0,1 29.574782752854787,-30.34633250058573" fill="none" id="id59" stroke="none" /><text fill="#e1ed5e" style="font-size:6.75px; font-family:Arial;" text-anchor="middle"><textPath startOffset="21.40746469413373" xlink:href="#id59">November</textPath></text><path d="M 81.81346652052679 89.5 l -20.579016449392658 -11.88130068671459 a44.76260137342918,44.76260137342918 0 0,0 0.3899169806752927,-0.6621642771807756 l 20.37202575858759 12.23281613218894" fill="#deff1b" stroke="none" /><path d="M 82.576782715395 88.27688183743585 l -9.521051040282954 -6.406188050909787 a32.47561145452792,32.47561145452792 0 0,0 0.31518394845861714,-0.4598628001875386 l 9.409677355009023 6.56868558616736" fill="#ff820b" stroke="none" /><path d="M 82.78059297857968 87.97951657250589 l -5.688364689467943 -3.9709203339135763 a27.937268997139583,27.937268997139583 0 0,0 0.2778892229432934,-0.39088599309055666 l 5.619360367994677 4.0679835537136535" fill="#ff4206" stroke="none" /><path d="M 83.42222388311158 87.10902102172516 l -11.587020659482059 -9.010137348281155 a35.67792978584361,35.67792978584361 0 0,0 0.3801119323003112,-0.4802590091842989 l 11.430642296540187 9.207716301380136" fill="#ffad10" stroke="none" /><path d="M 85.08716467003674 85.21462403516908 l -44.73850598988975 -44.35612789449276 a84.0,84.0 0 0,0 1.0240323194800847,-1.0152799590853063 l 43.97048175027969 45.11758786380673" fill="#4dd2ff" stroke="none" /><path d="M 86.96720088162412 83.53348406188908 l -9.293634137716747 -11.742203133930857 a35.975011516664345,35.975011516664345 0 0,0 0.4875300247273913,-0.3791062960270121 l 9.09069416835411 11.900010481578674" fill="#ffb110" stroke="none" /><path d="M 89.03521579738668 82.08984904055464 l -13.310554727816996 -21.741790820866605 a46.49267218752343,46.49267218752343 0 0,0 0.6842553349179386,-0.4108756683655816 l 12.935366636341623 21.96708048976811" fill="#c9ff1d" stroke="none" /><line stroke="#e1ed5e" stroke-width="0.3" x1="56.869717070023135" x2="54.33264160355391" y1="26.7553504044142" y2="22.446841604673864" /><path d="M 56.362301976729285 25.89364864446614 a86.0,86.0 0 0,1 42.16139366436587,-11.88097634709845" fill="none" id="id60" stroke="none" /><text fill="#e1ed5e" style="font-size:6.75px; font-family:Arial;" text-anchor="middle"><textPath startOffset="22.145653131862474" xlink:href="#id60">December</textPath></text></svg>