<?xml version="1.0" encoding="utf-8" ?>
<svg baseProfile="full" height="200mm" version="1.1" viewBox="0,0,200,200" width="200mm" xmlns="http://www.w3.org/2000/svg" xmlns:ev="http://www.w3.org/2001/xml-events" xmlns:xlink="http://www.w3.org/1999/xlink"><defs /><rect fill="#1a1a1a" height="200" width="200" x="0" y="0" /><text alignment-baseline="middle" fill="#e1ed5e" style="dominant-baseline: central; font-size:9.0px; font-family:Arial;" text-anchor="middle" x="100.0" y="100.0">2022</text><line stroke="#e1ed5e" stroke-width="0.3" x1="100.0" x2="100.0" y1="15.0" y2="10.0" /><path d="M 100.0 14.0 a86.0,86.0 0 0,1 42.46469731375804,11.215312516191453" fill="none" id="id25" stroke="none" /><text fill="#e1ed5e" style="font-size:6.75px; font-family:Arial;" text-anchor="middle"><textPath startOffset="22.20632615414155" xlink:href="#id25">January</textPath></text><path d="M 100.0 79.0 l 0.0 -28.229120957225234 a49.229120957225234,49.229120957225234 0 0,0 0.8473983922753833,0.007293825495534562 l -0.48591791300285486 28.22493850833826" fill="#d9ff1c" stroke="none" /><path d="M 100.72285384407766 79.0124445844662 l 0.9786880192750156 -28.415521626314593 a49.432370628117255,49.432370628117255 0 0,0 0.8501406585272802,0.03660884507456389 l -1.4676695101916273 28.394465054715834" fill="#d7ff1c" stroke="none" /><path d="M 102.16513564639614 79.11191278185805 l 2.876186955365491 -27.747935368094097 a48.896601380708404,48.896601380708404 0 0,0 0.8364422524363238,0.09398403301239991 l -3.35339591131154 27.694315381611098" fill="#deff1b" stroke="none" /><line stroke="#e1ed5e" stroke-width="0.3" x1="143.23703022742887" x2="145.7803849466894" y1="26.81831364943548" y2="22.513508569990506" /><path d="M 143.74570117128098 25.957352633546492 a86.0,86.0 0 0,1 28.547481713284135,27.462654790039103" fill="none" id="id26" stroke="none" /><text fill="#e1ed5e" style="font-size:6.75px; font-family:Arial;" text-anchor="middle"><textPath startOffset="19.985693538727396" xlink:href="#id26">February</textPath></text><path d="M 111.60114157652 82.49532879139004 l 15.383519532325298 -23.211806326852923 a48.84673456900761,48.84673456900761 0 0,0 0.696869160497351,0.470529167924714 l -15.78079338722919 22.94356524662954" fill="#deff1b" stroke="none" /><path d="M 113.34407831869373 83.78471172551755 l 17.72120585614004 -21.534230740103066 a48.88842466981045,48.88842466981045 0 0,0 0.6451932584371389,0.5403307991763073 l -18.089256651536296 21.22599878353294" fill="#deff1b" stroke="none" /><path d="M 113.89432698308785 84.25364557470407 l 18.437520556472712 -20.89512746887853 a48.8666201074159,48.8666201074159 0 0,0 0.6259325658197971,0.5619684378111962 l -18.7944641098885 20.574660022298037" fill="#deff1b" stroke="none" /><path d="M 114.16331599549186 84.49514656593476 l 18.816110364933902 -20.598356592506747 a48.898715088287474,48.898715088287474 0 0,0 0.616571154663833,0.5730356919081109 l -19.167889403392582 20.271416314523997" fill="#deff1b" stroke="none" /><path d="M 114.94478906791727 85.2469230424477 l 12.689816954769231 -12.527031680417881 a38.83137619668605,38.83137619668605 0 0,0 0.46548786087115845,0.4797261581658756 l -12.9035690793435 12.306741326701893" fill="#ff900d" stroke="none" /><path d="M 116.38621287248628 86.86637796730983 l 21.744273157810536 -17.42813103018859 a48.86670354324139,48.86670354324139 0 0,0 0.5204208972509722,0.6608816899391697 l -22.041048135655473 17.051256946296384" fill="#deff1b" stroke="none" /><path d="M 116.82858285166822 87.43820079747576 l 22.37132005996529 -16.699209491714797 a48.91665379076767,48.91665379076767 0 0,0 0.49787227551495694,0.6790972242822844 l -22.65545494799387 16.311649823761016" fill="#ddff1b" stroke="none" /><path d="M 117.45458315368197 88.32363383020206 l 23.17426028388422 -15.502584416159928 a48.881471684353,48.881471684353 0 0,0 0.46182135480152176,0.7033856071046809 l -23.437678274043666 15.101380745077574" fill="#deff1b" stroke="none" /><line stroke="#e1ed5e" stroke-width="0.3" x1="172.23445277983987" x2="176.4835382374775" y1="55.19839476539836" y2="52.563006222186495" /><path d="M 173.08426987136738 54.67131705675599 a86.0,86.0 0 0,1 12.851231095245387,41.99856678651699" fill="none" id="id27" stroke="none" /><text fill="#e1ed5e" style="font-size:6.75px; font-family:Arial;" text-anchor="middle"><textPath startOffset="22.20632615414155" xlink:href="#id27">March</textPath></text><path d="M 117.84615892207809 88.93136811851018 l 23.68531166054919 -14.690219722555836 a48.87107001810867,48.87107001810867 0 0,0 0.43724295129763824,0.7187124466402447 l -23.93467041013305 14.280339502708511" fill="#deff1b" stroke="none" /><path d="M 118.03404312379186 89.2402003453031 l 23.945895839961995 -14.287037023345906 a48.88414163076866,48.88414163076866 0 0,0 0.4249203393580541,0.7263265999146594 l -24.188275853790376 13.872731011077352" fill="#deff1b" stroke="none" /><path d="M 118.89224826269711 90.83032412892265 l 25.073599897085423 -12.169900626984877 a48.87098658228318,48.87098658228318 0 0,0 0.36081171564059444,0.75996149159876 l -25.279369806567775 11.736496719745576" fill="#deff1b" stroke="none" /><path d="M 119.04729006885535 91.15688171328212 l 25.298339619748926 -11.745303867703708 a48.89190116253917,48.89190116253917 0 0,0 0.3478255596638283,0.7663875146941457 l -25.4967674963761 11.3080943441675" fill="#deff1b" stroke="none" /><path d="M 119.34039704204932 91.81776055985345 l 25.691021178513076 -10.868964390308909 a48.8955723388607,48.8955723388607 0 0,0 0.3212632661928527,0.7779644814596868 l -25.874306131592125 10.42512533839592" fill="#deff1b" stroke="none" /><path d="M 119.61058180528143 92.48833698450437 l 58.30789367157748 -22.334332186222202 a83.43903313329336,83.43903313329336 0 0,0 0.5022052822813876,1.3456604757566342 l -58.6837035423605 21.327348573436236" fill="#4cd8ff" stroke="none" /><path d="M 119.97218684219823 93.5106431181261 l 42.73882261599408 -13.886685261740865 a65.9382574891379,65.9382574891379 0 0,0 0.34144875770589317,1.0824858712148673 l -42.97152685746818 13.14894922409958" fill="#33ff56" stroke="none" /><path d="M 120.91429891909075 98.10471618934814 l 27.827820606806025 -2.521797077006525 a48.94185141006545,48.94185141006545 0 0,0 0.06881111551008434,0.8396699013872343 l -27.867106206135606 2.0424132584115218" fill="#ddff1b" stroke="none" /><path d="M 120.96714384426684 98.82574320788733 l 28.19120216804568 -1.5788373881309894 a49.23537864413693,49.23537864413693 0 0,0 0.04010665123136893,0.8465880185528092 l -28.214202427510546 1.0933382629551804" fill="#d9ff1c" stroke="none" /><line stroke="#e1ed5e" stroke-width="0.3" x1="184.98032266829074" x2="189.97916517819016" y1="98.17113171792111" y2="98.06355123074" /><path d="M 185.9800911702706 98.14961562048488 a86.0,86.0 0 0,1 -9.607161424134198,41.387399972396054" fill="none" id="id28" stroke="none" /><text fill="#e1ed5e" style="font-size:6.75px; font-family:Arial;" text-anchor="middle"><textPath startOffset="21.466115282336823" xlink:href="#id28">April</textPath></text><path d="M 120.99513854157772 99.54816195383933 l 28.082974538940842 -0.6043759283096052 a49.08947719729792,49.08947719729792 0 0,0 0.010909535270231148,0.8449555294090901 l -28.08921708132879 0.12088414084005228" fill="#dbff1b" stroke="none" /><path d="M 120.99824983174949 100.27111621757518 l 44.562669792534656 0.5753652126253115 a65.56638401493193,65.56638401493193 0 0,0 -0.024284344039946178,1.128398044038696 l -44.5461633858097 -1.3423530724541224" fill="#33ff51" stroke="none" /><path d="M 120.95626037817324 101.35467743843564 l 27.82928291497251 1.798970857034274 a48.88736781602092,48.88736781602092 0 0,0 -0.061512975978170244,0.839295684935179 l -27.79419338033 -2.277739678466223" fill="#deff1b" stroke="none" /><path d="M 120.8583938346157 102.4346265915055 l 62.575181503847105 7.303879774516526 a84.0,84.0 0 0,0 -0.1799939630126075,1.4347289828504204 l -62.44018603158764 -8.379926511654341" fill="#4dd2ff" stroke="none" /><path d="M 120.76222939487914 103.15116336523771 l 18.571668248577506 2.8186934795499283 a39.784352383483416,39.784352383483416 0 0,0 -0.10858901345207442,0.6761838904223751 l -18.520397480764142 -3.1379565996655083" fill="#ff9e0e" stroke="none" /><path d="M 120.70491114924044 103.5080841355445 l 36.522206501911086 6.1880474782493655 a58.04272532308206,58.04272532308206 0 0,0 -0.1753817818132771,0.9836341713727194 l -36.41027827775862 -6.815800400355303" fill="#6aff28" stroke="none" /><path d="M 120.64145759157962 103.86396538481128 l 27.396089539966987 5.12839469751428 a48.87196000024722,48.87196000024722 0 0,0 -0.16190597775370769,0.8255550924462941 l -27.303753629237615 -5.599213517028519" fill="#deff1b" stroke="none" /><path d="M 120.41448212921028 104.9243191809786 l 32.51346673051551 7.842799383683446 a54.446001569829605,54.446001569829605 0 0,0 -0.22760680570020925,0.9091760479364248 l -32.37364861052024 -8.401303271017266" fill="#96ff23" stroke="none" /><path d="M 120.32669344350535 105.2749913415812 l 35.37148534718453 9.17927352345057 a57.54313941199375,57.54313941199375 0 0,0 -0.25705869531297276,0.9566110334414509 l -35.20823857552978 -9.78677549006757" fill="#70ff27" stroke="none" /><path d="M 120.13307415673323 105.97154293290107 l 26.749848253238333 7.934102166875468 a48.901690966063256,48.901690966063256 0 0,0 -0.24630903254229544,0.8049521696934668 l -26.609312448189907 -8.393381309120992" fill="#deff1b" stroke="none" /><path d="M 119.12269723197855 108.67885076344098 l 25.427036385481795 11.54007990970779 a48.92324522098133,48.92324522098133 0 0,0 -0.35463617853346535,0.7638547786455538 l -25.2246255901085 -11.976054755632175" fill="#ddff1b" stroke="none" /><line stroke="#e1ed5e" stroke-width="0.3" x1="174.80103733775053" x2="179.2010983576182" y1="140.37084112569926" y2="142.7455964860345" /><path d="M 175.68104954172406 140.8457921977663 a86.0,86.0 0 0,1 -30.038265399797805,32.042727171017184" fill="none" id="id29" stroke="none" /><text fill="#e1ed5e" style="font-size:6.75px; font-family:Arial;" text-anchor="middle"><textPath startOffset="22.206326154141568" xlink:href="#id29">May</textPath></text><path d="M 118.48025628344425 109.97397251340804 l 38.39709641666843 20.723283182907974 a64.63245900828795,64.63245900828795 0 0,0 -0.5368297888668433,0.9745019995461586 l -38.03469021835008 -21.381155700851938" fill="#31ff44" stroke="none" /><path d="M 117.94076556474637 110.91462005526583 l 25.304092740359415 15.394245976154792 a50.6189115024011,50.6189115024011 0 0,0 -0.45927107346311863,0.740491205515913 l -25.035357027228333 -15.827533513035979" fill="#c7ff1e" stroke="none" /><path d="M 117.35343817320211 111.8261652097733 l 24.626362266847934 16.782577940849126 a50.8012187810953,50.8012187810953 0 0,0 -0.49867224545680167,0.7183745623140542 l -24.333829114228994 -17.2039937653502" fill="#c4ff1e" stroke="none" /><path d="M 116.71984013943494 112.70617746262583 l 22.1732407851217 16.850468065947116 a48.84943232736509,48.84943232736509 0 0,0 -0.514531495884784,0.6651013179747213 l -21.87990247201885 -17.22964737803509" fill="#deff1b" stroke="none" /><path d="M 115.80600337817218 113.82643327865902 l 22.127926058625953 19.356587868834968 a50.399364033596825,50.399364033596825 0 0,0 -0.5768114823250869,0.6480538151287759 l -21.79145572665253 -19.73461585370461" fill="#caff1d" stroke="none" /><path d="M 115.32070863581623 114.36230785411682 l 26.662068383509673 24.99419858793494 a57.54553123899111,57.54553123899111 0 0,0 -0.6836777638831153,0.7168334021237664 l -26.227884068247594 -25.44943910664121" fill="#70ff27" stroke="none" /><path d="M 114.81725581225074 114.88116024355365 l 25.78849856308396 25.899720192494403 a57.54917460337081,57.54917460337081 0 0,0 -0.7079919999768848,0.6929191845406306 l -25.33885661073128 -26.339789479957606" fill="#70ff27" stroke="none" /><path d="M 114.29624159901734 115.38237550388516 l 24.87496583586246 26.764801257965004 a57.53927355207941,57.53927355207941 0 0,0 -0.7312980016380645,0.6680233855881085 l -24.41056828475753 -27.189017410139694" fill="#70ff27" stroke="none" /><path d="M 113.75828350139079 115.86535959552629 l 38.490163680763565 44.38491819304708 a79.74958436598043,79.74958436598043 0 0,0 -1.044850661319647,0.8904444011276098 l -37.72044754286687 -45.04088698439763" fill="#47ffff" stroke="none" /><line stroke="#e1ed5e" stroke-width="0.3" x1="143.8653032363475" x2="146.44561519142675" y1="172.8068346515853" y2="177.08958963109032" /><path d="M 144.38136562736335 173.6633856474863 a86.0,86.0 0 0,1 -40.68145358897372,12.25698825130547" fill="none" id="id30" stroke="none" /><text fill="#e1ed5e" style="font-size:6.75px; font-family:Arial;" text-anchor="middle"><textPath startOffset="21.466115282336833" xlink:href="#id30">June</textPath></text><path d="M 110.21172684928248 118.3499491758327 l 14.044342047549696 25.236962032396587 a49.88161692449367,49.88161692449367 0 0,0 -0.7538708247114774,0.4110704816248417 l -13.60784841096957 -25.474973165781197" fill="#d1ff1d" stroke="none" /><path d="M 107.59598834532513 119.57807347666477 l 10.514490406747807 27.100287203532353 a50.06854098553161,50.06854098553161 0 0,0 -0.8061745100139494,0.3048262180765756 l -10.046445675973583 -27.27726167171556" fill="#ceff1d" stroke="none" /><path d="M 106.91757812671514 119.82793768551818 l 9.526721488099707 27.306556796782626 a49.920692702764505,49.920692702764505 0 0,0 -0.8137792411855237,0.27607810202265404 l -9.055272513976957 -27.4664978857034" fill="#d0ff1d" stroke="none" /><path d="M 106.2309692047433 120.05430185196036 l 8.649278349572933 27.837601683526028 a50.15033590645299,50.15033590645299 0 0,0 -0.8265850617833951,0.24904329853468224 l -8.168818313349293 -27.982360351166438" fill="#cdff1d" stroke="none" /><path d="M 104.13013068566511 120.58985236759428 l 5.476046846259927 27.299619480288907 a48.84342494792986,48.84342494792986 0 0,0 -0.8257617938929269,0.1582592131292131 l -5.005317437795296 -27.38983589176659" fill="#deff1b" stroke="none" /><line stroke="#e1ed5e" stroke-width="0.3" x1="102.19456741930631" x2="102.32365962044197" y1="184.97166512339345" y2="189.96999836594603" /><path d="M 102.22038585953345 185.97133177190398 a86.0,86.0 0 0,1 -42.740103519485714,-10.115201625700543" fill="none" id="id31" stroke="none" /><text fill="#e1ed5e" style="font-size:6.75px; font-family:Arial;" text-anchor="middle"><textPath startOffset="22.20632615414155" xlink:href="#id31">July</textPath></text><path d="M 99.81925306533755 120.99922214144158 l -0.15389518535637509 17.87957947852411 a38.88024177848097,38.88024177848097 0 0,0 -0.6691850783553434,-0.011520627993255414 l 0.4616399536043863 -17.874281373251698" fill="#ff910d" stroke="none" /><path d="M 97.65516085044442 120.86867818915974 l -1.9863693701114997 17.678356810750703 a38.789602660057724,38.789602660057724 0 0,0 -0.6628821269251237,-0.08026579402602953 l 2.290378920088013 -17.641545487999323" fill="#ff8f0d" stroke="none" /><path d="M 97.2962882734958 120.8252237178851 l -3.586537615652823 27.625152299484377 a48.8569971755428,48.8569971755428 0 0,0 -0.8330616099536965,-0.11545474826489935 l 4.06152781679335 -27.559322985726872" fill="#deff1b" stroke="none" /><path d="M 96.93821686468263 120.77559828337769 l -4.063462032133109 27.57244752104384 a48.870263471795596,48.870263471795596 0 0,0 -0.8311764499108621,-0.1298126674690317 l 4.537474345652488 -27.498416546227702" fill="#deff1b" stroke="none" /><path d="M 94.81253420990036 120.34920634021253 l -2.1737069447601143 8.52694030802021 a29.799642771058274,29.799642771058274 0 0,0 -0.49596475948992297,-0.13098880073484126 l 2.3201621470615263 -8.488260157981786" fill="#ff0000" stroke="none" /><path d="M 94.11515582081647 120.15858648285463 l -7.802979254738199 26.729175376803937 a48.84484335696318,48.84484335696318 0 0,0 -0.8050677454948129,-0.2425603076461694 l 8.261921974673257 -26.59089970005204" fill="#deff1b" stroke="none" /><line stroke="#e1ed5e" stroke-width="0.3" x1="58.666819895761336" x2="56.23545636021788" y1="174.27360380694188" y2="178.64263932499728" /><path d="M 58.180547188652646 175.14741091055294 a86.0,86.0 0 0,1 -31.652253787137756,-30.449443065178592" fill="none" id="id32" stroke="none" /><text fill="#e1ed5e" style="font-size:6.75px; font-family:Arial;" text-anchor="middle"><textPath startOffset="22.20632615414155" xlink:href="#id32">August</textPath></text><path d="M 84.43433777217949 114.09645910891817 l -20.646487817489792 18.697718542410744 a48.8546609724291,48.8546609724291 0 0,0 -0.5591326389597163,-0.6281914471956557 l 20.965279306097848 -18.339552925474226" fill="#deff1b" stroke="none" /><line stroke="#e1ed5e" stroke-width="0.3" x1="26.63291911575756" x2="22.317208475507996" y1="142.92168965132927" y2="145.44649492493687" /><path d="M 25.769776987707644 143.4266507060508 a86.0,86.0 0 0,1 -11.730757126820373,-40.83630448921669" fill="none" id="id33" stroke="none" /><text fill="#e1ed5e" style="font-size:6.75px; font-family:Arial;" text-anchor="middle"><textPath startOffset="21.46611528233685" xlink:href="#id33">September</textPath></text><path d="M 81.51974371655577 109.97397251340807 l -31.842242564672052 17.18556535332422 a57.18386474743667,57.18386474743667 0 0,0 -0.46005097709937065,-0.8702430739345977 l 32.133346049996305 -16.634907264303497" fill="#74ff27" stroke="none" /><path d="M 80.45479744820244 107.68017299344265 l -16.59790051638477 6.522047901829616 a38.83332303261414,38.83332303261414 0 0,0 -0.23911289573857844,-0.6242483179697933 l 16.70770769171686 -6.235376017026665" fill="#ff900d" stroke="none" /><path d="M 79.67330655649465 105.27499134158121 l -26.996978890090887 7.006000768884608 a48.891233675935254,48.891233675935254 0 0,0 -0.20438557842397764,-0.8164187879841529 l 27.113575782809924 -6.540254141503063" fill="#deff1b" stroke="none" /><line stroke="#e1ed5e" stroke-width="0.3" x1="15.007084014347285" x2="10.007500721073583" y1="101.09737516637583" y2="101.16192664675087" /><path d="M 14.007167355692545 101.11028546245083 a86.0,86.0 0 0,1 10.666146001902534,-42.60595125391555" fill="none" id="id34" stroke="none" /><text fill="#e1ed5e" style="font-size:6.75px; font-family:Arial;" text-anchor="middle"><textPath startOffset="22.20632615414155" xlink:href="#id34">October</textPath></text><path d="M 79.26566170972629 96.67025291283419 l -27.512169617094116 -4.4182054600268375 a48.86467327148782,48.86467327148782 0 0,0 0.14051650744226965,-0.8293363811077125 l 27.432041248131622 4.891127629450378" fill="#deff1b" stroke="none" /><path d="M 79.32604984820605 96.31383870115002 l -18.235165597283213 -3.251326486196124 a39.52275325863252,39.52275325863252 0 0,0 0.12518225343271905,-0.6687286034204608 l 18.176497619940633 3.5647331670791575" fill="#ff9b0e" stroke="none" /><path d="M 79.91906864156998 93.8553929516997 l -26.613097748469688 -8.143398584633019 a48.8311320696411,48.8311320696411 0 0,0 0.25286275399828895,-0.801644031153264 l 26.468979510703193 8.600292782212698" fill="#dfff1b" stroke="none" /><path d="M 80.14247586403 93.16781622104843 l -13.17334153518113 -4.532422558571753 a34.931251970012546,34.931251970012546 0 0,0 0.20051689564006112,-0.5668882658700187 l 13.09337155873126 4.7585084508683835" fill="#ff5407" stroke="none" /><line stroke="#e1ed5e" stroke-width="0.3" x1="26.266209847984243" x2="21.928928074336255" y1="57.711370442889674" y2="55.22380399835377" /><path d="M 25.398753493254645 57.213857153982495 a86.0,86.0 0 0,1 29.58750427330803,-30.492523968695096" fill="none" id="id35" stroke="none" /><text fill="#e1ed5e" style="font-size:6.75px; font-family:Arial;" text-anchor="middle"><textPath startOffset="21.46611528233685" xlink:href="#id35">November</textPath></text><path d="M 85.31137513191541 84.99185889309783 l -18.209256133553712 -18.605355365694965 a47.033368149764215,47.033368149764215 0 0,0 0.5834752624932921,-0.5613027402316962 l 17.88629762744799 18.916041192688976" fill="#f7ff18" stroke="none" /><path d="M 85.57189188830299 84.74124197986013 l -13.754038353452195 -14.545880957525304 a41.01889666936545,41.01889666936545 0 0,0 0.5172133549276859,-0.4806934454575597 l 13.501617114729653 14.78047898905751" fill="#ffb110" stroke="none" /><path d="M 86.10567301691215 84.25364557470407 l -13.085011360168089 -14.829162059236372 a40.77679371573723,40.77679371573723 0 0,0 0.530304535003291,-0.4598748670471883 l 12.827813026518024 15.052201919703242" fill="#ffad10" stroke="none" /><line stroke="#e1ed5e" stroke-width="0.3" x1="56.762969772571076" x2="54.21961505331055" y1="26.818313649435495" y2="22.513508569990535" /><path d="M 56.25429882871897 25.957352633546506 a86.0,86.0 0 0,1 42.265352541879196,-11.944610805530505" fill="none" id="id36" stroke="none" /><text fill="#e1ed5e" style="font-size:6.75px; font-family:Arial;" text-anchor="middle"><textPath startOffset="22.20632615414155" xlink:href="#id36">December</textPath></text><path d="M 91.23893434514133 80.91482961587045 l -4.706115870749596 -10.251837707768109 a32.28041235839086,32.28041235839086 0 0,0 0.5069836770982585,-0.22746879769451595 l 4.528950075184563 10.331326835979153" fill="#ff2904" stroke="none" /><path d="M 91.90106846888425 80.62456947434976 l -7.032276090496481 -16.823623746555462 a39.234232174090394,39.234232174090394 0 0,0 0.6253490653801237,-0.2550955853484807 l 6.741643155527977 16.942180218087522" fill="#ff960d" stroke="none" /><path d="M 92.23578459929587 80.48803036053334 l -8.024561109752327 -20.166235049240452 a42.70416128454089,42.70416128454089 0 0,0 0.6853343465456821,-0.2658990791518267 l 7.676243598206968 20.30137683228283" fill="#ffca12" stroke="none" /><path d="M 96.40284397218896 79.31037775812273 l -6.646049283439894 -38.22582284787507 a59.79927194516721,59.79927194516721 0 0,0 1.0156501808094978,-0.16759098226012434 l 5.987069896491511 38.33456009307482" fill="#55ff2b" stroke="none" /><path d="M 96.75951476605007 79.25152402106235 l -5.331588102443786 -34.13758116043131 a55.55141500979598,55.55141500979598 0 0,0 0.9460432946945048,-0.13942218969901854 l 4.743175827320632 34.2242978342913" fill="#88ff25" stroke="none" /></svg>