<?xml version="1.0" encoding="utf-8" ?>
<svg baseProfile="full" height="200mm" version="1.1" viewBox="0,0,200,200" width="200mm" xmlns="http://www.w3.org/2000/svg" xmlns:ev="http://www.w3.org/2001/xml-events" xmlns:xlink="http://www.w3.org/1999/xlink"><defs /><rect fill="#1a1a1a" height="200" width="200" x="0" y="0" /><text alignment-baseline="middle" fill="#e1ed5e" style="dominant-baseline: central; font-size:9.0px; font-family:Arial;" text-anchor="middle" x="100.0" y="100.0">2020</text><line stroke="#e1ed5e" stroke-width="0.3" x1="100.0" x2="100.0" y1="15.0" y2="10.0" /><path d="M 100.0 14.0 a86.0,86.0 0 0,1 42.35913384403234,11.155469271406648" fill="none" id="id1" stroke="none" /><text fill="#e1ed5e" style="font-size:6.75px; font-family:Arial;" text-anchor="middle"><textPath startOffset="22.145653131862478" xlink:href="#id1">January</textPath></text><line stroke="#e1ed5e" stroke-width="0.3" x1="143.13028292997686" x2="145.6673583964461" y1="26.7553504044142" y2="22.446841604673864" /><path d="M 143.63769802327073 25.89364864446614 a86.0,86.0 0 0,1 29.32050498858742,28.57503671076993" fill="none" id="id2" stroke="none" /><text fill="#e1ed5e" style="font-size:6.75px; font-family:Arial;" text-anchor="middle"><textPath startOffset="20.669276256404974" xlink:href="#id2">February</textPath></text><line stroke="#e1ed5e" stroke-width="0.3" x1="172.87174338648825" x2="177.1583165268699" y1="56.24261187166439" y2="53.66864786411523" /><path d="M 173.72905801456457 55.72781907015455 a86.0,86.0 0 0,1 12.242430191666344,42.057860355516425" fill="none" id="id3" stroke="none" /><text fill="#e1ed5e" style="font-size:6.75px; font-family:Arial;" text-anchor="middle"><textPath startOffset="22.145653131862474" xlink:href="#id3">March</textPath></text><line stroke="#e1ed5e" stroke-width="0.3" x1="184.99686870605535" x2="189.99668451229388" y1="99.2704041080226" y2="99.22748670261217" /><path d="M 185.99683186730306 99.26182062694052 a86.0,86.0 0 0,1 -10.086455211305974,41.156179273409016" fill="none" id="id4" stroke="none" /><text fill="#e1ed5e" style="font-size:6.75px; font-family:Arial;" text-anchor="middle"><textPath startOffset="21.40746469413373" xlink:href="#id4">April</textPath></text><line stroke="#e1ed5e" stroke-width="0.3" x1="174.33088141563837" x2="178.70328620479359" y1="141.23008692659167" y2="143.65538615756765" /><path d="M 175.20536237346943 141.71514677278685 a86.0,86.0 0 0,1 -30.301960400862466,31.631185727798858" fill="none" id="id5" stroke="none" /><text fill="#e1ed5e" style="font-size:6.75px; font-family:Arial;" text-anchor="middle"><textPath startOffset="22.145653131862474" xlink:href="#id5">May</textPath></text><line stroke="#e1ed5e" stroke-width="0.3" x1="143.1302829299769" x2="145.66735839644613" y1="173.24464959558577" y2="177.55315839532614" /><path d="M 143.63769802327073 174.10635135553383 a86.0,86.0 0 0,1 -40.68552437913181,11.842963189579606" fill="none" id="id6" stroke="none" /><text fill="#e1ed5e" style="font-size:6.75px; font-family:Arial;" text-anchor="middle"><textPath startOffset="21.407464694133747" xlink:href="#id6">June</textPath></text><path d="M 102.15924093988457 120.88869738790638 l 1.5461883787958726 14.95796997582456 a36.03767150526944,36.03767150526944 0 0,0 -0.6159017160870759,0.05832653286404629 l -1.2891870993237813 -14.982308264193788" fill="#ffa10e" stroke="none" /><path d="M 101.44090949804482 120.95050786540614 l 1.0267058330165624 14.92807748110411 a35.963342612845494,35.963342612845494 0 0,0 -0.6162672359727447,0.037073106589575605 l -0.7702942449113526 -14.943502565518376" fill="#ffa00e" stroke="none" /><path d="M 101.08105385017728 120.97215588758144 l 0.9250007496530824 17.944767427332934 a38.96859216544045,38.96859216544045 0 0,0 -0.6683563354116183,0.02870209680288816 l -0.6168186536406345 -17.958002092561657" fill="#ffc912" stroke="none" /><path d="M 100.72087961077811 120.9876233191556 l 0.730829768516857 21.277311305144803 a42.28985881885066,42.28985881885066 0 0,0 -0.725747717530558,0.01869268679920284 l -0.3654687369155552 -21.28672170929405" fill="#fff417" stroke="none" /><line stroke="#e1ed5e" stroke-width="0.3" x1="101.45913802915013" x2="101.54496967792366" y1="184.9874750549273" y2="189.98673829345242" /><path d="M 101.47630435890484 185.9873277026323 a86.0,86.0 0 0,1 -42.54439059252881,-10.42667462771756" fill="none" id="id7" stroke="none" /><text fill="#e1ed5e" style="font-size:6.75px; font-family:Arial;" text-anchor="middle"><textPath startOffset="22.145653131862474" xlink:href="#id7">July</textPath></text><path d="M 100.36049292484886 120.99690560180557 l 0.3649157551258828 21.25451329232682 a42.25764565519984,42.25764565519984 0 0,0 -0.7254086799747325,0.006226761067453363 l -2.603310770904912e-15 -21.257645655199838" fill="#fff417" stroke="none" /><path d="M 100.0 121.0 l 1.3040698561252633e-15 10.64853847683436 a31.64853847683436,31.64853847683436 0 0,0 -0.5432892477478788,-0.0046634847771057164 l 0.18279632289902537 -10.646969390251689" fill="#ff6309" stroke="none" /><path d="M 99.63950707515114 120.99690560180557 l -0.31058631833091443 18.090095970512788 a39.09276198051302,39.09276198051302 0 0,0 -0.6708814730465861,-0.017279526965259112 l 0.6210811054482445 -18.08209872619748" fill="#ffca12" stroke="none" /><path d="M 98.91894614982273 120.97215588758144 l -0.930531465740248 18.05206184188151 a39.07602903161663,39.07602903161663 0 0,0 -0.6696061782506542,-0.04028184490473457 l 1.2402819961233487 -18.033428019152083" fill="#ffca12" stroke="none" /><path d="M 97.12497278360702 120.80226474461374 l -2.4822274294440327 17.96016115924618 a39.13088089083317,39.13088089083317 0 0,0 -0.6646191813912468,-0.09767613224603555 l 2.790171716442964 -17.91490395370126" fill="#ffcb12" stroke="none" /><path d="M 96.41257539226777 120.69131181640829 l -5.432136162938842 31.33111785382079 a52.798538476834366,52.798538476834366 0 0,0 -0.8917051293810105,-0.16249837883394483 l 5.969176025870909 -31.23325130105548" fill="#8aff24" stroke="none" /><path d="M 96.05791012581884 120.62667999033965 l -2.822027057388997 14.766038039387317 a36.03328693577252,36.03328693577252 0 0,0 -0.6065663604603334,-0.12133025997374793 l 3.0750899033802885 -14.715418382750707" fill="#ffa10e" stroke="none" /><path d="M 95.00130118170881 120.39639698878247 l -4.583579480157126 18.702568429374 a40.25604493935176,40.25604493935176 0 0,0 -0.6697737627376565,-0.17025387135798858 l 4.903958536120162 -18.62112932618075" fill="#ffda14" stroke="none" /><path d="M 94.6519064749342 120.30758222061772 l -7.658037559227581 29.07881596567239 a51.070302246967586,51.070302246967586 0 0,0 -0.8458667133991409,-0.23054473413912951 l 8.156085673561417 -28.943070737389117" fill="#9eff22" stroke="none" /><path d="M 93.95794788825049 120.11202640906438 l -5.716384078359196 19.027983443695543 a40.868095048717436,40.868095048717436 0 0,0 -0.6701576831770599,-0.2076165633161604 l 6.04218239440789 -18.927050292572734" fill="#ffe215" stroke="none" /><path d="M 93.61358852112213 120.00534299687104 l -6.044150765414503 18.933216186715736 a40.87456750845098,40.87456750845098 0 0,0 -0.6666004752441326,-0.2191248165805847 l 6.368273978306379 -18.82667044873313" fill="#ffe215" stroke="none" /><path d="M 92.93061703081489 119.77432235084164 l -6.912383747377055 19.335167585228263 a41.533624975144164,41.533624975144164 0 0,0 -0.669306155367534,-0.24577849110720984 l 7.243279054398707 -19.21365824511233" fill="#ffea16" stroke="none" /><path d="M 91.92203290615298 119.3841803445677 l -7.646383407510418 18.34853660988421 a40.87802744084311,40.87802744084311 0 0,0 -0.645415242647819,-0.27548938832370584 l 7.960233725328667 -18.2145725719011" fill="#ffe215" stroke="none" /><path d="M 90.93487009805054 118.94263497670748 l -3.0522935897735186 6.37811966714233 a28.070849075362894,28.070849075362894 0 0,0 -0.4328788936936947,-0.2117427587435773 l 3.1613327327292824 -6.324783158301531" fill="#ff2f04" stroke="none" /><path d="M 90.6110303473126 118.78422872680471 l -8.883328709698235 17.772608125386853 a40.86904951282561,40.86904951282561 0 0,0 -0.624854251095623,-0.3190550328722335 l 9.18711018250744 -17.617495140841783" fill="#ffe215" stroke="none" /><line stroke="#e1ed5e" stroke-width="0.3" x1="58.13341422392154" x2="55.67067388415222" y1="173.97424548756322" y2="178.32567169271397" /><path d="M 57.64086615596768 174.84453072859336 a86.0,86.0 0 0,1 -31.369924170532247,-30.572349798747897" fill="none" id="id8" stroke="none" /><text fill="#e1ed5e" style="font-size:6.75px; font-family:Arial;" text-anchor="middle"><textPath startOffset="22.145653131862474" xlink:href="#id8">August</textPath></text><path d="M 86.96720088162412 116.46651593811092 l -12.326348325043355 15.573938438661916 a40.86168224299065,40.86168224299065 0 0,0 -0.5462802767479857,-0.44004472179637305 l 12.591879372146602 -15.360045423072131" fill="#ffe215" stroke="none" /><path d="M 86.13680546590413 115.77377054828092 l -19.78638941828629 22.513279020601775 a50.97246967587989,50.97246967587989 0 0,0 -0.6522897748140059,-0.5832815388570325 l 20.169944219923668 -22.17030195186136" fill="#9fff22" stroke="none" /><path d="M 85.60350026404147 115.28858382429668 l -20.67230706198318 21.953273723148328 a51.15444422350368,51.15444422350368 0 0,0 -0.6341385381736256,-0.6074903747762611 l 21.04611808602212 -21.595171218066486" fill="#9dff22" stroke="none" /><path d="M 85.34317274990678 115.03919595460226 l -21.161676487387442 21.713744318006828 a51.32001391926825,51.32001391926825 0 0,0 -0.6256351534464505,-0.6202878765739868 l 21.531303560963856 -21.347276431204183" fill="#9bff22" stroke="none" /><path d="M 84.83555147118756 114.52719865689866 l -21.69104573466452 20.779531142503263 a51.038148737323525,51.038148737323525 0 0,0 -0.6006562246348064,-0.6378760954635189 l 22.04455779303558 -20.404113587095253" fill="#9fff22" stroke="none" /><path d="M 84.3458050057657 113.99807769240083 l -22.514350347067936 20.132470910721768 a51.20285344999006,51.20285344999006 0 0,0 -0.5802720292784402,-0.6602430502516485 l 22.856633440304968 -19.74301558265882" fill="#9dff22" stroke="none" /><path d="M 84.1078160697243 113.72728997021213 l -15.029903274762741 12.982472477168814 a40.86057864386558,40.86057864386558 0 0,0 -0.4539521493266204,-0.5347544904603144 l 15.250549987596473 -12.722551204258947" fill="#ffe215" stroke="none" /><path d="M 83.64595745247003 113.17365903436017 l -15.475529007220716 12.465990712997595 a40.871912905150126,40.871912905150126 0 0,0 -0.43544852194173606,-0.5501749824924823 l 15.687243959804015 -12.198495786590433" fill="#ffe215" stroke="none" /><path d="M 83.20337586046588 112.60449989151573 l -31.349944922694235 23.52558312280504 a60.195307218134815,60.195307218134815 0 0,0 -0.6131264116423768,-0.8318237317297233 l 31.74917335392044 -22.983953081806437" fill="#3aff2e" stroke="none" /><path d="M 82.78059297857968 112.02048342749411 l -31.977309029530915 22.322645185584836 a59.998061244780274,59.998061244780274 0 0,0 -0.5822962215651865,-0.8495875893970186 l 32.35579498791142 -21.77042286111777" fill="#3cff2e" stroke="none" /><path d="M 81.99639281039703 110.81064883170644 l -35.83575997729946 21.518344221353146 a62.80000994233446,62.80000994233446 0 0,0 -0.5470368010745141,-0.9289880818923377 l 36.19987048850374 -20.90000497116725" fill="#31ff43" stroke="none" /><line stroke="#e1ed5e" stroke-width="0.3" x1="26.387840678322732" x2="22.057713659400548" y1="142.50000000000003" y2="145.00000000000006" /><path d="M 25.521815274538298 143.00000000000003 a86.0,86.0 0 0,1 -11.493303480769221,-40.785679425670985" fill="none" id="id9" stroke="none" /><text fill="#e1ed5e" style="font-size:6.75px; font-family:Arial;" text-anchor="middle"><textPath startOffset="21.40746469413373" xlink:href="#id9">September</textPath></text><path d="M 81.81346652052679 110.50000000000001 l -26.360012013464445 15.218960031815485 a51.43792006363094,51.43792006363094 0 0,0 -0.434936113142775,-0.7684904371498462 l 26.617381491628596 -14.764212824566517" fill="#9aff23" stroke="none" /><path d="M 81.1358732173502 109.22738970284198 l -27.129607666636463 13.270450591728888 a51.20133227281766,51.20133227281766 0 0,0 -0.3794280629398567,-0.7928587206062276 l 27.35341498753623 -12.802779369057555" fill="#9dff22" stroke="none" /><path d="M 80.9802524753101 108.90220220490708 l -27.51542025115803 12.878606012557864 a51.38020481208988,51.38020481208988 0 0,0 -0.36703947241630885,-0.802047487308044 l 27.732444188429398 -12.40436954303513" fill="#9bff22" stroke="none" /><path d="M 80.83023694016515 108.57439118712176 l -18.520360993618727 8.283921902964108 a41.28859614237423,41.28859614237423 0 0,0 -0.28384163533541706,-0.6494852091206074 l 18.65983651097111 -7.964774624067652" fill="#ffe715" stroke="none" /><path d="M 80.68587082218212 108.24405325689762 l -27.488247433893704 11.733098277299709 a50.887611851262676,50.887611851262676 0 0,0 -0.33603793319185626,-0.8063687093462283 l 27.685611211622046 -11.259497058512197" fill="#a0ff22" stroke="none" /><path d="M 80.41425534168474 107.57618678355246 l -27.94939674585959 10.811427082724974 a50.96757804732551,50.96757804732551 0 0,0 -0.3086434308529881,-0.8187133693830219 l 28.130870860527015 -10.330045433147808" fill="#a0ff22" stroke="none" /><path d="M 80.28708602549918 107.23885506374661 l -28.35922998670381 10.413902067383411 a51.21084708689601,51.21084708689601 0 0,0 -0.29594950925577734,-0.8278234495296721 l 28.53381966600353 -9.925543661472817" fill="#9dff22" stroke="none" /><path d="M 80.16572619554312 106.89939002012753 l -31.039627154900263 10.797193581792568 a53.86392921057865,53.86392921057865 0 0,0 -0.2962890035817068,-0.8759257919835667 l 31.220401580054336 -10.26276611533484" fill="#7eff26" stroke="none" /><path d="M 79.94057633289273 106.21446072829308 l -37.96341231633585 11.761162178289492 a60.743497713263075,60.743497713263075 0 0,0 -0.30002567231765487,-0.9986878850839342 l 38.15971430865713 -11.107736689614834" fill="#35ff2f" stroke="none" /><path d="M 79.73907114497094 105.5222062557868 l -32.08651871816767 8.745323359047534 a54.2569596341221,54.2569596341221 0 0,0 -0.2372076016174007,-0.9007159000910882 l 32.2319158005898 -8.193226954583642" fill="#7aff26" stroke="none" /><path d="M 79.64726062577567 105.17358676015961 l -31.935872275987588 8.117973848298957 a53.95150129250348,53.95150129250348 0 0,0 -0.22046246543186238,-0.8995620919627942 l 32.07052226793574 -7.5685559317280635" fill="#7dff26" stroke="none" /><path d="M 79.2786578344484 103.40968896794605 l -7.183571280526998 1.1820539205412484 a28.2801749850865,28.2801749850865 0 0,0 -0.07471151953529959,-0.4797015498444948 l 7.202804292200565 -1.0585641887653034" fill="#ff3204" stroke="none" /><line stroke="#e1ed5e" stroke-width="0.3" x1="15.003131293944662" x2="10.003315487706104" y1="100.72959589197737" y2="100.7725132973878" /><path d="M 14.003168132696942 100.73817937305945 a86.0,86.0 0 0,1 10.791469493833604,-42.45332614584628" fill="none" id="id10" stroke="none" /><text fill="#e1ed5e" style="font-size:6.75px; font-family:Arial;" text-anchor="middle"><textPath startOffset="22.145653131862435" xlink:href="#id10">October</textPath></text><path d="M 79.00077361379809 100.18025310272382 l -29.872880390535144 0.25642274999376674 a50.87398091071783,50.87398091071783 0 0,0 0.0,-0.8733517054351576 l 29.872880390535144 0.25642274999375575" fill="#a1ff22" stroke="none" /><path d="M 79.00696218219943 99.45929381324524 l -30.387545982292586 -0.7826753924574137 a51.39762378206403,51.39762378206403 0 0,0 0.030288651520055467,-0.8818210411889009 l 30.36963264377568 1.304202698210453" fill="#9bff22" stroke="none" /><path d="M 79.03789590574601 98.7389718711861 l -30.720501551465745 -1.8480690876012158 a51.77603897395109,51.77603897395109 0 0,0 0.06098733860851556,-0.8867425184868317 l 30.684250251692166 2.3751550302423725" fill="#96ff23" stroke="none" /><path d="M 79.0935383218832 98.0201363427161 l -29.969412518638965 -2.838134524595812 a51.10349970172997,51.10349970172997 0 0,0 0.09020402236938767,-0.8726420899312802 l 29.91627610378791 3.352181136810005" fill="#9eff22" stroke="none" /><path d="M 79.2786578344484 96.59031103205396 l -50.20353335690227 -8.260972309193265 a71.87866375024856,71.87866375024856 0 0,0 0.21079336311777994,-1.215800102306968 l 50.05432517629226 9.121565444420826" fill="#3dffae" stroke="none" /><line stroke="#e1ed5e" stroke-width="0.3" x1="26.387840678322718" x2="22.05771365940052" y1="57.49999999999999" y2="54.99999999999999" /><path d="M 25.521815274538284 56.99999999999999 a86.0,86.0 0 0,1 29.574782752854787,-30.34633250058573" fill="none" id="id11" stroke="none" /><text fill="#e1ed5e" style="font-size:6.75px; font-family:Arial;" text-anchor="middle"><textPath startOffset="21.40746469413373" xlink:href="#id11">November</textPath></text><path d="M 82.18462484594161 88.88188828441811 l -33.14060590435731 -20.682189152934058 a60.064724597335456,60.064724597335456 0 0,0 0.553402931759412,-0.8700413265095742 l 32.78068528097201 21.248044154122304" fill="#3cff2e" stroke="none" /><path d="M 83.64595745247003 86.82634096563983 l -23.600008105258482 -19.010495972677287 a51.30444422350368,51.30444422350368 0 0,0 0.5583711387845746,-0.6811219994399887 l 23.27019014723528 19.41282025381577" fill="#9cff22" stroke="none" /><path d="M 83.8745106332314 86.54754324733833 l -13.77597217262148 -11.492405945829454 a38.94025651222907,38.94025651222907 0 0,0 0.43261778774907284,-0.5096226661664532 l 13.576659821365292 11.727195394445465" fill="#ffc812" stroke="none" /><path d="M 84.10781606972428 86.27271002978789 l -22.897917996178727 -19.778676198736296 a51.25740703917279,51.25740703917279 0 0,0 0.5808902745473372,-0.6609464998779347 l 22.555016657672795 20.16883497642553" fill="#9cff22" stroke="none" /><path d="M 85.60350026404147 84.71141617570332 l -26.963348021935754 -28.634141213326128 a60.33110956452575,60.33110956452575 0 0,0 0.7600864502080723,-0.7035246708807743 l 26.46783180041373 29.092783630339266" fill="#39ff2e" stroke="none" /><path d="M 85.86807049272753 84.46653392183569 l -2.6897353658673158 -2.956490339372115 a24.99693776098628,24.99693776098628 0 0,0 0.3198833999379043,-0.2860417087234007 l 2.6385869391060197 3.0022275779789163" fill="#ff0000" stroke="none" /><path d="M 86.13680546590413 84.22622945171909 l -19.92016572096598 -22.66549189607405 a51.17511433684629,51.17511433684629 0 0,0 0.664839110313053,-0.5742721888222445 l 19.528147130890076 23.004108217361008" fill="#9dff22" stroke="none" /><path d="M 88.4268655584334 82.4767994020092 l -21.517193148159045 -32.57977289943801 a60.0439650029827,60.0439650029827 0 0,0 0.864960100459932,-0.5606566869666654 l 20.95474741544209 32.94434342810858" fill="#3cff2e" stroke="none" /><path d="M 88.72937992617638 82.28071324371311 l -16.040599544149334 -25.218486756170183 a50.88767150526944,50.88767150526944 0 0,0 0.7411083499370338,-0.46250642249728213 l 15.605327065422602 25.490128975509002" fill="#a0ff22" stroke="none" /><line stroke="#e1ed5e" stroke-width="0.3" x1="56.869717070023135" x2="54.33264160355391" y1="26.7553504044142" y2="22.446841604673864" /><path d="M 56.362301976729285 25.89364864446614 a86.0,86.0 0 0,1 42.16139366436587,-11.88097634709845" fill="none" id="id12" stroke="none" /><text fill="#e1ed5e" style="font-size:6.75px; font-family:Arial;" text-anchor="middle"><textPath startOffset="22.145653131862474" xlink:href="#id12">December</textPath></text><path d="M 90.93487009805054 81.0573650232925 l -14.063157329254857 -29.386590020160163 a53.578275999204614,53.578275999204614 0 0,0 0.8330434192879445,-0.3899063830548565 l 13.55662519609539 29.623672634785564" fill="#82ff25" stroke="none" /><path d="M 91.26138138417902 80.90454125486306 l -12.448987972145044 -27.203285403761548 a50.9164843905349,50.9164843905349 0 0,0 0.7979015517445777,-0.35689121519733963 l 11.980173017544848 27.412980369868734" fill="#a0ff22" stroke="none" /><path d="M 91.5904679813234 80.7573450057729 l -8.373615388303957 -19.16047071509231 a41.910310200835156,41.910310200835156 0 0,0 0.6617137548249439,-0.28244625400267875 l 8.043466558308582 19.30139161875439" fill="#ffef16" stroke="none" /><path d="M 93.27111125876988 80.10723608172694 l -20.186666223690388 -59.67829175481917 a84.0,84.0 0 0,0 1.3699090494089559,-0.4503163143918858 l 19.15923443663367 60.01602899061309" fill="#4dd2ff" stroke="none" /><path d="M 95.00130118170881 79.60360301121753 l -7.115651956730924 -29.034288205646455 a50.89351759793199,50.89351759793199 0 0,0 0.8503285194374568,-0.20067521526271986 l 6.616191283553562 29.152159564555408" fill="#a0ff22" stroke="none" /><path d="M 96.41257539226777 79.30868818359171 l -5.109759138954219 -29.47173284783786 a50.91141379996023,50.91141379996023 0 0,0 0.8623969161914332,-0.14190708437878677 l 4.603084719709713 29.555105930712315" fill="#a0ff22" stroke="none" /><path d="M 96.76829788921471 79.25015418208739 l -4.635325545244691 -29.762115158654563 a51.12091867170412,51.12091867170412 0 0,0 0.8682642032603902,-0.1276049375593206 l 4.123736236376616 29.83730116951277" fill="#9eff22" stroke="none" /><path d="M 97.84075906011542 79.11130261209362 l -3.078560633349254 -29.7822814825804 a50.9409723603102,50.9409723603102 0 0,0 0.8706065343670087,-0.08244734397075726 l 2.5668545355972294 29.830740582056343" fill="#a0ff22" stroke="none" /><path d="M 98.1996594967304 79.07731436759882 l -3.3592820563493393 -39.03994954727659 a60.18421157287731,60.18421157287731 0 0,0 1.0300986506809666,-0.07973615036188482 l 2.6886144108931553 39.091863464633526" fill="#3aff2e" stroke="none" /></svg>