<?xml version="1.0" encoding="utf-8" ?>
<svg baseProfile="full" height="200mm" version="1.1" viewBox="0,0,200,200" width="200mm" xmlns="http://www.w3.org/2000/svg" xmlns:ev="http://www.w3.org/2001/xml-events" xmlns:xlink="http://www.w3.org/1999/xlink"><defs /><rect fill="#1a1a1a" height="200" width="200" x="0" y="0" /><text alignment-baseline="middle" fill="#e1ed5e" style="dominant-baseline: central; font-size:9.0px; font-family:Arial;" text-anchor="middle" x="100.0" y="100.0">2020</text><line stroke="#e1ed5e" stroke-width="0.3" x1="100.0" x2="100.0" y1="15.0" y2="10.0" /><path d="M 100.0 14.0 a86.0,86.0 0 0,1 42.35913384403234,11.155469271406648" fill="none" id="id1" stroke="none" /><text fill="#e1ed5e" style="font-size:6.75px; font-family:Arial;" text-anchor="middle"><textPath startOffset="22.145653131862478" xlink:href="#id1">January</textPath></text><line stroke="#e1ed5e" stroke-width="0.3" x1="143.13028292997686" x2="145.6673583964461" y1="26.7553504044142" y2="22.446841604673864" /><path d="M 143.63769802327073 25.89364864446614 a86.0,86.0 0 0,1 29.32050498858742,28.57503671076993" fill="none" id="id2" stroke="none" /><text fill="#e1ed5e" style="font-size:6.75px; font-family:Arial;" text-anchor="middle"><textPath startOffset="20.669276256404974" xlink:href="#id2">February</textPath></text><line stroke="#e1ed5e" stroke-width="0.3" x1="172.87174338648825" x2="177.1583165268699" y1="56.24261187166439" y2="53.66864786411523" /><path d="M 173.72905801456457 55.72781907015455 a86.0,86.0 0 0,1 12.242430191666344,42.057860355516425" fill="none" id="id3" stroke="none" /><text fill="#e1ed5e" style="font-size:6.75px; font-family:Arial;" text-anchor="middle"><textPath startOffset="22.145653131862474" xlink:href="#id3">March</textPath></text><line stroke="#e1ed5e" stroke-width="0.3" x1="184.99686870605535" x2="189.99668451229388" y1="99.2704041080226" y2="99.22748670261217" /><path d="M 185.99683186730306 99.26182062694052 a86.0,86.0 0 0,1 -10.086455211305974,41.156179273409016" fill="none" id="id4" stroke="none" /><text fill="#e1ed5e" style="font-size:6.75px; font-family:Arial;" text-anchor="middle"><textPath startOffset="21.40746469413373" xlink:href="#id4">April</textPath></text><line stroke="#e1ed5e" stroke-width="0.3" x1="174.33088141563837" x2="178.70328620479359" y1="141.23008692659167" y2="143.65538615756765" /><path d="M 175.20536237346943 141.71514677278685 a86.0,86.0 0 0,1 -30.301960400862466,31.631185727798858" fill="none" id="id5" stroke="none" /><text fill="#e1ed5e" style="font-size:6.75px; font-family:Arial;" text-anchor="middle"><textPath startOffset="22.145653131862474" xlink:href="#id5">May</textPath></text><line stroke="#e1ed5e" stroke-width="0.3" x1="143.1302829299769" x2="145.66735839644613" y1="173.24464959558577" y2="177.55315839532614" /><path d="M 143.63769802327073 174.10635135553383 a86.0,86.0 0 0,1 -40.68552437913181,11.842963189579606" fill="none" id="id6" stroke="none" /><text fill="#e1ed5e" style="font-size:6.75px; font-family:Arial;" text-anchor="middle"><textPath startOffset="21.407464694133747" xlink:href="#id6">June</textPath></text><path d="M 102.15924093988457 120.88869738790638 l 1.5463988184729283 14.960005788804587 a36.03971816580488,36.03971816580488 0 0,0 -0.6159366945327794,0.058329845359221366 l -1.2893625605551335 -14.984347389668992" fill="#ffa10e" stroke="none" /><path d="M 101.44090949804482 120.95050786540614 l 1.0268496333373243 14.930168306208154 a35.96543837718052,35.96543837718052 0 0,0 -0.6163031489552475,0.037075267025423166 l -0.7704021322496117 -14.94559555105827" fill="#ffa00e" stroke="none" /><path d="M 101.08105385017728 120.97215588758144 l 0.925136756296238 17.94740591987569 a38.97123416103188,38.97123416103188 0 0,0 -0.6684016486855536,0.028704042749841955 l -0.6169093470098549 -17.960642531051363" fill="#ffc912" stroke="none" /><path d="M 100.72087961077811 120.9876233191556 l 0.7308844317868362 21.278902766607388 a42.291451218819255,42.291451218819255 0 0,0 -0.7257750451375748,0.0186933906614219 l -0.36549607257851746 -21.288313874618854" fill="#fff417" stroke="none" /><line stroke="#e1ed5e" stroke-width="0.3" x1="101.45913802915013" x2="101.54496967792366" y1="184.9874750549273" y2="189.98673829345242" /><path d="M 101.47630435890484 185.9873277026323 a86.0,86.0 0 0,1 -42.54439059252881,-10.42667462771756" fill="none" id="id7" stroke="none" /><text fill="#e1ed5e" style="font-size:6.75px; font-family:Arial;" text-anchor="middle"><textPath startOffset="22.145653131862474" xlink:href="#id7">July</textPath></text><path d="M 100.36049292484886 120.99690560180557 l 0.36496861688132687 21.257592224567915 a42.26072504119553,42.26072504119553 0 0,0 -0.7254615417301765,0.006227214822046937 l -2.6036878869252082e-15 -21.260725041195528" fill="#fff417" stroke="none" /><path d="M 100.0 121.0 l 1.3027572617897136e-15 10.637820330700606 a31.637820330700606,31.637820330700606 0 0,0 -0.5431052565169876,-0.004661905433675051 l 0.1826123316681342 -10.636252823461366" fill="#ff6309" stroke="none" /><path d="M 99.63950707515114 120.99690560180557 l -0.31062531728338993 18.092367463979798 a39.09503380873913,39.09503380873913 0 0,0 -0.6709204605058913,-0.017280531143912776 l 0.6211590918600252 -18.08436921548584" fill="#ffca12" stroke="none" /><path d="M 98.91894614982273 120.97215588758144 l -0.9306651866909045 18.054655992600406 a39.07862662651287,39.07862662651287 0 0,0 -0.6696506905932391,-0.04028452265673059 l 1.24046022941659 -18.036019492118985" fill="#ffca12" stroke="none" /><path d="M 97.12497278360702 120.80226474461374 l -2.482588206757199 17.962771564163237 a39.13351610886982,39.13351610886982 0 0,0 -0.6646639393014812,-0.09768271011751672 l 2.7905772516663654 -17.91750778074684" fill="#ffcb12" stroke="none" /><path d="M 96.41257539226777 120.69131181640829 l -5.432861952464984 31.33530401493652 a52.80278709017558,52.80278709017558 0 0,0 -0.8917768834563772,-0.16251145481673063 l 5.969973569472419 -31.237424386188422" fill="#8aff24" stroke="none" /><path d="M 96.05791012581884 120.62667999033965 l -2.8215543553680957 14.763564662669099 a36.03076879368146,36.03076879368146 0 0,0 -0.6065239713137085,-0.12132178095724566 l 3.074574812212762 -14.712953485048992" fill="#ffa10e" stroke="none" /><path d="M 95.00130118170881 120.39639698878247 l -4.584223492955008 18.705196221359262 a40.258750497187336,40.258750497187336 0 0,0 -0.6698187773846386,-0.170265313905223 l 4.904647563565025 -18.62374567561878" fill="#ffda14" stroke="none" /><path d="M 94.6519064749342 120.30758222061772 l -4.095778426662707 15.552337812914697 a37.08261833058697,37.08261833058697 0 0,0 -0.6141916360675311,-0.16740066159909228 l 4.362151463664934 -15.47973665717146" fill="#ffaf10" stroke="none" /><path d="M 93.95794788825049 120.11202640906438 l -5.71650089207984 19.028372278579965 a40.86850105119609,40.86850105119609 0 0,0 -0.6701643408321363,-0.20761862587472144 l 6.04230586578361 -18.927437064898594" fill="#ffe215" stroke="none" /><path d="M 93.61358852112213 120.00534299687104 l -6.04502750258636 18.93596255341934 a40.87745042331951,40.87745042331951 0 0,0 -0.6666474910913596,-0.21914027162342162 l 6.369197731325463 -18.829401360393895" fill="#ffe215" stroke="none" /><path d="M 92.93061703081489 119.77432235084164 l -6.913024237396067 19.336959149803793 a41.5355275867947,41.5355275867947 0 0,0 -0.6693368155781402,-0.2457897499612326 l 7.243950204628327 -19.21543855083384" fill="#ffea16" stroke="none" /><path d="M 91.92203290615298 119.3841803445677 l -7.647423703084561 18.35103294055585 a40.88073185976476,40.88073185976476 0 0,0 -0.6454579421933648,-0.2755076142206274 l 7.961316720448357 -18.217050676675818" fill="#ffe215" stroke="none" /><path d="M 90.93487009805054 118.94263497670748 l -3.0527014241663437 6.378971884167104 a28.071793851923402,28.071793851923402 0 0,0 -0.4328934630368308,-0.21174988533938427 l 3.161755136465244 -6.3256282487304984" fill="#ff2f04" stroke="none" /><path d="M 90.6110303473126 118.78422872680471 l -8.884017111277736 17.773985389687788 a40.87058923802489,40.87058923802489 0 0,0 -0.6248777922312198,-0.31906705314380646 l 9.187822125222537 -17.618860384871148" fill="#ffe215" stroke="none" /><line stroke="#e1ed5e" stroke-width="0.3" x1="58.13341422392154" x2="55.67067388415222" y1="173.97424548756322" y2="178.32567169271397" /><path d="M 57.64086615596768 174.84453072859336 a86.0,86.0 0 0,1 -31.369924170532247,-30.572349798747897" fill="none" id="id8" stroke="none" /><text fill="#e1ed5e" style="font-size:6.75px; font-family:Arial;" text-anchor="middle"><textPath startOffset="22.145653131862474" xlink:href="#id8">August</textPath></text><path d="M 86.96720088162412 116.46651593811092 l -12.327803109472317 15.57577651126385 a40.864026365134386,40.864026365134386 0 0,0 -0.5463116153425595,-0.44006996594981884 l 12.593365495170138 -15.361858251520621" fill="#ffe215" stroke="none" /><path d="M 86.13680546590413 115.77377054828092 l -19.787289908473266 22.514303613133848 a50.97383374055344,50.97383374055344 0 0,0 -0.6523072306179799,-0.583297147944584 l 20.170862165914617 -22.171310935305883" fill="#9fff22" stroke="none" /><path d="M 85.60350026404147 115.28858382429668 l -20.675284537558024 21.956435699027583 a51.15878743110404,51.15878743110404 0 0,0 -0.6341923789563862,-0.607541953028218 l 21.049149402379726 -21.598281615693782" fill="#9dff22" stroke="none" /><path d="M 85.34317274990678 115.03919595460226 l -21.162829550094806 21.714927461923864 a51.32166600375021,51.32166600375021 0 0,0 -0.6256552937786415,-0.6203078447676207 l 21.53247676400341 -21.348439606927585" fill="#9bff22" stroke="none" /><path d="M 84.83555147118756 114.52719865689866 l -21.6902710717388 20.778789032944008 a51.03707597022559,51.03707597022559 0 0,0 -0.6006435994857581,-0.6378626879927405 l 22.04377050496081 -20.40338488500678" fill="#9fff22" stroke="none" /><path d="M 84.3458050057657 113.99807769240083 l -22.514635498909612 20.13272589525693 a51.203235979317014,51.203235979317014 0 0,0 -0.5802763644092748,-0.6602479828347493 l 22.85692292727748 -19.74326563461088" fill="#9dff22" stroke="none" /><path d="M 84.1078160697243 113.72728997021213 l -15.032060900922474 12.984336183256783 a40.863429740326154,40.863429740326154 0 0,0 -0.45398382438872603,-0.5347918036038289 l 15.252739288818313 -12.7243775972034" fill="#ffe215" stroke="none" /><path d="M 83.64595745247003 113.17365903436017 l -15.474730497947595 12.465347490450675 a40.870887550429,40.870887550429 0 0,0 -0.4354375978335639,-0.5501611802386692 l 15.68643452642272 -12.197866366297324" fill="#ffe215" stroke="none" /><path d="M 83.20337586046588 112.60449989151573 l -31.351821391648716 23.526991260091243 a60.1976532757543,60.1976532757543 0 0,0 -0.6131503076893647,-0.8318561513068312 l 31.751073718921912 -22.985328799515532" fill="#3aff2e" stroke="none" /><path d="M 82.78059297857968 112.02048342749411 l -31.977081667939025 22.322486469535907 a59.99778396499801,59.99778396499801 0 0,0 -0.5822935304954056,-0.8495836630457846 l 32.35556493524975 -21.770268071420073" fill="#3cff2e" stroke="none" /><path d="M 81.99639281039703 110.81064883170644 l -35.83100429122317 21.515488568506292 a62.79446275356555,62.79446275356555 0 0,0 -0.5469884807573376,-0.9289060234299416 l 36.19506648211027 -20.89723137678279" fill="#31ff43" stroke="none" /><line stroke="#e1ed5e" stroke-width="0.3" x1="26.387840678322732" x2="22.057713659400548" y1="142.50000000000003" y2="145.00000000000006" /><path d="M 25.521815274538298 143.00000000000003 a86.0,86.0 0 0,1 -11.493303480769221,-40.785679425670985" fill="none" id="id9" stroke="none" /><text fill="#e1ed5e" style="font-size:6.75px; font-family:Arial;" text-anchor="middle"><textPath startOffset="21.40746469413373" xlink:href="#id9">September</textPath></text><path d="M 81.81346652052679 110.50000000000001 l -26.354404416558054 15.215722484232074 a51.43144496846412,51.43144496846412 0 0,0 -0.4348813626256351,-0.7683936982321532 l 26.61171914420507 -14.7610720159008" fill="#9aff23" stroke="none" /><path d="M 81.1358732173502 109.22738970284198 l -27.132121665198216 13.271680314403516 a51.20413091652935,51.20413091652935 0 0,0 -0.3794488023213386,-0.7929020579369999 l 27.355949725479466 -12.803965754401412" fill="#9dff22" stroke="none" /><path d="M 80.9802524753101 108.90220220490708 l -27.51940996828356 12.88047340162524 a51.38460992101824,51.38460992101824 0 0,0 -0.36707094073884505,-0.8021162512719135 l 27.736465373877465 -12.406168168138638" fill="#9bff22" stroke="none" /><path d="M 80.83023694016515 108.57439118712176 l -18.51267120428366 8.280482358004704 a41.280172168873236,41.280172168873236 0 0,0 -0.2837837240805442,-0.6493526968362939 l 18.65208881038117 -7.961467591392561" fill="#ffe715" stroke="none" /><path d="M 80.68587082218212 108.24405325689762 l -27.48441517114475 11.731462512212607 a50.88344508210694,50.88344508210694 0 0,0 -0.3360104178016809,-0.8063026824264334 l 27.681751433482916 -11.257927320344892" fill="#a0ff22" stroke="none" /><path d="M 80.41425534168474 107.57618678355246 l -27.953283589487942 10.812930597339331 a50.971745553724645,50.971745553724645 0 0,0 -0.30866866794532033,-0.81878031376878 l 28.1347829412477 -10.331482003376406" fill="#9fff22" stroke="none" /><path d="M 80.28708602549918 107.23885506374661 l -28.36328651820083 10.415391681937933 a51.21516847548156,51.21516847548156 0 0,0 -0.29597448273120197,-0.8278933047851336 l 28.537901170975974 -9.926963420771877" fill="#9dff22" stroke="none" /><path d="M 80.16572619554312 106.89939002012753 l -31.044092793946657 10.798746962862827 a53.86865731007444,53.86865731007444 0 0,0 -0.29631501141123157,-0.8760026795102682 l 31.224893226930256 -10.264242608878396" fill="#7eff26" stroke="none" /><path d="M 79.94057633289273 106.21446072829308 l -37.96889063826129 11.762859376425771 a60.749232910960856,60.749232910960856 0 0,0 -0.300053999737213,-0.9987821778506493 l 38.16522095800214 -11.109339594984398" fill="#35ff2f" stroke="none" /><path d="M 79.73907114497094 105.5222062557868 l -32.08546435534178 8.745035987770793 a54.25586681061424,54.25586681061424 0 0,0 -0.2372028238700843,-0.9006977582063207 l 32.2308566600166 -8.19295772519167" fill="#7aff26" stroke="none" /><path d="M 79.64726062577567 105.17358676015961 l -31.9365347002041 8.118142233944404 a53.95218478322632,53.95218478322632 0 0,0 -0.22046525838564954,-0.8995734881673437 l 32.071187485106044 -7.568712921168961" fill="#7dff26" stroke="none" /><path d="M 79.2786578344484 103.40968896794605 l -7.184591732155006 1.1822218354683096 a28.281209159611343,28.281209159611343 0 0,0 -0.07471425165241898,-0.4797190919962898 l 7.203827475945692 -1.05871456154057" fill="#ff3204" stroke="none" /><line stroke="#e1ed5e" stroke-width="0.3" x1="15.003131293944662" x2="10.003315487706104" y1="100.72959589197737" y2="100.7725132973878" /><path d="M 14.003168132696942 100.73817937305945 a86.0,86.0 0 0,1 10.791469493833604,-42.45332614584628" fill="none" id="id10" stroke="none" /><text fill="#e1ed5e" style="font-size:6.75px; font-family:Arial;" text-anchor="middle"><textPath startOffset="22.145653131862435" xlink:href="#id10">October</textPath></text><path d="M 79.00077361379809 100.18025310272382 l -29.877273089226804 0.2564604560289292 a50.878373771236994,50.878373771236994 0 0,0 0.0,-0.8734271175054825 l 29.877273089226804 0.2564604560289182" fill="#a1ff22" stroke="none" /><path d="M 79.00696218219943 99.45929381324524 l -30.391832818988426 -0.7827858061642419 a51.401912040456835,51.401912040456835 0 0,0 0.030291178593381624,-0.8818946141715132 l 30.373916953398194 1.3043866848998937" fill="#9aff22" stroke="none" /><path d="M 79.03789590574601 98.7389718711861 l -30.724925061840388 -1.8483351950008091 a51.78047048127735,51.78047048127735 0 0,0 0.060992558510292685,-0.8868184147130602 l 30.68866854216503 2.375497033868194" fill="#96ff23" stroke="none" /><path d="M 79.0935383218832 98.0201363427161 l -29.97366977935245 -2.8385376916116365 a51.10777601000058,51.10777601000058 0 0,0 0.09021157058446397,-0.8727151120649547 l 29.92052581628632 3.352657325959504" fill="#9eff22" stroke="none" /><path d="M 79.2786578344484 96.59031103205396 l -50.209134305170764 -8.261893943099436 a71.8843400193193,71.8843400193193 0 0,0 0.21081000950190776,-1.215896114227013 l 50.05990947817663 9.12258309024704" fill="#3dffaf" stroke="none" /><line stroke="#e1ed5e" stroke-width="0.3" x1="26.387840678322718" x2="22.05771365940052" y1="57.49999999999999" y2="54.99999999999999" /><path d="M 25.521815274538284 56.99999999999999 a86.0,86.0 0 0,1 29.574782752854787,-30.34633250058573" fill="none" id="id11" stroke="none" /><text fill="#e1ed5e" style="font-size:6.75px; font-family:Arial;" text-anchor="middle"><textPath startOffset="21.40746469413373" xlink:href="#id11">November</textPath></text><path d="M 82.18462484594161 88.88188828441811 l -33.14531364427213 -20.685127130823844 a60.070273879197686,60.070273879197686 0 0,0 0.5534540597529607,-0.8701217082075667 l 32.78534189289328 21.251062513710085" fill="#3cff2e" stroke="none" /><path d="M 83.64595745247003 86.82634096563983 l -23.60343026410014 -19.013252621598212 a51.308838570373325,51.308838570373325 0 0,0 0.5584189645919282,-0.6811803391485927 l 23.27356448026958 19.415635242445298" fill="#9cff22" stroke="none" /><path d="M 83.8745106332314 86.54754324733833 l -13.777997818518074 -11.494095811680987 a38.942894482641066,38.942894482641066 0 0,0 0.43264709502709314,-0.5096571900662691 l 13.578656159983867 11.728919784196812" fill="#ffc812" stroke="none" /><path d="M 84.10781606972428 86.27271002978789 l -22.901170726162842 -19.78148582942536 a51.26170521052332,51.26170521052332 0 0,0 0.5809389848914628,-0.661001923307915 l 22.558220677312786 20.171700030544574" fill="#9cff22" stroke="none" /><path d="M 85.60350026404147 84.71141617570332 l -26.960613574505444 -28.631237324914483 a60.32712085913973,60.32712085913973 0 0,0 0.7600361981749229,-0.7034781583491104 l 26.46514760501657 29.08983322939596" fill="#39ff2e" stroke="none" /><path d="M 85.86807049272753 84.46653392183569 l -2.6840146814056633 -2.9502023050323434 a24.988436843002443,24.988436843002443 0 0,0 0.31977461451093464,-0.28594443212380016 l 2.6329750400713365 2.9958422670395444" fill="#ff0000" stroke="none" /><path d="M 86.13680546590413 84.22622945171909 l -19.92297575758392 -22.668689201913963 a51.179370986987905,51.179370986987905 0 0,0 0.6648944103847721,-0.5743199557070977 l 19.5309018674363 23.00735329008577" fill="#9dff22" stroke="none" /><path d="M 88.4268655584334 82.4767994020092 l -21.514429965197657 -32.57558908825308 a60.03895107676573,60.03895107676573 0 0,0 0.8648878726161492,-0.5606098697509575 l 20.95205646032448 32.94011279970795" fill="#3cff2e" stroke="none" /><path d="M 88.72937992617638 82.28071324371311 l -16.042814126617255 -25.22196844764213 a50.891797829422124,50.891797829422124 0 0,0 0.7411684441247544,-0.46254392571496666 l 15.607481553702803 25.493648170198632" fill="#a0ff22" stroke="none" /><line stroke="#e1ed5e" stroke-width="0.3" x1="56.869717070023135" x2="54.33264160355391" y1="26.7553504044142" y2="22.446841604673864" /><path d="M 56.362301976729285 25.89364864446614 a86.0,86.0 0 0,1 42.16139366436587,-11.88097634709845" fill="none" id="id12" stroke="none" /><text fill="#e1ed5e" style="font-size:6.75px; font-family:Arial;" text-anchor="middle"><textPath startOffset="22.145653131862474" xlink:href="#id12">December</textPath></text><path d="M 90.93487009805054 81.0573650232925 l -14.062695479038442 -29.385624930838986 a53.577206091255185,53.577206091255185 0 0,0 0.8330267841917252,-0.3898985969898705 l 13.556179980975195 29.6226997593994" fill="#82ff25" stroke="none" /><path d="M 91.26138138417902 80.90454125486306 l -12.45075639477874 -27.207149726365646 a50.92073413262118,50.92073413262118 0 0,0 0.7979681485618118,-0.3569210031066111 l 11.98187484336131 27.416874480382102" fill="#a0ff22" stroke="none" /><path d="M 91.5904679813234 80.7573450057729 l -8.374769051783094 -19.163110522903157 a41.91319109040286,41.91319109040286 0 0,0 0.6617592406312752,-0.2824656691886484 l 8.044574735981389 19.30405084175121" fill="#ffef16" stroke="none" /><path d="M 93.27111125876988 80.10723608172694 l -20.186666223690388 -59.67829175481917 a84.0,84.0 0 0,0 1.3699090494089559,-0.4503163143918858 l 19.15923443663367 60.01602899061309" fill="#4dd2ff" stroke="none" /><path d="M 95.00130118170881 79.60360301121753 l -7.116662760179521 -29.038412628654253 a50.897764077504405,50.897764077504405 0 0,0 0.8503994695870645,-0.20069195930484002 l 6.617131136852551 29.156300731605327" fill="#a0ff22" stroke="none" /><path d="M 96.41257539226777 79.30868818359171 l -5.110484998255735 -29.475919411399403 a50.91566282175123,50.91566282175123 0 0,0 0.8624688910791036,-0.1419189278191633 l 4.603738604123559 29.559304337714234" fill="#a0ff22" stroke="none" /><path d="M 96.76829788921471 79.25015418208739 l -4.635965646594315 -29.766225068496876 a51.125078129439174,51.125078129439174 0 0,0 0.8683348496484083,-0.12761532014551727 l 4.124305691338222 29.841421461941277" fill="#9eff22" stroke="none" /><path d="M 97.84075906011542 79.11130261209362 l -3.0789948864636285 -29.786482487539313 a50.94519574975851,50.94519574975851 0 0,0 0.8706787141916276,-0.08245417947519373 l 2.5672166088869854 29.83494842251969" fill="#a0ff22" stroke="none" /><path d="M 98.1996594967304 79.07731436759882 l -3.359564888225279 -39.04323648239601 a60.18751065401443,60.18751065401443 0 0,0 1.0301551169690348,-0.07974052120969907 l 2.6888407764810265 39.09515477060076" fill="#3aff2e" stroke="none" /></svg>